<?xml version="1.0" encoding="utf-8"?>
<!-- Generator: Adobe Illustrator 27.5.0, SVG Export Plug-In . SVG Version: 6.00 Build 0)  -->
<svg version="1.1" xmlns="http://www.w3.org/2000/svg" xmlns:xlink="http://www.w3.org/1999/xlink" x="0px" y="0px"
	 viewBox="0 0 750 500" style="enable-background:new 0 0 750 500;" xml:space="preserve">
<g id="BACKGROUND">
	<g>
		<rect style="fill:#FFFFFF;" width="750" height="500"/>
	</g>
</g>
<g id="OBJECTS">
	<g>
		<g>
			<path style="fill:#72A13A;" d="M688.19,384.35c0.73-0.35,1.45-0.71,2.17-1.08c5.74-3.48,11.29-7.39,17.69-9.6
				c-7.03-2.31-14.21-1.13-20.48,2.15c0.49-0.53,0.99-1.05,1.48-1.59c2.8-2.97,5.72-5.85,7.98-9.28c-4.42,1.48-9.11,2.66-12.91,5.47
				c-0.73,0.51-1.41,1.06-2.06,1.66c1.27-5.48,1.55-11.17,3.21-16.56c-8.72,6.34-12.6,18.14-11.32,28.83H508.24
				c1.08-0.59,2.16-1.19,3.23-1.81c4.4-2.58,7.82-6.87,12.69-8.58c-3.83-1.17-7.91-0.09-11.56,1.25c-4.94,1.71-9.17,4.98-12.25,9.13
				h-0.53c2.28-3.26,4.38-6.65,5.9-10.32c1.99-4.61,2.36-9.77,4.56-14.28c-8.25,4.53-12.84,15.08-13.62,24.6h-0.35
				c-2.24-5.76-6.39-10.72-11.49-14.29c0.99,3.99,2.49,7.9,4.68,11.39c0.68,1,1.43,1.97,2.21,2.9h-3.57
				c-7.09-5.04-16.71-6.71-25.02-4.44c3.23,1.4,6.38,2.99,9.6,4.44h-80.76c1.49-1.79,2.94-3.62,4.33-5.49
				c3.03-4.65,5.73-9.51,9.1-13.93c-9.47,2.2-16,10.16-18.56,19.21c0-0.02,0-0.05,0.01-0.07c0.26-5.21-0.99-11.4-3.16-15.71
				c-1.64,5.14-2.24,10.7-1.33,15.99h-196.7c1.73-1.7,3.24-3.6,4.32-5.84c0.61-1.06,0.91-2.25,1.47-3.33
				c-0.2,0.09-0.41,0.18-0.6,0.28c-3.09,1.83-5.98,4.16-8.19,6.99c0.56-1.58,1.06-3.22,1.37-4.93c0.52-3.37,0.43-6.81-0.06-10.18
				c-0.08-0.29-0.09-1.35-0.29-0.84c-3.18,5.34-4.74,11.71-3.77,17.85h-1.57c-1.61-2.3-3.57-4.35-5.82-6.08
				c-0.45-0.26-2.49-2.35-2.07-1.32c0.59,2.85,2.03,5.35,3.98,7.4H43.8c1.85-2.44,2.96-5.34,4.59-7.93
				c-2.9,1.07-5.44,3.11-7.31,5.64c0.1-0.34,0.21-0.67,0.31-1.01c0.98-4.65,2.62-9.24,2.67-14.03c0.19-1.29-0.77,0.55-1.18,0.88
				c-1.63,2.15-4.07,4.7-5.37,7.92c-0.15,0.39-0.26,0.78-0.39,1.18c-0.51-3.14-1.38-6.24-2.48-9.23
				c-2.26,5.39-2.12,11.18-0.43,16.58h-0.48c-1.13-1.49-2.33-2.92-3.54-4.32c-2.58-3.01-5.38-6.03-9.33-7.14
				c-1.43-0.29-2.8-1.22-1.09,0.68c2.18,2.52,3.52,5.57,5.32,8.33c0.64,0.9,1.38,1.7,2.16,2.45H0V500h750V384.35H688.19z"/>
		</g>
		<g>
			<path style="fill:#4D662E;" d="M356.91,452.75c0,12.45-39.86,8.61-106.3,11.48c-0.01-0.92-0.07-1.86-0.21-2.78
				c-0.19-1.48,0-2.98-0.29-4.43c-0.09-1.19-0.44,0.35-0.93,0.95c-1.2,1.64-1.86,3.55-2.36,5.51c-0.11,0.3-0.21,0.61-0.3,0.93h-0.1
				c-0.31-0.72-0.66-1.42-1.06-2.1c-2.2-3.43-4.34-4.49-5.8-7.69c-0.11-0.29-0.11,0.25-0.16,0.37c-0.43,1.96-0.25,3.96,0.43,5.84
				c0.36,1.28,0.68,2.57,0.97,3.86c-11.88,0.62-24.54,1.46-37.89,2.66c-4.38,0.39-8.68,0.74-12.9,1.04c0.32-0.48,0.59-1.01,0.9-1.5
				c0.05-0.09,1.63-1.84,2.02-2.65c0.77-1.34,0.76-1.81,1.21-2.61c0.55-1.01,0.65-0.91,1.42-2.04c0.47-0.9,0.52-1.53,1.14-2.4
				c0.6-0.73-0.43-0.11-0.81,0c-0.64,0.3-1.12,0.72-1.5,0.98c-1.5,0.67-2.99,1.46-3.92,2.87c-0.72,0.92-1.6,1.75-2.32,2.68v-0.1
				c0-3.73-0.79-7.42-1.72-11.02c-0.7-2.11-1.64-4.03-2.13-5.27c-0.41-0.83-0.85-2.16-1.35-3.6c-0.3,0.86-0.62,1.71-0.83,2.59
				c-0.54,2.36-0.6,4.78-0.78,7.18c-0.24,1.79-0.49,4.62-0.27,8.02c0.35,3.92,0.27,3.01,0.97,7.41
				c-21.26,1.32-40.23,1.53-56.71,0.89c0.34-0.6,0.73-1.15,1.21-1.65c0.99-1.07,1.47-2.45,2.18-3.7c0.89-1.49,1.92-2.88,2.78-4.39
				c0.15-0.24,0.28-0.49,0.4-0.74c-1.37,0.7-2.71,1.48-3.94,2.41c-1.31,0.97-2.15,2.33-2.92,3.73c0.01-0.23,0.02-0.45,0.02-0.69
				c0.04-1.76-0.01-3.5-0.05-5.26c0.14-1.18,0.3-2.79,0.71-5.41c0.08-0.44,0.15-0.89,0.21-1.34c-1.64,1.5-2.88,3.37-3.87,5.35
				c-1.05,2.61-0.84,3.14-1.03,4.47c-0.41-1.18-0.88-2.89-1.33-3.76c-0.02-0.03-0.03-0.07-0.04-0.08c-0.14-0.41-0.26-0.82-0.4-1.23
				c-0.19-0.58-0.5-1.1-0.68-1.69c-0.08,0.21-0.15,0.43-0.22,0.64c-0.26,1.15-0.68,2.26-0.75,3.45c-0.06,0.36-0.13,0.72-0.22,1.52
				c-0.33,2,0.11,4.02,0.46,5.99c0.19,0.72,0.48,1.41,0.81,2.07c-45.06-2.47-69.75-11.6-69.75-21.66c0-4.62,6.01-9.45,17.03-13.92
				c-1.05-1.09-1.92-2.37-2.52-3.73c-0.73-2.04-0.42-4.3,0.33-6.29c0.78,2.27,1.57,4.53,2.77,6.61c0.43,0.89,0.77,1.81,1.09,2.74
				c1.39-0.53,2.88-1.06,4.41-1.58c0.07-2.1,0.5-4.19,1.37-6.1c0.6-1.55,1.34-2.45,1.6-4.02c0.52,0.18,0.65,1.76,0.7,2.49
				c0.14,2.5-0.68,4.85-1.87,7.02c15.68-5.12,38.2-9.57,65.94-12.41c-1.76-4.13-2.3-8.79,0.22-12.7c0.35,2.13,0.81,4.26,1.46,6.34
				c0.66-1.83,1.87-3.45,3.79-4.55c-0.96,2.84-1.34,5.82-2,8.73c0.55-1.07,1.29-2.03,2.25-2.75c1.63-1.13,3.62-2.17,5.65-1.85
				c-1.32,0.76-2.2,2.04-3.27,3.09c-0.99,1.06-2,2.12-2.98,3.19c19.04-1.77,40.38-2.81,63.54-2.81c1.13,0,2.26,0.01,3.38,0.02
				c0.07-0.82,0.12-1.64,0.14-2.45c-0.11-2.19-0.35-4.41,0.11-6.57c0.18-0.8,0.18-0.54,0.43,0.03c0.6,1.21,1.26,2.4,1.7,3.68
				c0.29,0.61,0.47,1.24,0.57,1.87c0.28-0.4,0.56-0.8,0.87-1.17c1.03-1.42,2.4-2.65,4.19-2.91c0.48-0.03,2.49-0.57,1.43,0.16
				c-1.7,1.35-2.45,2.72-3.45,4.57c-0.75,1.05-1.65,1.99-2.64,2.82c20.85,0.23,39.6,1.55,56.11,3.62c-0.84-0.7-1.98-1.24-2.76-2.11
				c-1.17-1.31-1.65-3.14-3.23-4.06c2.24-0.39,3.74,1.44,5.53,2.41c1.93,0.77,2.99,2.34,3.42,4.14c0.04,0,0.07,0.01,0.11,0.01
				c0.34-1.74,0.93-3.44,1.82-4.98c1.03-1.73,2.51-3.12,3.76-4.68c0.15-0.16,0.3-0.33,0.45-0.49c-0.05,0.97-0.09,1.95-0.32,2.9
				c-0.24,0.98-0.56,1.93-0.91,2.87c0.21-0.22,0.44-0.45,0.74-0.7c1.97-1.55,4.54-2.01,6.77-3.08c-1.01,2.27-2.95,3.75-4.66,5.46
				c-1.03,1.33-2.33,2.33-3.7,3.25c0.19,0.03,0.37,0.06,0.56,0.09c0.65-0.44,1.33-0.84,2.04-1.16c1.68-0.74,3.51-0.98,5.3-1.27
				c1.61-0.12,2.74,0.25,3.96,0.34c1.44-0.06-1.72,1.27-2.22,1.46c-1.04,0.57-2.12,1.07-3.23,1.53
				C331.51,428.52,356.91,442.29,356.91,452.75z"/>
		</g>
		<g>
			<path style="fill:#4D662E;" d="M675.42,463.08c0,6.38-10.84,5.48-29.2,4.26c0.58-0.48,1.27-1.14,1.92-2.09
				c0.52-1.08,1.45-1.66,2.48-2.53c1.04-1.05,1.31-1.79,2.25-2.75c0.56-0.74,1.43-1.27-0.1-0.82c-1.17,0.18-2.13,0.56-2.77,0.84
				c-1.51,0.57-3.28,0.56-4.56,1.66c-0.16,0.1-0.81,0.65-0.89,0.74c-0.04,0.03-0.07,0.05-0.11,0.08c-0.01,0.01-0.02,0.02-0.03,0.02
				c-0.01,0.01-0.01,0.01-0.02,0.02c-0.07,0.03-0.13,0.08-0.2,0.12c-1.1,0.58-2.26,1.13-3.16,2c0.14-0.7,0.26-1.39,0.27-1.89
				c0.04-1.7,0.04-3.58,0.77-5.06c0.13-0.28,0.4-0.84,0.63-1.18c-0.47,0.15-0.92,0.36-1.35,0.6c-1.31,0.78-2.33,1.9-2.97,3.28
				c-0.81,1.9-1.89,3.69-2.53,5.66c-0.05,0.24-0.09,0.45-0.12,0.65c-0.34-0.01-0.68-0.03-1.03-0.05c-0.52-1.01-1.18-1.95-1.99-2.78
				c-2.04-1.73-2.42-1.55-4.15-3.34c-1.03-1.25-2.19-2.43-3.77-2.94c1.09,1.63,0.97,3.55,1.67,5.45c0.42,1.23,1.23,2.25,1.94,3.33
				c-16.67-0.62-36.95-0.29-59.48,3.82c-1,0.18-1.99,0.36-2.99,0.53c0.54-1.04,0.98-2.12,1.26-3.27c0.78-2.41,0.93-5.18,1.39-7.12
				c0.34-1.16,1.16-2.1,1.59-3.23c-0.08,0.04-0.15,0.08-0.23,0.12c-1.24,0.6-2.6,1.06-3.58,2.09c-1.46,1.71-2.43,3.79-3.41,5.8
				c-0.36,0.78-0.67,1.58-0.96,2.39c-0.33-1.66-0.8-3.34-1.46-5.07c-0.59-1.02-1.07-4.12-2.36-6.44c-0.23-0.42-0.45-0.85-0.67-1.28
				c-0.29,1.22-0.31,2.15-0.53,3.04c-1.27,4.13-0.77,8.54-0.31,12.77c0.14,0.52,0.27,1.04,0.4,1.57
				c-17.87,2.49-35.08,3.16-50.73,2.57c1.09-0.44,2.11-0.76,3.68-1.58c1.06-0.6,3.06-2.54,3.24-2.63c3.54-2.26,5.29-3.62,8.8-5.89
				c-2.41-0.38-5.41-0.08-6.66,0.14c-2.62,0.28-5.24,0.93-7.43,2.47c-0.24,0.13-0.49,0.26-0.73,0.39c0.36-0.3,0.77-0.64,1.3-1.01
				c-0.03,0.03-0.06,0.05-0.08,0.07c0.03-0.01,0.07-0.04,0.13-0.09c2.36-1.38,3.29-4.28,4.11-6.09c0.87-1.46,2.92-2.92,3.72-4.82
				c0.47-0.81-0.59,0.14-0.98,0.17c-1.56,0.49-3.19,0.74-4.68,1.45c-1.49,0.49-3.61,3.09-3.93,3.25c-1.58,0.96-3.4,1.5-4.78,2.78
				c-0.02,0.02-0.03,0.04-0.05,0.06c0.21-0.88,0.38-1.76,0.49-2.66c0.14-1.57,0.04-3.09,0.32-4.58c-1.04,0.86-1.81,1.96-2.54,3.09
				c-1.27,2.01-2.88,3.74-4.08,5.88c-0.52,0.95-0.92,1.93-1.22,2.94c-1.39-2.25-3.17-4.65-4.3-5.95c-1.2-1.97-2.49-3.85-4.25-5.37
				c-0.63-0.89,0.27,2.68,0.2,3.14c0.03,4.56,1.76,8.94,3.96,12.89c0.17,0.32,0.34,0.64,0.49,0.97
				c-35.38-3.33-59.64-12.99-59.64-20.92c0-4.45,9.73-9.04,25.04-13.15c-0.15-0.52-0.3-1.06-0.44-1.64
				c-0.5-2.42-0.32-3.96-1.17-7.14c1.43,1.01,2.46,2.34,3.17,3.85c0.72-2.64,2.14-4.99,4.58-6.58c-0.77,2.57-1.06,5.24-1.48,7.89
				c-0.17,0.88-0.41,1.75-0.69,2.6c29.29-7.28,75.64-12.82,114.68-12.99c-0.37-4.87-0.83-9.75-0.04-14.59
				c1.72,3.02,3.5,6.19,3.87,9.71c1.8-3.52,4.61-6.49,8.29-8.13c-1.36,2.87-2.58,5.83-4.19,8.57c-0.95,1.61-2.1,3.07-3.33,4.47
				c1.68,0.02,3.33,0.07,4.98,0.12c1.73-1.91,3.75-3.51,6.19-4.44c2.37-0.68,5.34-1.72,7.77-1.61c-2.42,2.25-5.08,4.42-7.87,6.33
				c28.04,1.69,49.75,8.38,64.17,16.1c3.69-4.61,8.5-8,14.06-11.07c0.34-0.26,0.11,0.01,0.09,0.19c-0.8,2.34-2.07,4.49-3.47,6.53
				c-1.76,2.62-4,4.83-6.47,6.75c0.86,0.53,1.67,1.05,2.46,1.58c4.04-1.59,8.41-2.32,12.83-2.02c-2.59,2.11-5.44,3.86-8.45,5.22
				C672.19,454.28,675.42,459.2,675.42,463.08z"/>
		</g>
	</g>
	<g>
		<g>
			<path style="fill:#0E0F0D;" d="M629.35,468.1c0-0.01-0.01-0.01-0.01-0.02C629.35,468.12,629.36,468.13,629.35,468.1z"/>
		</g>
	</g>
	<g>
		<g>
			<g>
				<path style="fill:#F04A44;" d="M503.8,178.49c7.08-8.16,23.5-6.6,33.13-4.7c8.26,1.63,16.41,3.79,24.43,6.58
					c4.6,0.59,9.23,0.87,12.91,0.71c1.02,4.27,1.37,8.82,0.09,13.02c-1.27,4.2-4.37,8.01-7.99,9.22
					C543.14,204.6,519.6,195.34,503.8,178.49z"/>
			</g>
			<g>
				<path d="M532.49,194.28c-3.45-2.99-6.13-6.85-7.72-11.13c-0.36-0.98-0.67-2.02-0.56-3.06c0.11-1.04,0.75-2.09,1.75-2.4
					c1.18-0.37,2.46,0.39,3.16,1.41c0.92,1.33,1.12,3.03,1.84,4.48c0.72,1.45,2.45,2.7,3.89,1.97c0.65-0.33,1.07-0.98,1.57-1.51
					c0.5-0.53,1.26-0.97,1.94-0.71c0.66,0.25,0.93,1.05,0.92,1.75c-0.01,0.7-0.23,1.39-0.21,2.1c0.06,1.73,1.55,3.08,3.13,3.78
					c1.58,0.7,3.33,0.95,4.89,1.69c1.56,0.74,3,2.18,2.93,3.91c-0.06,1.44-1.19,2.68-2.52,3.22c-1.33,0.54-2.84,0.49-4.26,0.27
					C538.97,199.39,535.37,196.78,532.49,194.28z"/>
			</g>
			<g>
				<path style="fill:#FFAF2E;" d="M588.14,174.12c4.08,3.55,4.67,9.95,2.68,14.98s-6.05,8.94-10.23,12.37
					c-1.21,0.99-2.54,1.99-4.1,2.07c-1.56,0.08-3.26-1.26-2.89-2.54c-1.73,0.23-3.56-0.78-4.29-2.37c-0.73-1.59-0.29-3.64,0.67-4.43
					c-2.54-3.11-2.42-7.8-0.55-11.36c1.87-3.55,5.2-6.12,8.69-8.11c1.49-0.85,3.06-1.62,4.75-1.89
					C584.56,172.57,586.53,172.72,588.14,174.12z"/>
			</g>
			<g>
				<path style="fill:#291A1A;" d="M590.35,177.95c0.22,4.28-1.99,8.48-5.27,11.23c-3.28,2.75-7.54,4.17-11.81,4.6
					c0.17,1.17,1,2.22,2.1,2.65c1.1,0.43,2.43,0.21,3.34-0.54c-1.12,1.12-1.99,2.57-3.42,3.26c-1.55,0.75-3.57,0.35-4.72-0.94
					c-1.14-1.28-1.31-3.34-0.39-4.79c-1.2-1.12-1.13-3.15-0.28-4.55c0.86-1.41,2.3-2.33,3.72-3.17
					C578.92,182.56,584.52,179.97,590.35,177.95z"/>
			</g>
		</g>
		<g>
			<g>
				<path style="fill:#F04A44;" d="M547.65,292.57c-4.13,6.26-6.89,13.43-8.03,20.85c-0.38,2.48-0.58,5.02-0.08,7.47
					c0.5,2.45,1.76,4.83,2.97,5.73c1.12,2.79-2.93,5.29-2.71,8.29c0.07,0.94,0.57,1.79,0.89,2.68c0.9,2.45,0.5,5.16,0.09,7.74
					c-2.04,12.8-4.08,25.61-6.2,36.4c-10.52,8.72-21.03,17.45-31.55,26.17c-3.34,2.77-6.74,5.61-9,9.3
					c-2.27,3.7-3.24,8.47-1.42,12.41c1.82,3.93,7,6.33,11.56,4.03c16.59-9.76,33.18-19.53,48.93-28.54
					c18.18-22.54,30.91-49.44,36.48-77.77c0.62-1.38,1.24-2.76,1.98-4.46c0.32,2.88,2.08,5.57,4.94,6.38
					c1.41,9.11,2.51,18.27,4.83,26.83c3.8,23.6,8.4,47.08,13.56,69.76c1.23,3.85,5.86,6.21,11.56,4c1.39-1.61,2.79-3.21,5-5.29
					c2.49-35.15,4.97-70.3,7.5-105.86c-1.87-19.42-8.47-38.37-19.36-54.44c-0.02-1.02-0.05-2.05-0.38-3.01
					c-0.32-0.96-1-1.86-1.95-2.2c-0.85-0.3-1.82-0.14-2.66-0.48c-1.06-0.43-1.64-1.54-2.35-2.43c-0.71-0.89-1.94-1.66-3.89-1.87
					C584.97,261.26,560.79,272.67,547.65,292.57z"/>
			</g>
			<g>
				<path style="fill:#FFAF2E;" d="M554.86,298.36c-4.87,7.27-5.52,17.16-1.66,25c0.77,1.57,1.7,3.51,0.68,4.93
					c-0.97,1.35-3.16,1.32-4.11,2.68c-0.85,1.22-0.26,2.94,0.68,4.1s2.19,2.08,2.85,3.41c1.08,2.16,0.34,4.74-0.32,7.06
					c-3.2,11.25-4.12,23.15-2.68,34.76c-3.28,0.62-7.25,1.89-7.82,5.19c-0.23,1.35,0.21,2.71,0.31,4.07c0.31,4-2.41,7.79-5.92,9.74
					c-3.51,1.95-7.66,2.36-11.68,2.31c5.97-8.27,11.93-16.55,17.9-24.82c0.92-1.28,1.89-2.83,1.39-4.32
					c-0.47-1.41-2.1-2.2-2.53-3.62c-0.58-1.91,1.22-3.61,2.4-5.22c2.56-3.5,2.49-8.2,2.32-12.53c-0.33-8.44-0.66-16.88-0.98-25.32
					c-0.19-4.93-0.38-9.86-0.57-14.79c-0.13-3.28-0.21-6.73,1.33-9.62C547.99,298.48,551.8,296.51,554.86,298.36z"/>
			</g>
			<g>
				<path style="fill:#FFAF2E;" d="M607.39,260.03c2.21,2.9,4.42,5.8,6.64,8.7c1.39,1.82,2.77,3.63,4.1,5.49
					c11.15,15.59,18.17,34.11,20.15,53.18c2.72-22.64-4.31-46.29-19.23-64.18c0.04-1.13,0.08-2.27,0.12-3.4
					c-1.1-1.64-4.22-0.5-5.29-2.16c-0.36-0.57-0.34-1.29-0.5-1.95C612.92,253.79,610.65,252.54,607.39,260.03z"/>
			</g>
			<g>
				<path style="fill:#28738F;" d="M497.48,419.44c-13.69,4.41-24.31,17.14-26.2,31.4c5.66,0.71,11.39,0.74,17.1,0.77
					c2.42,0.01,5.03-0.04,6.94-1.52s2.35-4.96-0.33-6.8c3-1.74,6.07-3.54,8.29-6.2s3.47-6.41,2.28-9.67
					C504.4,424.22,501.26,422.24,497.48,419.44z"/>
			</g>
			<g>
				<path style="fill:#28738F;" d="M609.96,429.59c-0.24,7.46-2.05,14.88-4.46,20.79c7.92,1.23,15.98,1.53,23.97,0.9
					c2.41-0.19,5.25-0.77,5.64-2.45c0.6-4.09-0.87-8.43-3.96-11.73c-0.24-3.47-0.48-7-1.7-10.26c-1.22-3.26-3.56-6.27-6.83-7.45
					c-2.86-1.03-6.22-0.49-8.61,1.38C611.62,422.64,610.08,425.77,609.96,429.59z"/>
			</g>
			<g>
				<path d="M605.49,450.42c4.67-0.12,9.3-1.52,13.25-4.01c2.61-1.64,5.09-3.81,8.15-4.18c4.03-0.48,8.11,2.94,8.47,7.14
					c-1.87,2.21-4.95,2.92-7.84,3.19C619.9,453.28,612.26,451.75,605.49,450.42z"/>
			</g>
			<g>
				<path d="M609.19,440.27c2.05-3.71,5.63-6.54,9.71-7.68c4.08-1.15,8.61-0.59,12.29,1.5c-0.19-2.13-0.39-4.28-1.05-6.32
					c-0.66-2.04-1.82-3.98-3.6-5.17c-0.98-0.66-2.11-1.07-3.28-1.24c-4.24-0.63-8.47,2.02-10.8,5.63
					C610.14,430.59,609.4,434.98,609.19,440.27z"/>
			</g>
			<g>
				<path d="M488.43,424.47c-1.29,2.88-1.71,6.21-0.81,9.23c0.9,3.02,3.23,5.67,6.24,6.62c3.01,0.95,6.62-0.02,8.49-2.56
					c0.7-0.95,1.16-2.13,1.02-3.3c-0.18-1.48-1.24-2.68-2.33-3.69C497.7,427.68,493.63,425.38,488.43,424.47z"/>
			</g>
			<g>
				<path d="M471.22,450.66c0.77-1.48,2.48-2.28,4.14-2.44c1.66-0.17,3.33,0.18,4.98,0.42c4.3,0.62,8.7,0.49,12.95-0.39
					c0.48-0.1,1-0.21,1.46-0.02c1.09,0.43,0.96,2.18,0.03,2.89s-2.21,0.67-3.38,0.6C484.17,451.3,476.95,450.89,471.22,450.66z"/>
			</g>
			<g>
				<path d="M543.43,389.58c-2.47-1.83-4.93-3.65-7.4-5.48c-0.42-0.31-0.85-0.64-1.03-1.13c-0.22-0.61,0.04-1.32,0.52-1.76
					c0.48-0.44,1.12-0.65,1.76-0.75c2.21-0.34,4.57,0.56,5.98,2.29C544.68,384.49,545.09,386.98,543.43,389.58z"/>
			</g>
			<g>
				<path d="M544.61,378.93c3.85,1.67,8.12,2.36,12.29,1.96c0.69-0.06,1.55-0.31,1.65-1c0.07-0.45-0.26-0.88-0.67-1.09
					c-0.41-0.2-0.88-0.22-1.34-0.24C552.24,378.4,547.92,378.24,544.61,378.93z"/>
			</g>
			<g>
				<path d="M538.82,377.08c6.38-0.66,12.64-2.48,18.38-5.32c-3.3-1.62-7.26-1.41-10.74-0.22
					C542.98,372.73,539.89,374.79,538.82,377.08z"/>
			</g>
			<g>
				<path d="M546.93,328.5c5.03,1.99,10.73,2.23,15.91,0.69C558.29,327.01,553.13,326.15,546.93,328.5z"/>
			</g>
			<g>
				<path d="M591.66,322.92c1.01-7.71,1.48-15.49,1.39-23.26c-0.01-1.05-0.44-2.49-1.49-2.34c-0.48,0.07-0.83,0.49-1.11,0.89
					c-1.31,1.85-2.33,3.91-3.01,6.07c-0.93,2.94-1.52,6.46-4.22,7.95c-1.27,0.7-2.78,0.78-4.15,1.26c-1.37,0.48-2.73,1.62-2.62,3.06
					c0.14,1.79,2.32,2.61,4.12,2.71c1.8,0.1,3.87,0.02,5.06,1.36c0.67,0.76,0.88,1.8,1.17,2.76c0.29,0.96,0.76,1.99,1.67,2.41
					C589.38,326.21,591.29,325.7,591.66,322.92z"/>
			</g>
			<g>
				<path d="M596.74,329.22c7.63-7.43,19.77-9.81,29.64-5.79c1.74,0.71,3.44,1.62,4.73,2.98c1.29,1.37,2.13,3.24,1.92,5.11
					c-0.3,2.64-2.52,4.6-4.67,6.16c-3.82,2.79-7.99,5.26-12.61,6.32s-9.75,0.56-13.62-2.18
					C598.28,339.1,596.05,333.89,596.74,329.22z"/>
			</g>
			<g>
				<path d="M617.75,265.88c-2.52,2.61-5.04,5.22-7.19,8.14c-2.15,2.92-3.92,6.16-4.77,9.68c-0.14,0.59-0.26,1.21-0.11,1.8
					c0.15,0.59,0.62,1.14,1.23,1.18c0.89,0.06,1.48-0.88,1.86-1.7C611.74,278.54,614.72,272.09,617.75,265.88z"/>
			</g>
			<g>
				<path d="M603.45,306.52c3-2.54,6.92-3.76,10.8-4.37c3.88-0.61,7.84-0.69,11.73-1.29c1.27-0.2,2.6-0.48,3.58-1.3
					c0.99-0.83,1.49-2.37,0.77-3.44c-0.72-1.08-2.24-1.2-3.54-1.14C618.33,295.37,610.06,299.14,603.45,306.52z"/>
			</g>
			<g>
				<path d="M608.04,254.93c0.65,2.44-0.18,5.09-1.62,7.17c-1.44,2.08-3.44,3.69-5.41,5.27c-13.73,11-27.46,22-41.19,33.01
					c-1.95,1.56-3.96,3.16-6.36,3.86c-2.39,0.7-5.29,0.3-6.87-1.64c-1.47-1.8-1.43-4.48-0.47-6.59c0.96-2.11,2.68-3.77,4.43-5.3
					C566.78,276.51,587.86,269.29,608.04,254.93z"/>
			</g>
			<g>
				<path d="M502.93,417.46c-0.92-1.87-1.86-3.75-2.34-5.78c-0.49-2.03-0.49-4.23,0.39-6.12c0.5-1.08,1.28-2,2.1-2.85
					c0.74-0.76,1.68-1.51,2.73-1.36c0.83,0.12,1.48,0.78,1.97,1.46c1.05,1.44,1.74,3.1,2.42,4.75c0.56,1.35,1.12,2.9,0.48,4.21
					c-0.44,0.92-1.38,1.48-2.27,1.97C506.48,414.76,504.46,415.64,502.93,417.46z"/>
			</g>
			<g>
				<path d="M525.19,406.98c-1.4-3.05-2.79-6.1-4.19-9.15c-0.95-2.08-1.93-4.39-1.33-6.6c0.5-1.85,2.01-3.23,3.44-4.5
					c1.77-1.57,4.13-3.25,6.29-2.29c1.4,0.62,2.14,2.13,2.76,3.52c1.09,2.43,2.17,4.86,3.26,7.29c0.8,1.79,1.59,3.89,0.67,5.62
					c-0.76,1.43-2.42,2.07-3.95,2.59C529.98,404.19,527.82,404.94,525.19,406.98z"/>
			</g>
			<g>
				<path d="M500.01,412.81c10.27-6.96,21.37-12.71,32.99-17.07c2.32-0.87,4.75-1.7,7.22-1.52c4.13,0.3,7.5,3.29,10.52,6.13
					c1.48,1.39,3.1,3.44,2.15,5.24c-0.34,0.63-0.94,1.08-1.53,1.48C536.47,417.4,516.82,420.51,500.01,412.81z"/>
			</g>
			<g>
				<path style="fill:#9C5C43;" d="M487.8,423.92c-2.4-2.87-1.25-7.51,1.46-10.09c2.71-2.58,6.5-3.62,10.12-4.58
					c14.9-3.92,29.79-7.85,44.69-11.77c4.32,5.09,11.05,8.04,17.73,7.78c2.48-0.1,5.4-0.46,7.03,1.41c2.02,2.31,0.33,5.91-1.65,8.26
					c-7.07,8.38-17.26,13.65-27.82,16.6c-10.56,2.95-21.57,3.78-32.51,4.59c-3.87,0.29-7.97,0.53-11.41-1.26
					C490.93,432.52,490.03,426.58,487.8,423.92z"/>
			</g>
			<g>
				<path style="fill:#C78F79;" d="M492.81,418.18c7.54-3.65,15.8-5.79,24.16-6.27c1.36-0.08,2.87-0.06,3.87,0.86
					c0.89,0.82,1.12,2.13,1.29,3.33c0.42,2.93,0.83,5.86,1.25,8.79c0.1,0.68,0.18,1.42-0.21,1.99c-0.7,1.01-2.38,0.63-3.17-0.32
					c-0.79-0.94-1.06-2.21-1.68-3.28c-1.59-2.73-5.19-3.61-8.32-3.26c-3.13,0.35-6.09,1.64-9.19,2.18
					C497.71,422.74,494.12,422.34,492.81,418.18z"/>
			</g>
			<g>
				<path style="fill:#C78F79;" d="M536.67,414.37c1.41,3.7,3.27,7.24,5.51,10.51c0.36,0.53,0.75,1.07,1.31,1.38
					s1.33,0.34,1.79-0.12c0.53-0.53,0.41-1.42,0.19-2.14C544.22,419.82,541.2,416.2,536.67,414.37z"/>
			</g>
			<g>
				<path style="fill:#C78F79;" d="M543.23,407.17c2.59,4.76,8.04,7.82,13.45,7.55c0.93-0.05,1.88-0.19,2.69-0.64
					c0.81-0.45,1.47-1.27,1.52-2.2c0.07-1.19-0.86-2.26-1.96-2.73c-1.1-0.47-2.33-0.48-3.52-0.47c-1.19,0.01-2.42,0.01-3.53-0.44
					c-1.08-0.44-1.93-1.28-2.8-2.07c-0.87-0.79-1.82-1.55-2.96-1.78C544.98,404.16,543.62,404.64,543.23,407.17z"/>
			</g>
			<g>
				<path d="M538.3,405.13c1.51,3.42,3.7,5.98,5.95,8c2.25,2.02,4.62,3.58,6.88,5.57c0.96,0.85,2.07,2.19,2.04,3.81
					c-0.03,1.23-0.77,1.98-1.55,1.96c-0.78-0.02-1.55-0.63-2.28-1.27C544.78,419.18,540.72,413.2,538.3,405.13z"/>
			</g>
			<g>
				<path d="M531.75,410.88c2.35,5.41,5.02,10.5,7.96,15.17c0.55,0.88,1.14,1.8,1.4,2.92c0.26,1.13,0.06,2.51-0.61,2.74
					c-0.65,0.22-1.36-0.69-1.89-1.55C535.11,424.53,532.56,417.44,531.75,410.88z"/>
			</g>
			<g>
				<path d="M525.49,409.5c1.69,7.03,3.37,14.05,5.06,21.08c0.19,0.81,0.37,1.8,0.02,2.31c-0.24,0.35-0.65,0.29-0.98,0
					c-0.33-0.29-0.59-0.77-0.82-1.26c-1.43-3.05-1.98-6.75-2.33-10.29S525.89,414.21,525.49,409.5z"/>
			</g>
			<g>
				<path style="fill:#9C5C43;" d="M603.51,435.95c-1.66,0.99-1.33,3.82,0.33,4.82c1.66,1,3.92,0.4,5.34-0.92
					c2.1-1.96,2.66-5.03,4.13-7.5c2.96-4.96,10.09-6.86,15.12-4.02c2.82,1.59,4.8,4.3,7.17,6.51s5.63,4.01,7.6,3.37
					c1.64-2.27,1.76-5.33,1.14-8.06c-0.62-2.73-1.88-5.26-2.83-7.89c-2.97-8.25-2.77-17.26-2.53-26.02
					c0.61-22.32,1.23-44.65,1.1-66.74c-6.29-5.12-14.73-7.5-22.77-6.44c-8.04,1.07-15.56,5.57-19.96,12.23
					c-3.09,1.52-3.11,5.85-2.67,9.26c0.98,7.74,1.96,15.48,2.95,23.22C600.39,389.47,603.14,411.16,603.51,435.95z"/>
			</g>
			<g>
				<path style="fill:#C78F79;" d="M616.76,377.7c0.09-1.73,2.09-2.93,3.79-2.58s2.97,1.86,3.53,3.51c0.56,1.64,0.52,3.42,0.47,5.16
					c-0.27,9.33-0.85,18.66-1.73,27.96c-0.04,0.42-0.09,0.86-0.32,1.22c-0.56,0.82-1.9,0.7-2.61,0c-0.71-0.7-0.95-1.73-1.15-2.7
					C616.55,399.43,616.23,388.44,616.76,377.7z"/>
			</g>
			<g>
				<path style="fill:#C78F79;" d="M603.61,389.81c-0.51-2.17-0.18-4.53,0.91-6.47c2.82,1.77,3.49,5.52,3.88,8.83
					c0.88,7.34,1.75,14.68,2.63,22.03c0.11,0.92-0.07,2.22-1,2.26c-0.8,0.03-1.18-0.95-1.33-1.74
					C607.05,406.01,605.39,397.3,603.61,389.81z"/>
			</g>
			<g>
				<path style="fill:#C78F79;" d="M632.34,407.26c-0.01-4.48,0.43-8.95,1.3-13.34c0.18-0.93,0.67-2.08,1.61-2.01
					c0.99,0.07,1.26,1.39,1.25,2.38c-0.06,7.44-0.13,14.88-0.19,22.33c-0.01,0.68-0.08,1.49-0.66,1.85
					c-0.48,0.3-1.14,0.13-1.57-0.25c-0.42-0.38-0.66-0.92-0.86-1.45C632.1,413.88,632.35,410.88,632.34,407.26z"/>
			</g>
			<g>
				<path style="fill:#C78F79;" d="M602.13,340.32c3.06-3.16,7.31-4.93,11.63-5.76c4.31-0.83,8.74-0.81,13.13-0.87
					c1.07-0.01,2.18-0.04,3.17-0.46c0.99-0.42,1.85-1.33,1.88-2.4c0.06-1.87-2.14-2.89-3.98-3.25c-7.19-1.4-14.86-0.18-21.26,3.4
					c-1.65,0.92-3.27,2.05-4.18,3.71C601.62,336.35,601.64,338.64,602.13,340.32z"/>
			</g>
			<g>
				<path style="fill:#C78F79;" d="M604.25,352.03c7.95-0.55,15.85-1.88,23.55-3.94c-3.37-2.89-8.27-3.43-12.61-2.48
					C610.85,346.55,606.93,348.8,604.25,352.03z"/>
			</g>
			<g>
				<path style="fill:#C78F79;" d="M607.71,363.86c5.91-0.41,11.81-0.81,17.72-1.22c0.56-0.04,1.23-0.15,1.44-0.67
					c0.25-0.62-0.36-1.23-0.94-1.57c-2.66-1.57-5.93-1.9-8.99-1.42C613.89,359.46,611,360.69,607.71,363.86z"/>
			</g>
			<g>
				<path style="fill:#C78F79;" d="M629.63,350.52c0.84-0.39,1.69-0.78,2.6-0.95c0.91-0.17,1.9-0.09,2.68,0.4
					c0.68,0.43,1.17,1.27,0.96,2.05c-0.25,0.92-1.33,1.36-2.28,1.38C631.91,353.44,630.25,352.55,629.63,350.52z"/>
			</g>
			<g>
				<path style="fill:#C78F79;" d="M636.35,382.88c-0.06-0.94,0.21-1.86,0.4-2.78c0.2-0.92,0.32-1.9-0.02-2.78
					c-0.34-0.88-1.29-1.58-2.2-1.35c-0.88,0.22-1.37,1.16-1.65,2.03c-1,3.02-0.94,6.38,0.16,9.36c0.18,0.49,0.49,1.05,1.01,1.07
					c0.56,0.03,0.92-0.57,1.12-1.09C635.7,385.91,636.46,384.44,636.35,382.88z"/>
			</g>
			<g>
				<path style="fill:#C78F79;" d="M610.06,421.56c1.2,3.53,0.67,7.61-1.39,10.72c-0.34,0.51-0.82,1.04-1.43,1.01
					c-0.84-0.05-1.2-1.08-1.33-1.91c-0.3-1.87-0.52-3.8-0.13-5.66C606.18,423.87,607.28,422.07,610.06,421.56z"/>
			</g>
			<g>
				<path style="fill:#C78F79;" d="M499.61,430.52c0.6,1.59,2.32,2.53,4.01,2.7s3.37-0.29,5.01-0.75c0.66-0.19,1.47-0.54,1.48-1.23
					c0.01-0.7-0.82-1.08-1.5-1.24C505.81,429.38,502.88,429.35,499.61,430.52z"/>
			</g>
			<g>
				<path d="M600.45,350.3c3.13-4.75,7.83-8.44,13.18-10.37c5.35-1.92,11.33-2.07,16.76-0.4c1.41,0.43,3.07,1.5,2.7,2.93
					c-0.39,1.49-2.46,1.52-3.99,1.3C619.36,342.36,609.17,344.34,600.45,350.3z"/>
			</g>
			<g>
				<path d="M601.33,361.13c3.91-4.75,9.76-7.85,15.88-8.43c6.12-0.58,12.45,1.37,16.81,5.85
					C623.62,354.36,611.25,355.4,601.33,361.13z"/>
			</g>
			<g>
				<path d="M604.7,370.47c8.66-7.03,21.78-7.96,31.35-2.22C624.49,366.36,612.44,367.62,604.7,370.47z"/>
			</g>
			<g>
				<path d="M610.33,375.48c1.55,16.2,3.11,32.4,4.66,48.6C616.29,407.05,614.54,389.79,610.33,375.48z"/>
			</g>
			<g>
				<path d="M629.8,375.41c-1.27,16.22-2.55,32.45-3.82,48.67C630.21,407.53,631.47,390.23,629.8,375.41z"/>
			</g>
		</g>
		<g>
			<g>
				<path style="fill:#28738F;" d="M479.7,231.4c1.16-18.46,8.79-36.45,21.27-50.11c3.94-4.31,9.27-8.49,15.02-7.44
					c5.22,0.96,8.62,5.81,12.14,9.79c4.87,5.49,10.86,9.83,16.81,14.12c8.81,6.36,17.62,12.73,26.32,19.5
					c5.75,1.29,10.64,5.88,11.52,10.36c4.76,1.93,8.37,6.44,7.66,11.15c4.12-0.84,8.64,0.68,11.41,3.84
					c1.55,1.77,2.54,3.95,3.95,5.83c1.41,1.88,3.48,3.53,5.18,3.45c0.8,2,0.15,4.34-1.13,6.08c-1.28,1.73-3.09,2.98-4.87,4.19
					c-6.1,4.15-12.2,8.3-18.3,12.44c-10.93,7.43-21.9,14.89-33.68,20.89c-2.28,1.16-4.65,2.29-7.19,2.59
					c-2.54,0.31-5.33-0.33-7.05-2.23c-1.72-1.9-1.93-5.19,0.49-7.44c-3.71-0.64-6.67-3.46-8.95-6.46c-2.28-3-4.17-6.35-7.86-9.31
					c-9.19-4.88-18.47-9.81-26.32-16.64C488.25,249.18,479.14,240.44,479.7,231.4z"/>
			</g>
			<g>
				<path style="fill:#FFAF2E;" d="M514.02,172.73c-14.76,14.76-7.41,22.35-21.27,44.28c-3.09,4.88-7.48,15.4-12.38,18.47
					c-2.31-8.55,1.67-18.94,5.07-27.11c3.05-7.31,6.14-14.66,10.56-21.23C500.42,180.57,506.3,174.77,514.02,172.73z"/>
			</g>
			<g>
				<path style="fill:#FFAF2E;" d="M524.44,202.56c0.83-3.39,4.09-6,7.58-6.15c3.49-0.15,6.93,2.1,8.28,5.32
					c1.35,3.22,0.58,7.19-1.8,9.74c-1.27,1.36-3.02,2.35-4.88,2.42c-2.09,0.07-4.07-1.01-5.63-2.42
					C525.28,209.02,523.77,205.31,524.44,202.56z"/>
			</g>
			<g>
				<path d="M561.06,209.51c-0.55,9.27-0.37,24.53-6.72,31.3c-6.35,6.77-23.08,14.23-32.12,17.14c5.59-0.51,11.18-1.03,16.77-1.54
					c0.56-0.05,1.28,0.01,1.44,0.54c0.13,0.45-0.28,0.87-0.65,1.17c-2.9,2.35-5.8,4.7-8.71,7.05c8.46-2.43,16.92-4.87,25.38-7.3
					c0.57-0.16,1.26-0.3,1.69,0.1c0.66,0.61,0.05,1.69-0.57,2.33c-8.01,8.23-19.82,12.6-31.26,11.56
					c-11.44-1.04-24.65-8.04-31.05-17.57c-0.73-1.08,0.96-1.89,1.57-3.05c0.35-0.67,1.06-1.08,1.72-1.44
					C517.49,239.48,540.31,219.96,561.06,209.51z"/>
			</g>
			<g>
				<path d="M522.22,224.31c-5.7-2.46-11.7-4.19-17.83-5.15c-0.83-0.13-1.71-0.23-2.46,0.14c-0.75,0.37-1.2,1.43-0.67,2.08
					c0.82,0.99,2.96,0.13,3.44,1.33c0.25,0.63-0.3,1.34-0.95,1.55c-0.65,0.21-1.35,0.07-2.02,0c-2.97-0.31-6.05,0.79-8.15,2.9
					c-0.57,0.57-1.09,1.42-0.7,2.12c0.38,0.69,1.34,0.71,2.13,0.64C504.09,229.07,513.09,227.31,522.22,224.31z"/>
			</g>
			<g>
				<path d="M526.06,210.01c-3.23-7.53-5.03-15.67-5.28-23.86c0.66-0.73,1.96-0.43,2.58,0.33c0.62,0.76,0.76,1.8,0.86,2.78
					C524.96,195.99,525.58,202.73,526.06,210.01z"/>
			</g>
			<g>
				<path d="M580.06,229.11c-2.25,10.37-5.46,20.53-9.58,30.3c-0.29,0.69-0.66,1.46-1.38,1.7c-0.84,0.28-1.77-0.36-2.11-1.18
					c-0.34-0.82-0.25-1.74-0.13-2.62C568.26,246.93,572.45,236.95,580.06,229.11z"/>
			</g>
			<g>
				<path d="M570.3,256.81c5.02-1.33,9.79-3.61,13.98-6.67c0.69-0.5,1.43-1.18,1.33-2.03c-0.08-0.72-0.81-1.24-1.53-1.33
					c-0.72-0.09-1.44,0.16-2.12,0.42C576.62,249.24,571.72,252.42,570.3,256.81z"/>
			</g>
			<g>
				<path d="M539.86,288.28c11.41-5.6,22.82-11.19,34.23-16.79c0.66-0.33,1.45-1,1.08-1.64c-0.24-0.43-0.84-0.46-1.33-0.44
					C559.63,270.14,545.93,277.79,539.86,288.28z"/>
			</g>
		</g>
		<g>
			<g>
				<path d="M451.08,196.94c2.47,5.73,6.53,10.77,11.62,14.41c1.71,1.22,3.69,2.33,5.78,2.14c2.09-0.19,4.09-2.27,3.49-4.6
					c-5.06-4.04-9.31-9.08-12.14-14.9c5.54-7.91,13.32-14.26,23.06-18.45c4.65,4.05,8.54,10.42,10.17,16.4
					c1.35-0.9,1.85-3.64,2.13-5.23c0.27-1.59,0.11-3.22-0.08-4.83c-1.91-5.75-6.33-10.64-12.13-13.37
					c-7.16,2.26-14.09,5.51-19.9,10.25C457.27,183.5,452.62,189.82,451.08,196.94z"/>
			</g>
			<g>
				<path style="fill:#9C5C43;" d="M474.27,208.22c4.53,1.29,8,5.63,8.4,10.29c5.19-1.43,10.23-3.41,15.01-5.89
					c1.78-0.93,3.61-2,4.65-3.71c1.46-2.41,1.02-5.6-0.38-8.05c-1.4-2.45-3.6-4.31-5.67-5.65c-2.85-1.06-4.55-3.91-6.29-6.38
					c-4.91-0.78-10.17,1.16-13.39,4.94C473.37,197.55,472.29,203.05,474.27,208.22z"/>
			</g>
			<g>
				<path d="M480.02,212.14c1.65,1.65,3.63,2.22,5.85,2.6c2.47,0.42,6.78-0.16,8.52-1.59c2.63-2.15,3.16-7.45,2.71-10.82
					c-0.45-3.37-3.12-6.52-4.02-9.8C488.17,198.54,483.61,204.83,480.02,212.14z"/>
			</g>
			<g>
				<path style="fill:#9C5C43;" d="M452.77,189.21c3.19,5.09,6.66,10.05,10.98,14.21s9.57,7.52,15.41,8.89
					c3.68,0.87,7.83,0.85,10.83-1.47c1.95-1.33,3.24-3.47,3.87-5.75c0.63-2.27,0.63-4.68,0.39-7.02
					c-0.67-6.51-3.21-12.75-6.75-18.25c-1.35-2.1-2.86-4.11-4.73-5.77c-5.73-5.07-14.75-5.99-21.38-2.18
					C454.75,175.69,449.82,184.51,452.77,189.21z"/>
			</g>
			<g>
				<circle cx="470.24" cy="196.52" r="1.9"/>
			</g>
			<g>
				<circle cx="481.1" cy="190.17" r="1.9"/>
			</g>
			<g>
				<path d="M475.61,189.91c0.45,0.41,1.2,0.31,1.69-0.06c0.49-0.37,0.78-0.93,1.05-1.48c0.78-1.55,1.56-3.1,2.33-4.65
					c0.33-0.66,0.65-1.51,0.18-2.08c-0.34-0.41-0.98-0.47-1.47-0.27c-0.49,0.2-0.87,0.62-1.2,1.03
					C476.66,184.33,475.66,186.66,475.61,189.91z"/>
			</g>
			<g>
				<path d="M461.71,195.34c3.13-1.05,6.39-1.68,9.69-1.88c0.17,0.8-0.45,1.55-1.12,2.01c-1.12,0.78-2.53,1.14-3.89,1.02
					C465.03,196.36,463.72,195.74,461.71,195.34z"/>
			</g>
			<g>
				<path d="M475.39,194.84c-0.47,0.62-0.55,1.47-0.39,2.23c0.16,0.76,0.55,1.45,0.96,2.11c1.01,1.62,2.19,3.13,3.58,4.33
					c0.93-0.47,1.8-1.06,2.54-1.76C480.53,198.83,478.25,196.31,475.39,194.84z"/>
			</g>
			<g>
				<path style="fill:#FFFFFF;" d="M480.77,206.16c0.79-0.77,1.58-1.53,2.38-2.3c1.12-1.09,2.38-2.24,3.94-2.36
					c0.32-0.03,0.66,0,0.94,0.15c0.29,0.15,0.52,0.44,0.52,0.76c0,0.3-0.18,0.56-0.35,0.8c-0.48,0.67-0.96,1.34-1.43,2.01
					c-0.51,0.72-1.07,1.47-1.9,1.77c-0.65,0.23-1.37,0.15-2.02-0.1C482.2,206.63,481.63,206.24,480.77,206.16z"/>
			</g>
			<g>
				<path style="fill:#FFAF2E;" d="M483.75,168.76c1.68,0.58,3.24,4.58,2.62,6.24c-0.63,1.66-2.07,2.86-3.45,3.97
					c-6.34,5.11-12.69,10.23-19.03,15.34c-2.53,2.04-5.2,4.15-8.38,4.82l0,0c-3.18,0.67-5.53-0.83-6.26-4.16
					c-5.18-6.73-8.78-13.38-5.7-21.3c4.34-11.18,17.5-17.17,24.32-16.86C474.59,157.12,479.67,162.02,483.75,168.76z"/>
			</g>
			<g>
				<path d="M452.75,194.38c8.72-7.62,18.17-14.41,28.17-20.24c-6.06-0.61-12.13,1.8-16.98,5.49S455.33,188.22,452.75,194.38z"/>
			</g>
			<g>
				<g>
					<path style="fill:#FFFFFF;" d="M474.25,216.3c-0.068,0-0.137-0.014-0.201-0.043c-6.58-2.894-12.646-6.996-17.541-11.863
						c-0.184-0.183-0.197-0.476-0.031-0.675c9.637-11.564,21.495-20.63,34.293-26.218c0.237-0.104,0.513-0.01,0.638,0.216
						c3.75,6.78,5.359,14.748,4.53,22.436c-0.011,0.097-0.049,0.189-0.11,0.264c-5.316,6.474-12.706,11.95-21.372,15.838
						C474.39,216.285,474.319,216.3,474.25,216.3z M457.54,204.007c4.699,4.59,10.463,8.47,16.708,11.245
						c8.387-3.796,15.541-9.1,20.711-15.354c0.755-7.288-0.736-14.825-4.208-21.295C478.385,184.085,466.918,192.856,457.54,204.007
						z M495.44,200.1h0.01H495.44z"/>
				</g>
				<g>
					<path style="fill:#FFFFFF;" d="M486.52,209.23c-0.03,0-0.061-0.003-0.092-0.008c-8.711-1.618-16.718-6.189-22.546-12.873
						c-0.182-0.208-0.16-0.524,0.048-0.706c0.21-0.181,0.524-0.16,0.706,0.048c5.681,6.514,13.484,10.97,21.974,12.547
						c0.272,0.051,0.451,0.312,0.4,0.583C486.967,209.062,486.756,209.23,486.52,209.23z"/>
				</g>
				<g>
					<path style="fill:#FFFFFF;" d="M490.82,205.92c-0.222,0-0.425-0.148-0.483-0.373c-2.02-7.691-5.574-15.149-10.28-21.571
						c-0.163-0.223-0.115-0.536,0.108-0.699c0.224-0.164,0.535-0.116,0.699,0.108c4.779,6.522,8.39,14.098,10.44,21.908
						c0.07,0.267-0.089,0.54-0.356,0.61C490.904,205.915,490.862,205.92,490.82,205.92z"/>
				</g>
				<g>
					<path style="fill:#FFFFFF;" d="M462.55,209.09c-0.157,0-0.314-0.075-0.41-0.214c-0.158-0.227-0.103-0.538,0.124-0.696
						c7.889-5.494,15.777-10.993,23.662-16.489l7.948-5.54c0.224-0.156,0.538-0.103,0.696,0.124
						c0.158,0.227,0.103,0.539-0.124,0.696l-7.948,5.54c-7.885,5.497-15.773,10.996-23.662,16.489
						C462.748,209.061,462.648,209.09,462.55,209.09z"/>
				</g>
			</g>
		</g>
		<g>
			<g>
				<path style="fill:#F04A44;" d="M485.42,230.11c14.5-2.71,28.87-6.23,43.52-9.19c12.77-22.76,20.33-25.07,32.42-46.63
					c5.15,0.49,9.3,5.84,8.89,11.21c-6.02,16.29-12.04,32.57-17.11,47.1c-10.04,7.15-20.62,13.53-31.63,19.07
					c-8.19,4.12-18.01,7.78-26.21,3.68c-6.89-3.44-12.79-9.06-14.77-17.7C479.74,234.21,481.93,230.76,485.42,230.11z"/>
			</g>
			<g>
				<path style="fill:#FFFFFF;" d="M506.89,249.08c-3.5,1.9-8.01,2.34-11.91,1.16c-1.57-4.3-2.98-9.6-3.8-15.61
					c3.52-0.64,7.13-0.95,10.8-1.41C504.53,238.78,506.25,244.62,506.89,249.08z"/>
			</g>
			<g>
				<path style="fill:#C89079;" d="M570.43,148.56c-2.58-3.91-4.03-8.45-3.29-13.09l0,0c3.36-21.04,20.54-92.97,20.91-97.06
					c1-11.03,32.73-2.93,29.7,7.39c-8.46,28.76-23.79,76.17-28.32,97.76c-1.29,2.61-5.72,7.71-8.19,7.14
					c-2.1,7.27-4.17,14.63-4.52,22.18c-0.12,2.65-0.08,5.47-2.06,7.52c-1.05,1.09-2.69,1.53-4.04,0.85
					c-1.83-0.93-2.15-3.23-2.07-5.19c0.3-7.25,3.69-23.38,2.02-27.23C570.54,148.74,570.49,148.65,570.43,148.56z"/>
			</g>
			<g>
				<path d="M568.77,128.54c-1.14,6.2,0.16,12.82,3.36,18c2.83,2.09,10.21,1.17,13.75,0.03c6.39-11.85,7.98-23.27,11.61-33.57
					c-0.33,4.38-0.31,9.61-6.79,28.01c-1.72,4.88-5.22,9.32-10.83,12.02c-0.3,2.92-1.1,5.79-2.79,9.02
					c-2.72,1.66-6.42,1.56-9.21,0.2c1.26-4.67,2.23-9.43,2.51-13.55C566.35,142.73,565.98,134.48,568.77,128.54z"/>
			</g>
			<g>
				<path d="M616.6,40.81c-2.42-7.02-14.62-11.51-25.56-10.33c-1.64,0.18-5.75,15.11-7,26.6c2.04-5.19,6.08-13.22,7.95-18.34
					c8.4-0.69,17.01,1.52,24.03,6.18c-5.43-6.33-14.06-9.12-22.5-9.39c0.39-0.78,0.78-1.55,1.17-2.33
					C603.16,32.93,610.75,35.78,616.6,40.81z"/>
			</g>
			<g>
				<path d="M538.53,231.81c-2.62-2.12-4.92-4.65-6.79-7.46c-0.21-0.32-0.42-0.65-0.46-1.03c-0.04-0.38,0.14-0.81,0.49-0.93
					c0.3-0.1,0.62,0.03,0.91,0.16C536.55,224.44,539.29,228.45,538.53,231.81z"/>
			</g>
			<g>
				<path d="M522.63,237.97c-0.23-3.86,0.48-7.77,2.05-11.31c0.47-1.05,1.25-2.21,2.39-2.17c1.01,0.04,1.74,1.09,1.79,2.09
					s-0.38,1.97-0.81,2.88C526.46,232.85,524.88,236.24,522.63,237.97z"/>
			</g>
			<g>
				<path d="M533.21,237.41c-2-2.25-2.92-5.41-2.46-8.39c1,0.44,1.67,1.42,2.01,2.45c0.34,1.03,0.39,2.14,0.48,3.22
					C533.33,235.77,533.45,236.89,533.21,237.41z"/>
			</g>
			<g>
				<path d="M528.72,221c3.4-2.3,7.18-4.03,11.14-5.1c0.33-0.09,0.66-0.17,1-0.13c0.34,0.04,0.67,0.25,0.76,0.58
					c0.16,0.55-0.4,1.03-0.9,1.31C537.22,219.7,533.25,220.9,528.72,221z"/>
			</g>
			<g>
				<path d="M554.34,185.48c1.96,0.05,3.89,0.88,5.28,2.27c1.39,1.39,2.21,3.33,2.24,5.29c0.03,1.4-0.25,3.02,0.74,4.01
					c0.94,0.93,2.61,0.69,3.57-0.22c0.96-0.91,1.34-2.27,1.51-3.58c0.2-1.56,0.14-3.19-0.49-4.63c-1.04-2.38-3.54-3.92-6.12-4.25
					C558.5,184.04,555.88,184.76,554.34,185.48z"/>
			</g>
			<g>
				<path style="fill:#FFAF2E;" d="M554.85,185.78c-1.14-4.67,1.3-9.39,3.86-13.41c-0.36-6.2,0.84-12.49,3.46-18.12
					c0.8-1.73,1.76-3.42,3.16-4.72c1.4-1.3,3.31-2.14,5.79-1.4c-0.51,2.6-1.03,5.21-1.54,7.81c-0.12,0.62-0.16,1.43,0.41,1.7
					c0.34,0.16,0.75,0.04,1.1-0.1c3.65-1.39,7.06-3.42,9.5-5.4c1.83-1.5,4.34-2.41,6.58-1.65c2.24,0.76,3.71,3.65,2.42,5.94
					c2,1.32,2.6,4.34,1.6,5.3c1.82,1.52,2.21,4.48,0.74,6.06c2.6,1.76,2.82,5.73,1.32,8.49s-4.23,4.6-6.01,6.17
					c-5.3,3.55-10.74,7.17-16.84,8.89c0.03,0.85-0.38,1.71-1.07,2.21c-0.69,0.51-1.63,0.65-2.07,0.69
					C565.09,189.09,559.5,185.6,554.85,185.78z"/>
			</g>
			<g>
				<path d="M589.48,156.7c-3.16,2.52-6.32,5.05-9.48,7.57c3.55-1.13,6.81-3.14,9.41-5.8C589.9,157.97,590.4,157.27,589.48,156.7z"
					/>
			</g>
			<g>
				<path d="M561.76,174c4.93,3.32,8.05,9.18,8.06,15.13c0.98-0.09,1.76-0.95,2.01-1.9s0.09-1.96-0.17-2.91
					C570.28,179.23,566.3,174.92,561.76,174z"/>
			</g>
			<g>
				<path style="fill:#FFFFFF;" d="M568.88,172.47c1.3-1.12,2.59-2.25,3.89-3.37c0.55-0.47,1.14-0.97,1.85-1.07
					c1.07-0.16,2.05,0.6,2.8,1.39c1.94,2.05,3.29,4.64,3.88,7.4c0.23,1.09,0.32,2.31-0.32,3.22c-0.5,0.72-1.35,1.09-2.15,1.44
					c-0.81,0.34-1.67,0.7-2.54,0.53c-1.1-0.2-1.87-1.17-2.52-2.08C572.05,177.52,570.47,175.01,568.88,172.47z"/>
			</g>
			<g>
				<path d="M592.07,167.68c-2.77,1.07-5.46,2.35-8.03,3.81C587.01,171.52,589.99,170.31,592.07,167.68z"/>
			</g>
			<g>
				<path d="M570.93,148.44c-1.86,1.07-3.38,2.72-4.29,4.66c-0.61,1.32-0.95,2.84-0.57,4.24c0.38,1.41,1.61,2.64,3.07,2.69
					C569.75,156.22,570.35,152.4,570.93,148.44z"/>
			</g>
		</g>
	</g>
	<g>
		<g>
			<path style="fill:#C89079;" d="M503.74,128.45c-1.07,6-9.29,10.53-16.9,9.45c-4.61-0.66-8.5-3.24-10.58-6.52
				c-1.36-2.12-1.96-4.54-1.5-6.9c1.16-5.98,8.76-10.7,16.48-10.38c4.98,0.2,9.27,3.75,11.33,7.86
				C503.64,124.1,504.11,126.4,503.74,128.45z"/>
		</g>
		<g>
			<path d="M503.74,128.45c-1.07,6-9.29,10.53-16.9,9.45c-4.61-0.66-8.5-3.24-10.58-6.52c2.42,0.67,4.94,1.12,7.5,1.25
				c3.54,0.19,7.17-0.27,10.3-1.57c3.63-1.5,6.48-4.11,7.85-7.14c0.29-0.64,0.51-1.29,0.66-1.96
				C503.64,124.1,504.11,126.4,503.74,128.45z"/>
		</g>
		<g>
			<path style="fill:#FFB387;" d="M483.86,115.29c-0.95,0.22-1.93,0.74-2.26,1.48c-0.33,0.73-0.18,1.59,0.38,2.23
				c-1.52,0.83-1.96,2.66-0.93,3.87c-1.56,1.23-1.53,3.47,0.07,4.68c-0.95,0.79-1.16,2.07-0.49,3.02c0.34,0.48,0.87,0.88,1.08,1.4
				c0.23,0.59,0.01,1.22,0.06,1.83c0.07,0.94,0.84,1.83,1.93,2.24c-0.3,0.3-0.34,0.75-0.1,1.08c0.24,0.33,1.02,0.48,1.56,0.46
				c-0.57-0.45-1-1.12-0.57-1.78c-0.82-0.14-1.54-0.63-1.83-1.24c-0.29-0.61-0.16-1.35,0.44-2.21c-0.93-0.44-1.61-1.19-1.81-2.03
				c-0.2-0.84,0.08-1.73,0.9-2.69c-0.79-0.58-1.27-1.41-1.3-2.26c-0.03-0.85,0.4-1.7,1.19-2.52c-0.55-0.58-0.79-1.33-0.66-2.04
				c0.12-0.71,0.61-1.38,1.56-1.93c-0.57-0.58-0.65-1.38-0.44-2.1C482.87,116.07,483.52,115.5,483.86,115.29z"/>
		</g>
		<g>
			<path style="fill:#FFB387;" d="M480.06,117.26c-0.95,0.19-1.93,0.63-2.26,1.25c-0.33,0.62-0.18,1.34,0.38,1.88
				c-1.52,0.7-1.96,2.24-0.93,3.26c-1.56,1.04-1.53,2.93,0.07,3.95c-0.95,0.66-1.16,1.74-0.49,2.55c0.34,0.4,0.87,0.74,1.08,1.18
				c0.23,0.49,0.01,1.03,0.06,1.55c0.07,0.79,0.84,1.54,1.93,1.89c-0.3,0.26-0.34,0.63-0.1,0.91c0.24,0.28,1.02,0.4,1.56,0.39
				c-0.57-0.38-1-0.95-0.57-1.5c-0.82-0.12-1.54-0.53-1.83-1.05c-0.29-0.52-0.16-1.14,0.44-1.86c-0.93-0.37-1.61-1.01-1.81-1.71
				c-0.2-0.71,0.08-1.46,0.9-2.27c-0.79-0.49-1.27-1.19-1.3-1.91c-0.03-0.72,0.4-1.43,1.19-2.12c-0.55-0.49-0.79-1.12-0.66-1.72
				s0.61-1.17,1.56-1.63c-0.57-0.49-0.65-1.17-0.44-1.77S479.71,117.44,480.06,117.26z"/>
		</g>
		<g>
			<path style="fill:#A6DFFE;" d="M447.12,130c-53.6,7.37-103.56,21.3-140.12,39.08C355.89,154.92,404.78,140.76,447.12,130z"/>
		</g>
		<g>
			<path style="fill:#A6DFFE;" d="M455.25,133.47c-26.66,2.95-51.98,12.72-71,27.41C409.06,150.8,433.87,140.71,455.25,133.47z"/>
		</g>
		<g>
			<path style="fill:#A6DFFE;" d="M452.62,126.42c-25.12-9.4-52.12-12.11-75.73-7.58C403.58,121.03,430.27,123.22,452.62,126.42z"/>
		</g>
	</g>
	<g>
		<g>
			<g>
				<path style="fill:#28738F;" d="M132.94,273.55c-6.76,9.23-9.36,20.98-9.39,32.43c-0.03,11.44,2.34,22.74,4.28,34.05
					c-2.24,2.03-2.57,5.83-0.8,8.25c-0.99,1.89-1.98,3.79-2.68,4.79c-19.06,20.01-32.44,45.38-39.05,73.76
					c-0.78,2.74-0.41,5.78,1,8.25c1.41,2.47,3.84,4.34,6.83,6.21c19.22-19.25,35.55-41.38,47.76-65.5c2.07-0.97,4.19-1.98,5.71-3.69
					c1.52-1.71,2.28-4.3,1.08-6.9c4.18-3.78,7.5-8.51,9.65-13.72c2.8-6.79,3.95-14.85,10.86-19.15
					c18.65,10.69,38.64,19.04,59.18,24.14c0.5,4.12,4.73,7.4,10.13,7.61c-6.56,21.92,6.99,46.39-0.26,68.13
					c3.32,2.79,7.64,4.38,11.98,4.4c4.34,0.02,8.67-1.52,10.95-4.25c2.09-23.83,3.34-47.74,3.32-70.83
					c-0.43-12.49-8.84-23.2-17.67-32.04C215.42,299.04,174.95,278.82,132.94,273.55z"/>
			</g>
			<g>
				<path d="M85.75,427.82c2.28-3.83,7.48-5.6,11.62-3.98c2.14,0.84,4.24,2.49,6.47,1.94c2.82-0.69,4.42-4.67,7.3-4.3
					c-4.97,7.49-11.04,14.26-17.94,20.02C90.73,437.11,88.24,432.73,85.75,427.82z"/>
			</g>
			<g>
				<path d="M176.11,315.7c-2.17,5.68-4.05,11.84-7.93,16.64c4.81,3.67,9.49,5.91,15.22,7.87c0.88,0.3,1.94,0.55,2.66-0.03
					c0.54-0.43,0.69-1.19,0.72-1.89c0.13-3.33-1.89-6.65-4.92-8.05c-1.01-0.47-2.31-0.99-2.36-2.11c-0.05-1.31,1.6-1.83,2.83-2.27
					c2.92-1.05,4.95-3.65,6.8-6.14c0.42-0.55,0.83-1.35,0.37-1.87c-0.21-0.24-0.55-0.33-0.87-0.4
					C184.87,316.61,181.08,315.77,176.11,315.7z"/>
			</g>
			<g>
				<path d="M132.47,380.03c-6.54,2.13-13.41,4.47-17.99,9.61c1.25,1.18,3.2,1.35,4.84,0.86c1.65-0.49,3.07-1.53,4.45-2.55
					C126.81,385.71,129.85,383.46,132.47,380.03z"/>
			</g>
			<g>
				<path d="M228.5,356.72c7.36,0.42,14.79-0.6,21.77-2.97c-3.54-2.12-7.97-2.36-12-1.48C234.24,353.15,230.52,355.08,228.5,356.72z
					"/>
			</g>
			<g>
				<path d="M236.93,364.69c4.92-1.7,9.64-4.01,13.99-6.87C245.62,357,239.96,359.36,236.93,364.69z"/>
			</g>
			<g>
				<path d="M249.9,367.66c2.39,2.25,6.26,2.73,9.12,1.15c0.51-0.28,1.09-0.63,1.63-0.42c0.53,0.21,0.72,0.91,0.55,1.44
					c-0.18,0.54-0.63,0.94-1.09,1.26C257.47,372.95,253.68,372.97,249.9,367.66z"/>
			</g>
			<g>
				<path d="M238.66,405.34c1.31,4.6,4.26,8.71,8.2,11.41c0.97,0.66,2.02,1.27,2.7,2.22c0.68,0.95,0.87,2.39,0.06,3.24
					c-1.28,1.34-4.12,0.45-4.93,2.12c-0.41,0.84,0.05,1.89,0.8,2.45s1.7,0.74,2.62,0.89c4.33,0.7,8.71,1.07,13.09,1.09
					c-1.19,3.54-4.87,5.78-8.57,6.34c-3.7,0.56-7.45-0.25-11.1-1.09c-1.24-0.28-2.57-0.63-3.36-1.63c-1.13-1.42-0.68-3.47-0.25-5.23
					C239.66,419.89,239.95,412.27,238.66,405.34z"/>
			</g>
			<g>
				<path d="M147.1,285.33c-1.2,4.71-2.41,9.42-3.61,14.13c-0.3,1.19-0.6,2.49-0.08,3.6c0.86,1.81,3.4,2.07,5.3,1.43
					c1.9-0.64,3.61-1.87,5.6-2.16c3-0.44,5.8,1.36,8.67,2.33c5.86,1.99,12.24,0.55,18.34-0.45c2.32-0.38,4.77-0.69,6.99,0.08
					c1.87,0.65,3.39,2.01,5.13,2.97c3.39,1.87,7.48,2.15,11.29,1.49c3.81-0.67,7.41-2.21,10.92-3.84
					C195.27,293.27,172.55,285.73,147.1,285.33z"/>
			</g>
			<g>
				<path style="fill:#FFAF2E;" d="M133.45,277.18c-5.14,18.68-4.14,38.99,1.8,58.04c-2.81,2.22-3.33,6.82-1.34,9.96
					c-2.93,1.27-4.1,5.44-1.62,8.5c-11,8.76-21.15,18.57-30.56,30.01c5.77-13.77,14.29-26.39,25.18-36.76
					c-1.06-1.12-1.59-2.73-1.39-4.26c0.19-1.53,1.1-2.96,2.82-4.01c-6.2-15.85-6.2-42.91-0.12-58.85
					C129.78,275.72,130.96,280.96,133.45,277.18z"/>
			</g>
			<g>
				<path d="M125.91,347.68c2.01,4.95,4.02,9.91,6.03,14.86c0.29,0.73,0.67,1.54,1.42,1.78c0.92,0.3,1.9-0.52,2.14-1.46
					c0.24-0.94-0.06-1.92-0.39-2.83C133.26,354.8,130.41,349.93,125.91,347.68z"/>
			</g>
			<g>
				<path d="M127.92,337.97c1.73,2.62,3.49,5.26,5.75,7.44c2.27,2.18,5.12,3.88,8.24,4.2c0.74-1.77,0.05-3.88-1.21-5.34
					c-1.26-1.45-2.99-2.39-4.69-3.29C133.21,339.48,130.41,337.98,127.92,337.97z"/>
			</g>
			<g>
				<path d="M147.35,364.79c-0.69-0.16-1.39-0.34-1.99-0.72s-1.09-1.01-1.1-1.72c-0.02-1.3,1.4-2.07,2.61-2.53
					c2.42-0.91,4.88-1.73,7.36-2.46C153.06,359.92,151.31,362.21,147.35,364.79z"/>
			</g>
			<g>
				<path style="fill:#FFAF2E;" d="M284.93,450.54c-5.19,0.08-10.38,0.16-15.57,0.24c-12,0.19-21.18,0.37-33.18,0.56
					c-3.29-6.39-1.1-14.16,3.81-19.47c5.2,1.34,10.8,1.13,15.89-0.6c2.28-0.77,4.59-1.86,6.98-1.55c3.22,0.42,2.77,0.74,1.64,3.89
					c3.39,2.25,8.36,6.61,15.3,5.82C284.01,438.95,286.38,445.67,284.93,450.54z"/>
			</g>
			<g>
				<path d="M235.39,449.67c13.66,0.47,27.37-0.78,40.71-3.73c2.13-0.47,4.39-0.98,6.44-0.23c2.05,0.75,3.56,3.34,1.88,5.42
					c-16.2,1.35-32.6,1.05-49.02,0.49C235.52,450.93,235.35,450.19,235.39,449.67z"/>
			</g>
			<g>
				<path style="fill:#FFAF2E;" d="M80.21,428.43c4.08-2.07,9.43-1.28,12.74,1.89c3.3,3.17,4.33,8.48,2.76,12.97
					c1.32,3.51,1.89,7.31,1.45,10.73c-8.34-0.06-16.67-0.11-25.4-0.21C71.26,449.4,71.91,444.86,80.21,428.43z"/>
			</g>
			<g>
				<path d="M71.83,454.07c2.48-4.6,7.62-7.65,12.85-7.6s10.32,3.18,12.42,8C88.95,454.29,80.81,454.1,71.83,454.07z"/>
			</g>
		</g>
		<g>
			<g>
				<path style="fill:#FFAF2E;" d="M230.87,210.42c5.08,6.96,9.35,16.36,10.5,24.9c1.15,8.54,0.89,17.21-0.01,24.34
					c2.18,1.69,3.24,4.71,1.63,6.62c0.99,1.1,1.29,2.69,1.12,4.17c-0.17,1.47-0.76,2.86-1.38,4.21c-0.87,1.9-1.9,3.86-3.67,4.97
					c-1.85,1.16-4.22,1.17-6.34,0.65c-6.03-1.45-10.78-7.14-11.94-13.42C213.92,247.84,216.49,224.36,230.87,210.42z"/>
			</g>
			<g>
				<path d="M229.92,217.95c4.63,10.68,4.09,23.47-1.33,33.26c1.79-0.08,3.57-0.17,5.36-0.25c0.28,2.34-1.92,4.64-4.27,4.47
					c2.93,0.49,5.69,1.9,7.82,3.96c-3.53,0.33-7.07,0.67-10.6,1c4.74,1.87,8.78,5.47,11.18,9.97c-5.62-0.88-11.23-1.75-16.85-2.63
					c-3.6-6.65-4.29-14.82-1.86-21.98C222.3,237.15,229.51,229.68,229.92,217.95z"/>
			</g>
			<g>
				<path style="fill:#F04A44;" d="M215.97,271.09c2.55-2.21,5.37-4.19,8.55-5.31c3.18-1.13,6.78-1.33,9.9-0.05s5.65,4.2,5.41,7.18
					c1.84-1.37,3.82-2.68,6.08-3.08c2.26-0.4,4.86,0.34,6.04,2.31c1.14,1.9,0.64,4.48-0.77,6.2c-1.41,1.72-3.53,2.69-5.43,3.55
					c-0.58,1.29,0.16,2.87,1.33,3.66c1.17,0.79,2.64,0.97,4.05,1.02c1.41,0.06,2.86,0.03,4.19,0.49c1.34,0.46,2.57,1.55,2.72,2.95
					c0.18,1.77-1.31,3.21-3.4,4.28c1.16,1.51,1.94,3.3,2.24,5.18c0.36,2.16,0.04,4.52-1.31,6.23c-1.35,1.71-3.89,2.56-6.37,1.7
					c1.38,2.07,0.6,5.09-1.31,6.68c-1.91,1.59-4.63,1.92-7.06,1.43c-2.43-0.49-4.65-1.71-6.8-2.96c-5.96-3.46-11.86-7.43-15.78-13.1
					c-3.92-5.67-5.5-13.41-2.09-20.36C214.96,276.61,213.88,272.9,215.97,271.09z"/>
			</g>
			<g>
				<path d="M221.72,269.66c3.41-0.19,6.58,3.12,6.24,6.52c2.02,0.05,4.05-0.24,5.98-0.86c-1.02,1.27-2.04,2.53-3.06,3.8
					c3.13,0.71,6.26,1.43,9.39,2.14c-1.17,3.58-2.34,7.17-3.51,10.75c3.32-0.15,6.66,0.27,9.84,1.23c-2.06,1.16-4.48,1.66-6.9,1.78
					c2.45,1.68,5.18,2.95,8.05,3.74c-0.9,0.91-2.3,1.14-3.56,0.92c-1.25-0.23-2.4-0.85-3.62-1.25c0.37,3.08,1.56,6.07,3.42,8.56
					c-2.62-0.91-5.24-1.82-7.73-2.54c-0.34,1.68-0.27,3.44,0.21,5.09c-3.98,1.09-8.37-0.44-11.37-3.27c-3-2.83-4.72-6.8-5.54-10.84
					c-0.82-4.04-0.8-8.2-0.78-12.32C218.8,278.78,218.9,274.18,221.72,269.66z"/>
			</g>
			<g>
				<path style="fill:#FFAF2E;" d="M151.69,230.31c9.77-10.82,22.84-18.63,37-22.09c14.16-3.46,29.36-2.57,42.19,2.2
					c3.61,19.97-3.68,41.57-19.71,54.69c0.1,1.79-0.65,3.61-1.98,4.8c-1.33,1.2-3.22,1.74-5.47,1.57
					c-2.16,8.16-9.79,14.08-17.99,16.05s-16.88,0.55-24.92-2.01c-5.12-1.62-10.11-3.7-15.35-4.84c-5.25-1.14-10.91-1.27-16,0.77
					c-1.86-0.66-3.36-2.26-3.91-4.16c-0.55-1.9-0.12-4.05,1.3-6.16c-1.58-3.58-0.56-7.91,1.71-11.1s5.63-5.43,7.94-7.31
					C139.8,243.94,145.97,236.64,151.69,230.31z"/>
			</g>
			<g>
				<path style="fill:#F04A44;" d="M230.93,209.94c2.64,9.97,1.68,20.86-2.67,30.22c-18.57,7.08-38.73,11.04-59.4,11.58
					c-3.44-3.58-6.9-7.18-9.6-11.34c-2.7-4.16-4.51-8.47-5.03-13.47c10.48-9.02,23.81-17.98,37.35-20.8
					C205.11,203.3,218.72,206.12,230.93,209.94z"/>
			</g>
			<g>
				<path d="M151.97,230.65c-5.82,6.19-9.76,14.13-11.01,22.82c-1.15,0.29-3.07,0.59-4.06,1.25c-0.99,0.66-1.76,1.76-1.71,2.94
					s1.18,2.31,2.34,2.08c-0.67,1.07-1.77,1.78-2.88,2.39c-1.11,0.61-2.26,1.17-3.16,2.05s-1.52,2.18-1.23,3.4
					c0.3,1.23,1.77,2.15,2.89,1.57c-2.57,3.02-4.29,6.75-4.94,10.66c-0.09,0.55-0.15,1.16,0.17,1.62c0.71,1.03,2.29,0.32,3.41-0.24
					c2.68-1.33,5.84-1.15,8.81-0.83c2.97,0.33,6.04,0.78,8.91-0.08c2.87-0.85,5.47-3.46,5.48-6.43
					c11.24,7.96,24.61,12.86,38.33,14.05c-2.86-6.25-7.8-11.53-14.34-15.07c6.05,0.02,12.11-0.73,17.98-2.23
					c-4.36-2.31-9.07-3.95-13.93-4.86c1.67-2.9,5.74-3.06,9.07-2.72c3.33,0.35,7.26,0.62,9.43-1.92c-6.41-3.9-13.85-6.09-21.34-6.3
					c-0.69-4.93-2.77-9.65-5.96-13.47c-0.78,6.45-7.96,11.31-14.24,9.64C153.72,249.31,150.65,241.53,151.97,230.65z"/>
			</g>
			<g>
				<path d="M183.95,215.11c1.13,7.65,4.96,14.88,10.66,20.11c0.51,0.46,1.04,0.93,1.34,1.55c0.3,0.62,0.31,1.44-0.18,1.92
					c-0.48,0.47-1.28,0.47-1.88,0.17s-1.04-0.84-1.45-1.38C187.61,231.2,184.64,223.52,183.95,215.11z"/>
			</g>
			<g>
				<path d="M188.2,210.19c0.46,11.05,6.65,21.71,16.02,27.59c0.88,0.55,1.84,1.08,2.87,1.06c1.03-0.02,2.12-0.8,2.11-1.83
					c-0.01-1.52-1.97-2.05-3.43-2.47c-2.75-0.78-5.08-2.7-6.85-4.95s-3.05-4.84-4.32-7.41C192.42,217.77,190.24,213.36,188.2,210.19
					z"/>
			</g>
			<g>
				<path d="M211.38,231.32c4.65-3.35,9.39-6.79,12.71-11.46c0.36-0.5,0.7-1.04,0.82-1.65c0.12-0.61-0.05-1.31-0.56-1.66
					c-0.36-0.26-0.83-0.3-1.28-0.33c-2.54-0.19-5.07-0.37-7.61-0.56c-1.14-0.08-2.41-0.13-3.27,0.62c-0.85,0.73-1.01,1.96-1.11,3.07
					c-0.2,2.25-0.38,4.5-0.55,6.76C210.38,228.17,210.33,230.48,211.38,231.32z"/>
			</g>
			<g>
				<path d="M220.45,239.88c-5.6,3.81-11.01,7.91-16.19,12.28c-0.6,0.51-1.22,1.05-1.49,1.79c-0.27,0.74-0.04,1.72,0.69,2.02
					c0.48,0.19,1.03,0.04,1.52-0.14c3.5-1.32,6.17-4.18,8.51-7.09C215.83,245.82,218.04,242.7,220.45,239.88z"/>
			</g>
			<g>
				<path style="fill:#FFAF2E;" d="M149.88,232.42c2.15-4.05,6.4-6.91,10.96-7.37c4.56-0.46,9.3,1.49,12.21,5.03
					c4.16,5.06,4.27,12.3,3.33,18.78c-1.33,9.22-4.37,18.19-8.93,26.31c0.92-0.25,1.98,0.55,1.97,1.51c0,0.96-1.05,1.76-1.54,1.69
					c10.76,2.22,20.98,7,29.37,13.4c0.74,3.31-0.34,6.97-3.48,9.57c-17.57,0.56-35.22-1.37-52.17-5.73
					c-0.83-1.93-1.09-4.11-1.24-6.55c0-1.24,0-2.47-0.1-3.84c-0.85-2.11-0.3-4.71,1.27-6.5
					C142.35,263.34,142.17,246.99,149.88,232.42z"/>
			</g>
			<g>
				<path style="fill:#FFFFFF;" d="M160.84,235.48c-2.19,0.01-4.25,1.22-5.71,2.86c-1.46,1.64-2.37,3.68-3.11,5.75
					c-1.16,3.23-1.94,6.76-1.13,10.1s3.59,6.39,7.03,6.57c2.66,0.14,5.16-1.43,6.91-3.44c2.71-3.13,3.97-7.46,3.36-11.56
					C167.57,241.66,165.09,237.88,160.84,235.48z"/>
			</g>
			<g>
				<path d="M166.76,275.21c-6.64,4.66-13.28,9.32-19.93,13.97c0.25-2.77,2.39-4.97,4.57-6.7
					C155.86,278.98,161.06,276.42,166.76,275.21z"/>
			</g>
			<g>
				<path d="M168.61,278.44c-3.61,3.59-7.1,7.31-10.45,11.15c-0.53,0.61-1.07,1.56-0.51,2.15c0.48,0.5,1.32,0.23,1.92-0.12
					c2.42-1.41,4.37-3.55,5.86-5.93C166.92,283.32,167.98,280.7,168.61,278.44z"/>
			</g>
			<g>
				<path d="M144.75,278.2c3.59-1.33,7.18-2.66,10.77-3.98c1.1-0.41,2.28-0.88,2.86-1.9c-2.48-0.67-5.16-0.55-7.56,0.36
					C148.42,273.59,146.31,275.24,144.75,278.2z"/>
			</g>
			<g>
				<path d="M161.77,272.47c1.01,0.16,2.02,0.31,3.02,0.47c0.36,0.06,0.76,0.1,1.06-0.11c0.34-0.25,0.38-0.77,0.18-1.13
					c-0.2-0.36-0.59-0.59-0.99-0.72C163.85,270.61,162.43,271.07,161.77,272.47z"/>
			</g>
			<g>
				<path d="M190.72,287.38c-1.09,0.71-1.76,1.94-2.06,3.2c-0.3,1.26-0.26,2.58-0.18,3.88c0.07,1.15,0.18,2.36,0.81,3.32
					c1.11,1.71,3.4,2.13,5.42,2.38c0.81,0.1,1.81,0.13,2.26-0.56c0.42-0.65,0.07-1.51-0.29-2.19
					C194.84,293.97,192.8,290.62,190.72,287.38z"/>
			</g>
			<g>
				<path d="M154.3,230.37c2.57-2.02,5.98-2.95,9.22-2.51c3.24,0.44,6.28,2.23,8.23,4.86c0.19,0.25,0.44,0.54,0.74,0.49
					c0.42-0.08,0.45-0.68,0.34-1.09c-0.98-3.71-4.31-6.68-8.1-7.23C160.94,224.34,156.91,226.23,154.3,230.37z"/>
			</g>
			<g>
				<path style="fill:#F04A44;" d="M205.64,303.42c-2.34,1.36-5.21,1.81-7.85,1.21c-6.14-4.89-9.09-14.42-6.62-22.83
					c3.89-2.84,9.35-3.36,12.98-1.47c3.25-5.85,7.91-10.91,13.49-14.62c1.15-0.76,2.61-1.49,3.85-0.87c1.21,0.61,1.53,2.19,1.5,3.55
					c-0.07,2.79-1.05,5.56-3.24,8.27c4.23,1.84,8.45,3.67,12.68,5.51c0.95,0.41,1.91,0.83,2.69,1.52c0.78,0.68,1.34,1.68,1.25,2.71
					c-0.12,1.31-1.28,2.33-2.54,2.71c-1.26,0.38-2.61,0.24-4.56,0.3c2.51,2.08,5.02,4.16,7.49,6.3c0.97,0.84,2,1.84,2.03,3.12
					c0.03,1.34-1.11,2.47-2.39,2.88s-2.65,0.25-4.19-0.53c0.74,0.58,1.44,1.26,1.83,2.12c0.39,0.86,0.4,1.93-0.16,2.7
					c-0.55,0.76-1.74,1.06-3.43,0.97c1.07,0.63,0.57,2.46-0.56,2.98c-1.13,0.51-2.45,0.15-3.64-0.21
					C219.35,307.6,212.45,305.47,205.64,303.42z"/>
			</g>
			<g>
				<path d="M205.89,302.42c-1.84-6.17-3.33-12.75-1.73-18.98C206.98,289.46,207.44,296.54,205.89,302.42z"/>
			</g>
			<g>
				<path d="M219.68,276.69c-2.12,1.63-4.24,3.26-6.36,4.89c1.1-3.99,4.45-7.28,8.46-8.31
					C221.05,274.63,220.43,276.12,219.68,276.69z"/>
			</g>
			<g>
				<path d="M228.32,289.33c-2.58-1.34-5.48-2.08-8.39-2.14c1.85,1.49,3.71,3,5.86,4.02c2.14,1.02,4.62,1.52,6.92,0.9
					C230.77,291.03,228.99,289.67,228.32,289.33z"/>
			</g>
			<g>
				<path d="M232.37,301.24c-2.23-1.36-4.65-2.41-7.17-3.1C226.36,300.82,229.63,302.39,232.37,301.24z"/>
			</g>
			<g>
				<path d="M228.05,306.18c-1.47-0.5-2.94-1.01-4.41-1.51C223.97,306.02,225.55,306.91,228.05,306.18z"/>
			</g>
		</g>
		<g>
			<g>
				<path style="fill:#FFB387;" d="M187.69,208.48c2.93,9,7.74,18.31,13.86,25.52c1.68,1.98,4.17,4.05,6.58,3.09
					c2.14-0.85,2.74-3.53,3.05-5.81c0.39-2.88,0.78-5.77,1.18-8.65c0.36-2.64-1.48-7.47-0.69-7.79c2.64-1.09-4.45-8.05-7.23-8.69
					C199.12,204.92,190.01,208.55,187.69,208.48z"/>
			</g>
			<g>
				<path d="M193.86,207.38c1.06,3.44,2.12,6.91,3.76,10.11c1.64,3.21,3.91,6.17,6.94,8.12c1.06,0.68,2.24,1.24,3.49,1.31
					c1.25,0.07,2.6-0.43,3.28-1.49c0.94-1.46,0.38-3.4-0.43-4.93c-1.69-3.18-4.34-5.76-7.28-7.83
					C200.68,210.6,197.44,209,193.86,207.38z"/>
			</g>
			<g>
				<path style="fill:#FFB387;" d="M224.69,185.76c0.82,10.56-0.28,21.27-3.22,31.45c-0.77,2.66-1.9,5.57-4.41,6.74
					c-3.18,1.49-6.83-0.52-9.7-2.53c-6.25-4.39-12.38-9.43-15.8-16.26s-3.47-15.86,1.72-21.46c2.46-2.65,5.83-4.31,9.3-5.33
					c3.79-1.12,7.86-1.55,11.72-0.69C218.17,178.53,224.24,180.01,224.69,185.76z"/>
			</g>
			<g>
				<circle cx="221.17" cy="200.53" r="2.39"/>
			</g>
			<g>
				<path style="fill:#F04A44;" d="M216.18,200.05c1.17-0.21,2.47,0.23,3.04,0.81c0.57,0.58,0.6,1.26,0.62,1.91
					c0.03,1.26,0.06,2.52,0.09,3.78c0.01,0.6,0.02,1.22-0.52,1.75c-0.53,0.53-1.8,0.9-2.82,0.64c-1.05-0.26-1.29-0.98-1.37-1.59
					C214.91,204.82,215.06,202.27,216.18,200.05z"/>
			</g>
			<g>
				<circle cx="209.16" cy="200.89" r="2.39"/>
			</g>
			<g>
				<path style="fill:#FFFFFF;" d="M210.21,211.76c3.1-0.13,6.2-0.25,9.3-0.38c0.25,1.53-0.64,3.12-2,3.87
					c-1.36,0.74-3.08,0.68-4.46-0.02C211.66,214.54,210.6,213.29,210.21,211.76z"/>
			</g>
			<g>
				<path style="fill:#030303;" d="M192.21,214.43c1.29,1.12,3.11,2.31,4.57,1.41c1.34-0.82,1.29-2.75,1.07-4.3
					c-0.58-4.18-1.15-8.35-1.73-12.53c-0.23-1.68-0.41-3.55,0.62-4.89c0.67-0.87,1.74-1.33,2.76-1.73
					c4.19-1.61,8.59-2.68,12.95-2.85c1.88-0.89,4.11-0.97,6.05-0.22c1.94,0.74,3.54,2.31,4.34,4.15c0.82,0.23,1.4,0.99,1.65,1.8
					s0.22,1.68,0.18,2.52c-0.29,5.85-1.83,12.11-2.68,17.53c1.66-0.46,3.66-2.38,4.25-4c0.59-1.62,0.65-3.38,0.71-5.1
					c0.11-3.16,0.21-6.31,0.32-9.47c0.09-2.83,0.13-5.86-1.46-8.21c-1.63-2.41-4.59-3.49-7.4-4.27c-4.79-1.32-9.8-2.16-14.73-1.53
					c-4.93,0.63-9.8,2.88-12.82,6.83c-2.64,3.45-3.68,7.98-3.27,12.3C188.01,206.21,188.62,211.31,192.21,214.43z"/>
			</g>
			<g>
				<path style="fill:#28738F;" d="M229.55,191.54c-1.86-8.79-4.84-19.26-13.91-22.94c-12.79-3.74-30.57,0.79-33.36,15.61
					c-1.78,8.01-3.4,20.61,9.8,30.54c0.83-4.32,0.44-13.5,0.19-17.99C203.61,191.17,216.73,189.29,229.55,191.54z"/>
			</g>
			<g>
				<path style="fill:#FFAF2E;" d="M182.46,181.44c-0.81,4.25-0.23,8.76,1.63,12.67s4.99,7.2,8.84,9.21
					c0.38-3.21,0.4-6.46,0.38-9.68c-3.61-5.73-5.95-12.25-6.42-18.93C184.77,177.25,182.73,180.01,182.46,181.44z"/>
			</g>
			<g>
				<path d="M229.87,191.29c-2.23-4.37-6.87-7.24-11.73-7.94c-4.86-0.7-9.86,0.6-14.16,2.97c-4.3,2.37-7.95,5.75-11.24,9.4
					C204.48,194.04,216.31,193.03,229.87,191.29z"/>
			</g>
			<g>
				<path style="fill:#F04A44;" d="M191.58,196.04c13.21-0.76,28.16-0.88,41.31-2.35c0.86-0.1,1.75-0.21,2.47-0.67
					c0.72-0.46,1.22-1.4,0.91-2.21c-0.38-0.95-1.58-1.2-2.6-1.29C219.71,188.29,203.69,189.89,191.58,196.04z"/>
			</g>
			<g>
				<g>
					<path style="fill:#FFFFFF;" d="M211.902,220.894c-0.146,0-0.293-0.001-0.44-0.003c-3.371-0.05-8.136-0.728-11.71-3.667
						c-6.242-4.09-10.434-13.626-9.348-21.273l0.069-0.487l0.488,0.061c4.655,0.581,11.634,1.324,18.446,1.566
						c8.952,0.321,15.124-0.294,18.347-1.831l0.732-0.349l-0.017,0.811c-0.02,0.975-0.026,1.955-0.032,2.937
						c-0.042,6.898-0.085,14.031-5.076,19.597C221.696,219.576,216.932,220.894,211.902,220.894z M191.334,196.578
						c-0.775,7.114,3.261,16.086,8.989,19.823l0.045,0.034c3.352,2.77,7.891,3.408,11.109,3.456c5.265,0.091,9.88-1.32,11.203-2.363
						c4.675-5.224,4.717-12.165,4.758-18.876c0.004-0.727,0.009-1.453,0.019-2.175c-3.516,1.376-9.591,1.92-18.085,1.613
						C202.762,197.855,196.001,197.151,191.334,196.578z"/>
				</g>
				<g>
					<path style="fill:#FFFFFF;" d="M211.978,220.442l-0.996-0.085c0.687-8.047,0.1-15.427-1.795-22.559l0.967-0.257
						C212.079,204.787,212.675,212.278,211.978,220.442z"/>
				</g>
				<g>
					<path style="fill:#FFFFFF;" d="M221.082,218.754c-0.713-7.96,0.518-15.233,3.764-22.235l0.907,0.421
						c-3.17,6.838-4.372,13.944-3.675,21.725L221.082,218.754z"/>
				</g>
				<g>
					<path style="fill:#FFFFFF;" d="M214.097,209.722c-9.473,0-20.598-3.511-23.221-6.471l0.748-0.663
						c2.616,2.952,17.334,7.554,27.549,5.724c4.405-0.79,7.212-2.665,8.34-5.573l0.933,0.362c-1.264,3.255-4.325,5.339-9.097,6.195
						C217.71,209.59,215.935,209.722,214.097,209.722z"/>
				</g>
			</g>
		</g>
		<g>
			<g>
				<rect x="315.2" y="293.22" style="fill:#F04A44;" width="9" height="159.53"/>
			</g>
			<g>
				<rect x="336.2" y="293.22" style="fill:#F04A44;" width="9" height="159.53"/>
			</g>
			<g>
				<rect x="336.2" y="293.22" width="9" height="13.51"/>
			</g>
			<g>
				<path style="fill:#28738F;" d="M297.91,294.23L297.91,294.23c0-2.49,2.01-4.5,4.5-4.5h35.5c2.49,0,4.5,2.01,4.5,4.5l0,0
					c0,2.49-2.01,4.5-4.5,4.5h-35.5C299.93,298.73,297.91,296.71,297.91,294.23z"/>
			</g>
			<g>
				<rect x="295.16" y="293.22" style="fill:#F04A44;" width="9" height="159.53"/>
			</g>
			<g>
				<rect x="315.2" y="405.25" width="9" height="47.5"/>
			</g>
			<g>
				<rect x="315.2" y="298.73" width="9" height="8"/>
			</g>
			<g>
				<rect x="336.2" y="405.25" width="9" height="47.5"/>
			</g>
			<g>
				<rect x="295.16" y="405.25" width="9" height="47.5"/>
			</g>
			<g>
				<rect x="315.18" y="343.25" style="fill:#FFAF2E;" width="9" height="47.5"/>
			</g>
			<g>
				<rect x="336.18" y="343.25" style="fill:#FFAF2E;" width="9" height="47.5"/>
			</g>
			<g>
				<rect x="295.14" y="343.25" style="fill:#FFAF2E;" width="9" height="47.5"/>
			</g>
		</g>
	</g>
</g>
</svg>
