<?xml version="1.0" encoding="utf-8"?>
<!-- Generator: Adobe Illustrator 27.5.0, SVG Export Plug-In . SVG Version: 6.00 Build 0)  -->
<svg version="1.1" xmlns="http://www.w3.org/2000/svg" xmlns:xlink="http://www.w3.org/1999/xlink" x="0px" y="0px"
	 viewBox="0 0 500 500" style="enable-background:new 0 0 500 500;" xml:space="preserve">
<g id="BACKGROUND">
	<g>
		<rect style="fill:#FFFFFF;" width="500" height="500"/>
	</g>
</g>
<g id="OBJECTS">
	<g>
		<g>
			<path style="fill:#72A13A;" d="M485.23,384.35c1.14-1.55,2.14-3.19,2.91-4.96c1.07-3.13,2.13-6.24,3.62-9.22
				c-3.77,1.55-6.02,4.66-7.31,8.25c0.14-3.66-0.21-7.36-0.87-10.94c-3.37,5.71-4,11.07-2.74,16.86H334.85
				c1.93-2.55,3.74-5.18,4.92-8.18c0.21-0.68,0.97-1.58,1.63-2.14c-1.87-0.04-3.31,1.11-4.64,2.27c-0.5,0.35-0.98,0.74-1.45,1.15
				c0.67-2.48,1.17-5.01,1.74-7.51c-2.63,1.93-4.52,4.59-5.67,7.56c-0.23-1.09-0.53-2.16-0.93-3.2c-0.25-0.75-1.98-5.21-1.97-3.33
				c-0.37,2.5-0.92,5.6-0.79,8.49c0.08,1.65,0.36,3.28,0.79,4.88H128.86c2.23-1.99,4.27-4.2,6.26-6.39c0.2-0.26,0.4-0.52,0.59-0.78
				c-0.99,0.25-1.99,0.46-2.97,0.73c-3.12,0.75-5.97,2.4-8.38,4.5c-0.69,0.58-1.29,1.25-1.86,1.94h-1.39
				c1.04-3.56,1.18-7.35,0.35-11.04c-1.61,2.74-2.64,5.76-3.09,8.87c-1.75-2.83-2.39-3.23-3.76-5.29c-0.87-1.26-1.66-2.59-2.53-3.85
				c-0.34,2.89-0.17,5.89,0.98,8.59c0.34,0.93,0.74,1.83,1.17,2.72h-2.34c-0.42-0.43-0.83-0.87-1.26-1.3
				c-2.33-2.19-4.69-4.36-7.02-6.54c0.24,2.87,1.36,5.6,3.08,7.84H52.74c0.99-1.15,1.9-2.38,2.68-3.69
				c1.68-3.32,3.21-6.56,5.84-9.27c-4.03,0.57-7.13,2.84-9.56,5.88c0.58-1.74,1.05-3.53,1.36-5.36c0.39-1.84,0.61-3.73,0.47-5.61
				c-0.12-0.56,0.13-1.86-0.47-0.73c-1.64,2.58-3.61,4.94-5.06,7.63c-0.98,1.89-1.69,3.89-2.17,5.95c-0.28-0.85-0.59-1.69-0.99-2.51
				c-1.14-2.72-2.7-5.21-4.36-7.63c-0.44-0.43-1.23-2.63-1.2-1.07c-0.34,5.22,0.53,11.04,2.72,16.42H0V500h500V384.35H485.23z"/>
		</g>
		<g>
			<path style="fill:#4D662E;" d="M491.89,441.95c0,5.4-15.29,10.39-41.19,14.44c0.35-0.14,0.71-0.3,1.03-0.53
				c1.44-1.05,3.37-2.7,5.55-4.11c-1.4-0.1-2.84-0.08-4.22,0.22c-1.17,0.46-2.3,1.03-3.43,1.57c-0.02,0.01-0.04,0.02-0.07,0.03
				c0.69-1.08,1.38-2.15,2.02-3.26c0.54-1.57,1.76-2.78,2.26-4.36c-1.06,0.96-2.45,1.47-3.45,2.51c-1.05,1.27-2.44,2.22-3.33,3.62
				c-0.18,0.25-0.33,0.52-0.47,0.79c-0.05-1.23-0.12-2.46-0.13-3.69c0.07-1.55,0.49-3.07,0.53-4.64c-0.98,1.14-2.13,2.13-3.02,3.34
				c-1,1.58-1.69,3.34-2.23,5.14c-0.1-0.28-0.2-0.55-0.3-0.82c-0.57-1.23-1.41-2.31-2.01-3.52c-0.15,0.77-0.25,1.57-0.14,2.35
				c0.13,1.54,0.43,2.84,0.96,4c-0.17-0.27-0.35-0.53-0.61-0.73c-1.4-1.03-2.98-1.81-4.7-2.17c1.3,1.05,2.46,2.24,3.7,3.36
				c0.25,0.3,0.46,0.72,0.72,1.06c0.32,0.47,0.77,0.79,1.2,1.14c-0.01,0.06-0.02,0.11-0.03,0.17c-28.09,3.75-65.95,6.53-109.08,7.81
				c-0.01-0.07-0.02-0.15-0.04-0.22c-0.03-0.06-0.05-0.11-0.07-0.17c0.57-2.41,0.97-4.87,1.37-7.32c0.1-0.84,0.14-1.7,0.1-2.55
				c-0.38,0.48-0.67,0.86-0.98,1.29c-1.01,1.13-1.74,2.35-2.21,3.63c-0.17-0.4-0.35-0.82-0.59-1.3c-1.11-1.8-2.57-3.36-4.08-4.84
				c-1.04-1.35-1.84-2.35-2.6-3.34c-0.93-1.81-0.46,1.07-0.49,1.94c0.02,2.91,1.34,5.5,2.2,8.21c-1.4-1.15-3.02-2-4.72-2.36
				c-1.23-0.28-2.51-0.3-3.74-0.58c-0.61-0.25-0.29,0.05-0.05,0.39c2.23,2.2,4.93,3.92,7.06,6.25c0.44,0.41,0.9,0.79,1.37,1.17
				c-15,0.38-30.59,0.58-46.59,0.58c-9.12,0-18.15,0.11-27.03,0.31c0.29-0.2,0.58-0.41,0.86-0.63c3.68-3.14,6.92-5.5,10.55-8.15
				c-3.84,0.09-8.01,0.68-11.12,3.08c-1.85,1.7-3.62,3.64-4.98,5.81c-0.09-0.01-0.18,0-0.27,0c1.48-2.54,2.95-5.08,4.1-7.79
				c0.63-1.4,1.09-2.9,1.16-4.44c-0.28,0.3-0.57,0.58-0.86,0.87c-1.75,1.71-3.74,3.24-4.94,5.43c-0.14,0.26-0.26,0.53-0.38,0.8
				c-0.72-2.63-1.93-5.2-3.38-8.07c-0.5-1-0.7-1.5-1.09-2.55c-0.82,2.24-0.91,4.69-0.77,7.05c0.16,2.29,0.57,4.55,1.12,6.78
				c-1.42-1.48-3.29-2.59-5.16-3.16c-0.59-0.23-4.76-1.37-4.03-0.68c1.71,1.77,3.54,3.44,5.53,4.9c0.48,0.36,0.98,0.71,1.48,1.06
				c-46.5,1.33-88.51,4.35-119.77,3.4c1.45-1.42,2.84-2.89,4.07-4.51c0.78-1.08,4.16-5.8,6.61-8.06c-5.01,1-9.36,4.07-12.48,8.11
				c0.81-3.16,2.55-5.93,3.53-9.07c-2.31,1.53-4.79,3.01-6.43,5.3c-1.56,2.34-2.5,5.08-2.85,7.9c-0.09,0-0.18,0-0.27-0.01
				c-0.28-2.34-0.65-4.66-1.18-6.96c-0.4-1.56-0.76-3.17-1.45-4.64c-0.02,0.11-0.05,0.21-0.07,0.32c-1.44,3.83-1.99,7.53-1.39,11.02
				c-29.26-2.18-46.11-9.41-43.61-27.92c0.48-3.55,7.46-6.94,19.66-10.01c-2.84-1.29-5.47-2.97-7.62-5.31
				c-1.62-1.8-2.77-4.11-4.91-5.37c2.82-0.46,5.32,1.22,7.72,2.44c3.74,1.73,7.21,4.09,10.15,6.99c0.09-0.02,0.17-0.04,0.27-0.06
				c-2.51-4.49-3.07-10.11-1.72-15.11c1.75,3.51,3.31,7.15,4.58,10.87c0.22,0.77,0.41,1.54,0.6,2.32c0.34-5.98,2.74-11.87,7.2-15.88
				c-0.78,4.43-0.61,6.7-1.55,10.71c1.22-1.57,2.7-2.95,4.48-4.02c2.39-1.33,4.71-3.17,7.47-3.54c-1.41,1.23-1.93,3.12-3.08,4.58
				c-1.95,2.64-3.95,5.26-6.06,7.79c13.18-2.24,29.46-4.23,48.15-5.87c-1.06-0.8-2.08-1.64-3.04-2.55c-1.46-1.34-2.56-3.01-4-4.35
				c-0.97-0.84-2.23-1.24-3.38-1.75c2.59-1.03,5.42-0.65,7.68,0.96c1.65,0.96,3.17,2.15,4.52,3.51c-1.37-3.71-2.36-7.36-4.38-10.81
				c-0.13-0.26-0.24-0.51-0.36-0.77c1.56,0.74,3.12,1.52,4.47,2.61c2.27,1.88,3.86,4.27,5.03,6.9c1.43-2.92,4.06-5.26,7.48-6.55
				c-1.93,3.66-4,7.25-5.94,10.91c0.11,0.4,0.22,0.79,0.31,1.18c2.5-0.19,5.05-0.38,7.62-0.57c1.65-2.29,4.2-4.09,6.65-4.99
				c0.54-0.26,4.27-1.46,2.96-0.41c-1.55,1.7-3.05,3.46-4.71,5.05c31.67-2.15,68.59-3.4,108.25-3.4c18.78,0,36.99,0.28,54.34,0.79
				c0.25-5.13,3.02-10.18,6.88-13.5c-0.43,2.64-0.85,5.31-1.56,7.9c2.74-2.22,5.95-3.72,9.29-3.77c0.12-0.01,0.22,0,0.33-0.01
				c-0.69,0.58-1.41,1.12-2.05,1.75c-1.59,1.6-2.92,3.44-4.67,4.88c-1.31,1.1-2.75,2.03-4.23,2.88c21.53,0.69,41.66,1.76,59.88,3.14
				c-0.2-0.26-0.38-0.53-0.55-0.8c0.53,0.09,1.08,0.27,1.64,0.5c-0.56-0.86-1.01-1.79-1.27-2.81c-0.18-0.53-0.45-3.29,0.2-2
				c1.42,1.85,2.83,3.42,3.87,5.41h0.04c-0.1-1.11-0.12-2.23,0-3.34c0.12-2.41,1.05-4.68,1.46-7c1.67,3.55,2.06,6.92,1.77,10.28
				c1.84-3.81,5.35-6.85,9.68-6.96c-2.08,1.8-3.65,4.07-5.34,6.22c-0.39,0.46-0.8,0.9-1.21,1.33c33.22,2.84,58.96,6.76,73.31,11.3
				c-0.45-4.15-0.04-8.36,1.52-12.3c1.4,3.52,2.05,7.32,1.77,11.05c2.13-3.61,5.09-6.76,8.45-9.12c1.03-0.68,0.33,0.11,0.2,0.68
				c-0.62,1.86-1.18,3.74-1.97,5.54c-0.91,2.41-2.35,4.47-4,6.36C489.54,437.8,491.89,439.84,491.89,441.95z"/>
		</g>
	</g>
	<g>
		<g>
			<g>
				<path style="fill:#FFB387;" d="M106.79,250.92c-9.47,11.3-11.22,24.46-16.62,39.04c-4.52-3.64-9.23-7.04-14.1-10.2
					c-1.29-0.84-2.67-1.68-4.21-1.74c-1.81-0.07-3.51,0.99-4.66,2.38c-1.15,1.39-1.85,3.1-3.24,4.79
					c4.31,7.67,9.07,15.07,14.26,22.17c2.05,2.8,4.2,5.59,7,7.62c2.8,2.03,6.38,3.25,9.77,2.52c4.82-1.03,7.98-5.52,10.66-9.65
					c5.18-8,10.37-16,15.55-24c2.84-4.39,5.75-8.95,6.51-14.12C129.13,260.09,115.93,250.07,106.79,250.92z"/>
			</g>
			<g>
				<path d="M79.65,283.73c1.58,0.74,2.66,2.3,3.17,3.97c0.5,1.67,0.5,3.45,0.39,5.19c-0.1,1.62-0.3,3.26-0.97,4.73
					c-0.68,1.47-1.91,2.76-3.48,3.16c-1.34,0.34-2.75,0-4.05-0.48c-1.43-0.53-2.99-1.51-3.05-3.03c-0.04-0.89,0.46-1.7,0.94-2.45
					C75.08,290.94,77.57,287.05,79.65,283.73z"/>
			</g>
			<g>
				<path d="M94,279.58c2.81,6.84,7.96,12.69,14.39,16.35c1.28,0.73,2.78,1.38,4.17,0.91c2.02-0.68,2.59-3.48,1.67-5.4
					c-0.92-1.92-2.82-3.15-4.62-4.29C104.65,284.03,99.63,280.88,94,279.58z"/>
			</g>
			<g>
				<path style="fill:#F04741;" d="M52.87,273.53c5.8-1.73,11.97-3.47,17.82-1.9c1.64,0.44,3.3,1.21,4.2,2.65s0.68,3.66-0.94,4.17
					c2.16-0.94,4.79,0.18,6.2,2.07c1.41,1.88,1.81,4.33,1.86,6.68c0.07,3.13-0.61,6.63-3.18,8.41c-1.78,1.23-4.06,1.37-6.22,1.46
					c-3.08,0.13-6.17,0.27-9.25,0.4c-1.89,0.08-3.87,0.15-5.56-0.69c-1.69-0.84-2.94-2.9-2.16-4.74c-1.61-1.63-2.32-4.09-1.59-6.07
					c-1.2-0.39-1.94-1.67-2.08-2.92c-0.14-1.26,0.2-2.51,0.68-3.78C51.44,277.44,51.64,274.8,52.87,273.53z"/>
			</g>
			<g>
				<path style="fill:#28738F;" d="M106.95,250.11c-6.74,8.91-11.72,19.18-13.44,29.85c5.48,6.43,12.57,11.94,20.4,15.69
					c1.93-2.66,3.86-5.33,5.79-7.99c2.62-3.61,5.26-7.26,7.12-11.32c1.86-4.06,2.92-8.61,2.21-13.01c-0.8-4.99-3.96-9.55-8.34-12.06
					C116.31,248.76,109.5,246.74,106.95,250.11z"/>
			</g>
			<g>
				<path d="M98.53,270.85c1.61,3.61,3.24,7.26,5.67,10.37c2.43,3.11,5.78,5.69,9.67,6.39c2.73,0.49,5.95-0.2,7.41-2.56
					c1.2-1.95,0.85-4.57-0.38-6.5c-1.23-1.93-3.2-3.27-5.24-4.31C110.91,271.81,105.47,270.75,98.53,270.85z"/>
			</g>
			<g>
				<path d="M65.83,272c1.76,0.87,2.35,3.47,1.15,5.02c-0.31,0.4-0.73,0.77-0.79,1.28c-0.06,0.49,0.24,0.94,0.53,1.34
					c0.56,0.78,1.12,1.56,1.68,2.35c0.78,1.08,1.57,2.19,1.92,3.48s0.17,2.8-0.79,3.73c1.64,1.66,1.73,4.6,0.19,6.36
					c1.52,0.18,3.06,0.36,4.57,0.12c1.51-0.24,3.01-0.97,3.84-2.25c1.11-1.72,0.8-4,0.11-5.92c-0.62-1.73-1.52-3.37-2.65-4.83
					c-0.55-0.71-1.16-1.4-1.51-2.23c-0.34-0.83-0.36-1.87,0.22-2.55c-0.94,0.87-2.53,0.53-3.45-0.35c-0.93-0.88-1.37-2.13-1.87-3.3
					C68.5,273.04,67.86,271.83,65.83,272z"/>
			</g>
			<g>
				<path d="M54.1,279.05c2.35-0.52,4.77-0.77,7.18-0.74c0.22,0,0.49,0.04,0.59,0.24c0.08,0.18-0.04,0.4-0.21,0.49
					c-0.17,0.1-0.38,0.1-0.58,0.1C59.16,279.17,57.24,279.19,54.1,279.05z"/>
			</g>
			<g>
				<path d="M56.83,285.08c1.95-0.41,3.94-0.66,5.93-0.76c0.26-0.01,0.58,0.02,0.67,0.25c0.12,0.28-0.2,0.55-0.48,0.68
					C60.96,286.19,58.57,286.23,56.83,285.08z"/>
			</g>
			<g>
				<path d="M57.78,292.29c2.54-0.3,5.01-1.15,7.2-2.48c0.39-0.24,0.79-0.49,1.24-0.53c0.45-0.03,0.97,0.25,1,0.7
					c0.03,0.34-0.21,0.64-0.45,0.87c-1.02,0.96-2.45,1.41-3.85,1.51C61.51,292.48,60.11,292.25,57.78,292.29z"/>
			</g>
			<g>
				<path d="M92.36,302.32c-1.29-3.57-2.17-7.29-2.6-11.07c-0.05-0.46-0.07-1,0.27-1.32c0.46-0.42,1.18-0.15,1.73,0.14
					c1.58,0.83,3.19,1.67,4.5,2.89c1.31,1.22,2.31,2.88,2.33,4.67c-1.42-0.05-2.76-0.73-3.84-1.64c-1.09-0.91-1.96-2.05-2.82-3.17
					c0.72,2.3,1.44,4.6,2.16,6.9c0.17,0.53,0.34,1.08,0.28,1.63C94.31,301.9,93.97,302.46,92.36,302.32z"/>
			</g>
		</g>
		<g>
			<g>
				<path style="fill:#FFAF2E;" d="M103.2,253.39c2.25-4,4.51-8,6.57-12.34c2.79,2.14,2.13,2.05,5.36,0.67
					c5.1-2.18,7.23-18.8,7.23-27.79c8.7-1.97,18.11-4.6,26.99-3.69c8.88,0.91,17.86,4.99,21.9,11.14c3.77,2.98,7.55,5.96,11.32,8.94
					c12.91,10.2,25.85,20.42,39.68,29.67c3.77,1.84,7.19,4.39,9.16,6.98c-12.01-1.13-23.98,3.64-33.72,10.74
					c-9.74,7.1-17.62,16.43-25.61,25.16c-3.46,2.51-8.23,0.11-11.77-2.28c-16.11-10.87-32.23-21.73-48.34-32.6
					c-2.45-1.66-4.96-3.36-6.72-5.74C103.47,259.88,101.57,256.29,103.2,253.39z"/>
			</g>
			<g>
				<path style="fill:#28738F;" d="M139.58,244.52c9.21,1.26,17.41,8.17,20.21,17.04c0.59-0.47,1.18-0.94,1.77-1.42
					c0.28,2.02,0.56,4.03,0.84,6.05c2.68-1.26,6.3,0.28,7.26,3.08c1.85-2.88,6.44-3.46,8.95-1.14c2.52,2.32,2.3,6.94-0.42,9.01
					c3.71,0.74,7.11,2.95,9.3,6.04c7.91-4.68,15.24-10.34,21.77-16.8c-5.16-0.93-10.33-1.87-15.49-2.8
					c-2.41-4.62-6.54-8.32-11.41-10.2c-3.54-1.37-7.71-1.98-10.05-4.96c-1.64-2.09-1.99-4.92-3.35-7.21
					c-1.35-2.29-4.75-3.89-6.59-1.96c2.41-7.03-4.04-15.48-11.45-15S138.18,233.92,139.58,244.52z"/>
			</g>
			<g>
				<path d="M155.45,220.37c4.11,9.28,4.09,20.3-0.04,29.58c1.28,0.17,2.56,0.33,3.84,0.5c-0.79,2.76-1.58,5.52-2.37,8.28
					c1.08-0.92,2.9-0.1,3.48,1.2c0.58,1.3,0.3,2.81,0.02,4.2c-0.92,4.51-1.84,9.02-2.76,13.53c-0.45,2.2-0.95,4.51-2.44,6.18
					c-1.67,1.87-4.34,2.6-6.86,2.49c-2.52-0.11-4.92-0.97-7.29-1.81c-1.79-0.64-3.62-1.29-5.15-2.42s-2.76-2.83-2.87-4.73
					c-0.08-1.47,0.5-2.88,1.07-4.24C141.28,255.97,148.48,238.79,155.45,220.37z"/>
			</g>
			<g>
				<path d="M110.3,261.85c-0.27-4.26,1.23-8.6,4.07-11.78c0.64,0.88,0.59,2.07,0.72,3.15c0.13,1.08,0.66,2.32,1.74,2.51
					c1.29,0.23,2.23-1.15,2.8-2.33c1.56-3.22,3.12-6.44,4.67-9.66c0.3-0.63,0.62-1.27,1.15-1.73c0.53-0.45,1.33-0.67,1.93-0.32
					c0.57,0.32,0.79,1.02,0.95,1.65c0.93,3.68,1.13,7.6,0.06,11.24c-1.07,3.64-3.5,6.96-6.9,8.63
					C118.1,264.89,113.73,264.72,110.3,261.85z"/>
			</g>
			<g>
				<path d="M168.31,281.07c1.23-12.45,4.15-24.73,8.64-36.41c0.44-1.14,0.9-2.35,0.68-3.55s-1.43-2.31-2.59-1.94
					c-0.8,0.25-1.27,1.06-1.64,1.82C167.95,252.22,168.53,265.3,168.31,281.07z"/>
			</g>
			<g>
				<path d="M171.72,304.4c0.43-9.57,4.21-18.95,10.55-26.13c6.33-7.18,15.17-12.12,24.61-13.74c1.41-0.24,3.28-0.14,3.7,1.22
					c0.36,1.18-0.72,2.26-1.69,3.03C195.25,279.58,182.74,291.82,171.72,304.4z"/>
			</g>
			<g>
				<path d="M178.36,276.86c5.72-5.35,11.44-10.69,17.15-16.04c1-0.93,2.08-2.11,1.83-3.46c-0.22-1.17-1.46-1.94-2.65-1.97
					s-2.32,0.52-3.33,1.16c-3.49,2.21-6.13,5.57-8.08,9.22C181.34,269.42,180.04,273.37,178.36,276.86z"/>
			</g>
			<g>
				<path d="M160.25,244.59c2.78-4.69,5.56-9.38,8.34-14.07c0.39-0.66,0.79-1.46,0.47-2.16c-0.34-0.73-1.35-0.93-2.09-0.61
					s-1.26,0.99-1.7,1.67C162.55,233.51,161.17,238.48,160.25,244.59z"/>
			</g>
		</g>
		<g>
			<g>
				<path style="fill:#28738F;" d="M196.07,311.33c6.4,32.93,22.72,58.9,28.46,90.81c18.35,2.48,50.04,3.77,79.6-1.41
					c1.35,8.16,2.69,16.32,4.04,24.48c0.31,1.89,0.8,4.04,2.45,4.91c1.53,0.81,3.48,0.08,4.63-1.23c1.15-1.32,1.67-3.08,2.1-4.8
					c2.75-11.05,3.03-22.56,3.3-33.97c0.13-5.6-0.49-12.5-5.46-14.74c-4.05-1.82-11.06,1.65-15.2,3.26
					c-16.47,6.41-30.24-12.95-47.61-6.82c0.83-15.91,6.03-41.27,3.29-67.89c-1.05-10.21-8.48-19.87-14.71-27.88
					c-3.26-4.19-7.49-7.82-12.54-9.09c-4.72-1.18-9.75-0.18-14.22,1.79C198.64,275.62,192.73,294.14,196.07,311.33z"/>
			</g>
			<g>
				<path d="M230.82,283.63c5.03,6.06,6.23,14.63,4.8,22.38c-1.43,7.75-5.19,14.86-9.23,21.63c-0.64,1.07-1.3,2.2-1.33,3.45
					s0.84,2.61,2.09,2.63c0.77,0.02,1.49-0.46,2.26-0.41c1.52,0.11,2.11,2.22,1.44,3.59c-0.67,1.37-2.04,2.22-3.14,3.27
					c-1.1,1.05-2,2.67-1.36,4.05c0.48,1.05,1.69,1.58,2.33,2.54c1.07,1.62,0.22,3.75-0.52,5.54c-3.16,7.58-4.09,16.07-2.64,24.15
					c0.33,1.85,0.82,3.74,2.02,5.18c1.2,1.44,3.31,2.27,5.02,1.49c0.27,2,0.54,4.01,1.51,5.29c18.21-4.72,37.21,1.96,54.83,8.55
					c1.71,0.64,3.62,1.49,4.14,3.24c0.46,1.58-0.5,3.3-1.86,4.23c-1.36,0.93-3.03,1.25-4.65,1.54c-19,3.46-38.9,6.87-58.22,0.26
					c-6.86-16.74-13.72-33.48-20.57-50.22c-4.07-9.94-8.22-20.39-7.13-31.08c1.07-10.46,7.03-19.7,12.83-28.48
					C217.06,290.95,220.87,285.26,230.82,283.63z"/>
			</g>
			<g>
				<path d="M240.9,402.1c2.97-9.3,7.17-18.21,12.45-26.42c2.25-3.49,5.19-7.16,9.32-7.59c2.27-0.24,4.88,0.92,5.45,3.14
					c0.46,1.81-0.52,3.63-1.46,5.24c-3.4,5.78-6.79,11.56-10.19,17.34c-1.68,2.86-3.53,5.88-6.51,7.35
					C246.77,402.74,242.94,402.18,240.9,402.1z"/>
			</g>
			<g>
				<path d="M272.04,400.49c3.19-6.49,6.39-12.99,9.58-19.48c0.61-1.25,1.24-2.51,2.2-3.52c0.96-1.01,2.32-1.72,3.7-1.57
					c2,0.22,3.43,2.23,3.62,4.23c0.19,2-0.59,3.96-1.49,5.76c-0.9,1.8-1.95,3.56-2.38,5.52c-0.41,1.91-0.23,3.98-1.15,5.7
					c-1.16,2.17-3.77,3.15-6.21,3.39C277.46,400.77,274.97,400.45,272.04,400.49z"/>
			</g>
			<g>
				<path d="M234.23,380.99c3.21-4.82,7.73-8.76,12.94-11.28c0.82-0.4,1.76-0.87,2-1.75c0.28-1.02-0.62-2.07-1.66-2.31
					c-1.03-0.24-2.1,0.13-3.06,0.6C239.19,368.82,235.97,374.2,234.23,380.99z"/>
			</g>
			<g>
				<path d="M237.48,382.34c4.34-3.08,8.24-6.8,11.52-11c1.52,2.52,0.22,5.98-2.08,7.81C244.62,380.98,241.6,381.61,237.48,382.34z"
					/>
			</g>
			<g>
				<path d="M232.05,356.97c6.95-9.52,12.99-19.71,18.01-30.37c0.64-1.35,1.04-3.36-0.31-4c-0.66-0.31-1.44-0.08-2.09,0.23
					c-4.76,2.19-7.01,7.59-8.82,12.51C236.13,342.65,233.43,349.96,232.05,356.97z"/>
			</g>
			<g>
				<path style="fill:#9E5E45;" d="M210.18,402.68c4.39-4.43,10.39-6.97,16.5-8.21c6.11-1.24,12.4-1.26,18.63-1.28
					c9.27-0.03,18.54-0.06,27.8-0.09c4.69-0.01,9.44-0.02,13.99,1.1c4.55,1.12,8.97,3.52,11.59,7.41c2.62,3.89,3.05,9.43,0.27,13.2
					c-14.5-2.92-29.51-3.29-44.14-1.08c-6.11,0.92-12.25,2.3-18.41,1.75c-6.99-0.62-13.51-3.65-19.86-6.65
					C213.28,407.31,208.52,404.35,210.18,402.68z"/>
			</g>
			<g>
				<path style="fill:#C89079;" d="M228.46,401.9c1.2-0.25,2.32-0.81,3.47-1.23c1.15-0.42,2.42-0.71,3.61-0.38
					c1.19,0.33,2.23,1.42,2.13,2.65c-0.09,1.1-1.05,1.97-2.11,2.29c-1.06,0.32-2.19,0.19-3.28,0.04c-0.89-0.12-1.8-0.27-2.56-0.75
					C228.95,404.03,228.38,403.14,228.46,401.9z"/>
			</g>
			<g>
				<path style="fill:#C89079;" d="M244.81,404.81c-1.39-2.24-1.94-4.98-1.52-7.58c0.06-0.35,0.13-0.7,0.33-0.99
					c0.19-0.29,0.53-0.51,0.88-0.48c0.66,0.07,0.9,0.89,0.98,1.55C245.77,399.59,246.05,401.99,244.81,404.81z"/>
			</g>
			<g>
				<path style="fill:#C89079;" d="M251.91,405.3c-0.56-2.91-0.05-6.02,1.43-8.6c0.43-0.75,1.15-1.55,1.99-1.36
					c0.75,0.17,1.11,1.02,1.24,1.78C257.03,399.87,255.9,402.82,251.91,405.3z"/>
			</g>
			<g>
				<path style="fill:#C89079;" d="M259.43,405.49c0.74-2.8,1.61-5.81,3.94-7.53c1.66-1.22,3.78-1.57,5.83-1.8
					c4.86-0.55,9.78-0.66,14.66-0.32c1.58,0.11,3.2,0.28,4.62,0.98c1.42,0.7,2.63,2.04,2.73,3.62c-4.42-1.36-8.96-2.74-13.59-2.48
					c-4.62,0.26-9.42,2.5-11.43,6.67c-0.81,1.67-1.14,3.57-2.2,5.09s-3.28,2.52-4.77,1.42
					C257.77,410.07,258.74,408.13,259.43,405.49z"/>
			</g>
			<g>
				<path style="fill:#C89079;" d="M267.67,407.43c0.82-1.39,2.35-2.33,3.96-2.43c0.87-0.05,1.76,0.13,2.49,0.61
					c0.73,0.48,1.26,1.26,1.36,2.12c0.13,1.14-0.54,2.28-1.51,2.88c-0.97,0.61-2.19,0.73-3.32,0.51S268.49,410.4,267.67,407.43z"/>
			</g>
			<g>
				<path d="M241.42,414.93c-1.03-6.51-1.92-13.05-2.69-19.6c-0.14-1.16,0.01-2.73,1.15-2.96c1.17-0.23,1.89,1.21,2.15,2.37
					C243.54,401.68,243.23,409,241.42,414.93z"/>
			</g>
			<g>
				<path d="M247.44,414.25c0.47-6.49,0.93-12.98,1.4-19.46c0.07-0.95,0.42-2.19,1.37-2.2c0.56-0.01,1.03,0.49,1.18,1.04
					c0.15,0.54,0.05,1.12-0.05,1.68C250.18,401.97,249.02,408.65,247.44,414.25z"/>
			</g>
			<g>
				<path d="M254.1,413.69c0.92-6.48,2.25-12.9,3.98-19.22c0.21-0.76,0.61-1.68,1.4-1.72c0.61-0.03,1.11,0.54,1.23,1.14
					c0.11,0.6-0.07,1.21-0.24,1.79C258.58,401.92,256.7,408.14,254.1,413.69z"/>
			</g>
			<g>
				<path style="fill:#FFAF2E;" d="M298.36,376.99c-0.87-0.49-2.03,0.23-2.37,1.17s-0.13,1.98,0.08,2.96c0.21,0.98,0.39,2.04,0,2.96
					c-0.43,0.99-1.43,1.61-1.94,2.55c-1.07,2.03,0.51,4.35,1.54,6.4c1.53,3.03,1.89,6.49,2.23,9.87c0.64,6.44,1.28,12.87,1.92,19.31
					c0.27,2.72,0.56,5.49,1.68,7.98s3.24,4.7,5.93,5.18c3.16,0.57,6.25-1.3,8.59-3.49c7.68-7.19,10.75-18.93,7.57-28.96
					c-0.92-2.91-2.34-5.95-1.49-8.89c0.39-1.35,1.24-2.52,1.77-3.83c0.92-2.26,0.85-4.8,0.48-7.21c-0.4-2.52-1.14-5.03-2.58-7.13
					c-1.44-2.1-3.65-3.77-6.17-4.15C309.39,370.76,303.3,379.77,298.36,376.99z"/>
			</g>
			<g>
				<path style="fill:#F04741;" d="M308.43,413.65c-2.43-0.6-5.06-0.34-7.32,0.73c-0.85,0.4-1.9,0.91-2.66,0.34
					c-0.56-0.42-0.63-1.29-0.31-1.91c0.32-0.62,0.93-1.05,1.55-1.38c1.83-0.97,3.96-1.36,6.01-1.1c0.72,0.09,1.46,0.28,2.03,0.73
					C308.31,411.51,308.68,412.27,308.43,413.65z"/>
			</g>
			<g>
				<path style="fill:#FFFFFF;" d="M315.81,371.96c-3.09-1.05-6.67,0.61-8.5,3.32c-1.84,2.7-2.19,6.19-1.76,9.43
					c0.43,3.24,1.56,6.34,2.48,9.48c1.55,5.31,2.48,11.08,0.69,16.31c-1.03,3.02-2.91,5.68-4,8.67c-0.88,2.43-1.23,5.02-1.46,7.6
					c-0.13,1.45-0.23,2.94,0.11,4.36c0.34,1.42,1.18,2.79,2.5,3.42c1.88,0.9,4.14,0.09,5.88-1.06c4.32-2.88,6.97-7.79,8.13-12.85
					c1.16-5.06,0.96-10.32,0.61-15.5C319.78,394.65,318.44,384.2,315.81,371.96z"/>
			</g>
			<g>
				<path style="fill:#FFFFFF;" d="M301.08,407.95c-0.48,0.41-0.96,0.82-1.55,1.05c-0.58,0.23-1.29,0.24-1.79-0.14
					c-0.5-0.38-0.68-1.18-0.26-1.64c0.72-0.78,2.18,0.04,3.03-0.59C300.77,406.94,301.03,407.26,301.08,407.95z"/>
			</g>
			<g>
				<path style="fill:#FFFFFF;" d="M296.75,403.86c0.84-0.16,1.68-0.33,2.47-0.66c0.35-0.15,0.73-0.38,0.77-0.76
					c0.04-0.33-0.22-0.64-0.54-0.76c-0.31-0.12-0.66-0.08-0.99-0.02c-0.45,0.09-0.88,0.22-1.3,0.4c-0.38,0.16-0.76,0.38-0.94,0.75
					C296.04,403.19,296.18,403.97,296.75,403.86z"/>
			</g>
			<g>
				<path style="fill:#FFFFFF;" d="M296.01,398.66c0.95-0.12,1.82-0.73,2.25-1.58c0.1-0.19,0.17-0.41,0.09-0.6
					c-0.1-0.23-0.39-0.31-0.64-0.33c-0.94-0.05-1.88,0.52-2.28,1.37C295.3,397.8,295.27,398.21,296.01,398.66z"/>
			</g>
			<g>
				<path style="fill:#FFFFFF;" d="M294.37,394.82c0.77-0.32,1.49-0.77,2.1-1.34c0.17-0.15,0.34-0.34,0.36-0.56
					c0.02-0.28-0.2-0.53-0.46-0.62c-0.26-0.09-0.56-0.03-0.82,0.07C294.83,392.63,294.25,393.24,294.37,394.82z"/>
			</g>
			<g>
				<path d="M320.19,373.03c-2.67-2.28-7.11-1.22-9.34,1.49c-2.23,2.71-2.66,6.5-2.32,9.99c0.44,4.51,1.99,8.83,3.12,13.22
					c1.13,4.39,1.84,9.06,0.6,13.42c-1.69,5.94-6.86,10.84-6.89,17.01c-0.01,2.07,0.68,4.27,2.31,5.55
					c1.94,1.52,4.81,1.39,6.98,0.23c2.17-1.16,3.75-3.18,5.05-5.28c4.01-6.5,5.81-14.33,5.04-21.92c-0.41-4.08-1.54-8.12-1.23-12.21
					c0.19-2.57,0.95-5.06,1.22-7.62C325.3,381.36,323.34,375.72,320.19,373.03z"/>
			</g>
			<g>
				<path d="M298.72,380.38c0.92,0.85,0.77,2.37,0.26,3.51c-0.51,1.14-1.34,2.17-1.59,3.4c-0.28,1.39,0.27,2.93,1.38,3.82
					c0.34,0.28,0.82,0.5,1.22,0.3c0.24-0.12,0.38-0.38,0.5-0.62C302.21,387.23,301.64,382.68,298.72,380.38z"/>
			</g>
		</g>
		<g>
			<g>
				<path style="fill:#FFAF2E;" d="M72.97,192.29c-2.34,7.71-1.76,14.37,0.76,22.02c2.52,7.65,9.19,15.49,15.81,19.82
					c2.46,0.58,3.02,1.52,5.97,1.03C81.85,225.27,71.47,207.21,72.97,192.29z"/>
			</g>
			<g>
				<path d="M72.97,200.16c-1.07,10.86,4.88,21.18,12.06,28.59c0.9,0.93,9.43,6.37,10.65,6.54c1.79,0.24,17.55-10.29,27.35-23.67
					c1.86-2.54-0.78-8.42-1.8-11.51c-2.42-7.36-7.49-13.65-13.92-16.77c-6.43-3.12-14.16-2.92-20.3,0.85
					C80.87,187.97,73.92,190.57,72.97,200.16z"/>
			</g>
			<g>
				<path style="fill:#FFB387;" d="M97.46,226.3c5.06,6.25,9.73,10.97,12.31,14.75c14.13,20.67,15.81-20.16,12.59-27.12
					c-1.56,0.97-2.94,0.59-4.21-0.73c-1.27-1.32-1.88-3.13-2.48-4.86c-0.6-1.73-1.28-3.53-2.64-4.76c-2.42-2.2-6.26-1.92-9.23-0.56
					c-4.2,1.92-7.46,5.77-8.68,10.22C93.9,217.68,94.6,222.77,97.46,226.3z"/>
			</g>
			<g>
				<path d="M111.05,242.07c1.13,2.03,4.17,2.28,6.14,1.04s3.05-3.49,3.79-5.69c2.03-6.04,2.26-12.51,2.48-18.87
					c0.54,7.1,0.3,14.27-0.71,21.32c-0.41,2.87-1.29,6.16-3.95,7.31c-1.79,0.77-3.96,0.27-5.5-0.93
					C111.75,245.04,110.76,243.25,111.05,242.07z"/>
			</g>
			<g>
				<path d="M114.75,205.44c1.01,4.79,3.85,6.11,2,18.64c-0.35,2.38-2.63,5.88-4.57,7.39c-1.31,1.02-3.09,1.32-4.76,1.16
					c-1.67-0.16-3.27-0.73-4.84-1.3c-1.9-0.69-4.1-1.75-4.3-3.7c-0.15-1.48,0.97-2.77,2.02-3.86
					C104.84,219.04,110.51,209.4,114.75,205.44z"/>
			</g>
			<g>
				<path style="fill:#FFB387;" d="M84.03,187.59c-9.19,5.82-10.18,16.97-3.59,25.62c2.13,2.79,3.75,6.88,6.52,9.03
					c5.73,4.44,13.56,6.8,20.37,4.34c9.09-3.28,7.17-19,6.04-24.63c-1.07-5.31-3.66-10.49-7.98-13.77
					c-5.72-4.34-14.04-4.65-20.33-1.19C84.71,187.17,84.37,187.38,84.03,187.59z"/>
			</g>
			<g>
				<path style="fill:#F04741;" d="M90.37,201.69c0,0-0.61,9.11,2.14,9.11s3.62-0.42,3.76-2.76
					C96.4,205.69,90.37,201.69,90.37,201.69z"/>
			</g>
			<g>
				<path style="fill:#FFFFFF;" d="M91.73,214.52c3.57-2.14,6.92-4.95,10.61-6.74C103.77,215.83,97.14,218.73,91.73,214.52z"/>
			</g>
			<g>
				<circle cx="87.05" cy="204.73" r="2.19"/>
			</g>
			<g>
				<path d="M79.58,205.42c1.55-2.15,3.32-4.13,5.28-5.92c-0.85-0.77-2.2-0.8-3.21-0.26c-1.01,0.54-1.69,1.56-2.07,2.64
					C79.2,202.97,79.1,204.12,79.58,205.42z"/>
			</g>
			<g>
				<path d="M100.97,194.39c-1.77-0.16-3.55-0.31-5.32-0.47c-0.53-0.05-1.14-0.14-1.4-0.61c-0.35-0.63,0.27-1.39,0.93-1.66
					c1.01-0.41,2.18-0.23,3.16,0.22C99.32,192.32,100.17,193.05,100.97,194.39z"/>
			</g>
			<g>
				<circle cx="99.32" cy="197.56" r="2.19"/>
			</g>
			<g>
				<path d="M77.12,194.16c-1.16,1.87-1.89,3.99-2.13,6.18c-0.1,0.92-0.01,2.04,0.81,2.47c0.95,0.5,2.03-0.33,2.81-1.07
					c7.03-6.7,16.4-10.89,26.31-11.32c2.87,5.8,5.75,11.6,8.62,17.39c0.91,1.84,1.91,3.77,3.68,4.81c1.29,0.75,3.07,0.87,4.16-0.15
					c0.78-0.72,1.05-1.87,0.95-2.92c-0.1-1.06-0.51-2.05-0.93-3.03c-1.17-2.75-2.36-5.5-3.57-8.23c-1.14-2.57-2.3-5.14-3.94-7.42
					c-4.3-6-11.87-9.5-19.22-8.87C87.33,182.62,81.13,187.71,77.12,194.16z"/>
			</g>
			<g>
				<path style="fill:#FFAF2E;" d="M70.19,202.62c4.81-7.61,12.47-13.38,21.11-15.9c2.55-0.74,5.23-1.22,7.85-0.83
					c5.82,0.87,11.41-1.32,20.68,27.28c1.42,0.64,5.57-0.28,3.85-6.71c-2.68-10.08-6.99-16.37-8.46-18.12
					c-1.54-1.84-3.09-3.69-4.89-5.29c-7.01-6.21-17.78-7.76-26.26-3.8S69.89,192.48,70.19,202.62z"/>
			</g>
			<g>
				<path style="fill:#F04741;" d="M71.14,194.82c-2.01,3.09-2.97,6.85-2.68,10.53c0.02,0.31,0.07,0.63,0.27,0.86
					c0.3,0.33,0.85,0.31,1.23,0.08c0.38-0.23,0.64-0.61,0.88-0.98c6.91-10.29,18.47-17.33,30.79-18.74
					c0.68-0.08,1.51-0.27,1.67-0.93c0.21-0.86-0.92-1.39-1.8-1.52C90.48,182.49,77.21,185.5,71.14,194.82z"/>
			</g>
			<g>
				<g>
					<g>
						<path style="fill:#FFFFFF;" d="M110.76,192.52c4.35,4,7.38,9.37,8.49,15.02c-11.53,6.15-23.28,13.73-34.95,22.58
							c-5.11-4.41-8.93-9.73-11.64-16.2c2.43-6.78,7.94-12.74,15.22-16.42C94.1,194.34,101.59,192.71,110.76,192.52 M111.51,190.51
							c-8.44,0.1-17.03,1.4-24.53,5.2c-7.51,3.8-13.85,10.27-16.45,18.27c3.21,7.97,7.91,14.01,13.72,18.69
							c11.75-9,24.13-17.18,37.21-24.04C120.5,201.77,116.86,195.17,111.51,190.51L111.51,190.51z"/>
					</g>
				</g>
				<g>
					<path style="fill:#FFFFFF;" d="M76.71,225.86c-0.09,0-0.181-0.012-0.271-0.038c-0.532-0.149-0.841-0.702-0.691-1.233
						c2.511-8.917,8.444-16.872,16.278-21.824c8.071-5.103,17.059-6.995,25.992-5.471c0.544,0.093,0.911,0.609,0.818,1.154
						c-0.092,0.545-0.611,0.911-1.154,0.818c-8.438-1.441-16.94,0.355-24.588,5.189c-7.421,4.692-13.042,12.228-15.422,20.676
						C77.548,225.572,77.147,225.86,76.71,225.86z"/>
				</g>
				<g>
					<path style="fill:#FFFFFF;" d="M93.979,226.501c-0.433,0-0.832-0.284-0.96-0.721c-1.6-5.497-3.533-10.006-5.748-13.403
						c-2.818-4.308-6.78-7.028-10.868-7.461c-0.549-0.059-0.947-0.551-0.889-1.1c0.059-0.549,0.547-0.946,1.1-0.889
						c4.688,0.498,9.182,3.544,12.332,8.357c2.323,3.563,4.339,8.252,5.993,13.938c0.154,0.53-0.15,1.085-0.681,1.239
						C94.166,226.487,94.072,226.501,93.979,226.501z"/>
				</g>
				<g>
					<path style="fill:#FFFFFF;" d="M104.96,219.25c-0.282,0-0.563-0.119-0.76-0.35c-3.088-3.608-6.281-7.338-8.501-11.686
						c-2.523-4.943-3.305-10.085-2.199-14.479c0.134-0.536,0.679-0.861,1.214-0.725c0.536,0.135,0.86,0.678,0.726,1.214
						c-0.987,3.924-0.263,8.569,2.041,13.081c2.112,4.136,5.227,7.775,8.239,11.294c0.359,0.42,0.31,1.051-0.109,1.41
						C105.422,219.171,105.19,219.25,104.96,219.25z"/>
				</g>
			</g>
		</g>
		<g>
			<g>
				<path style="fill:#28738F;" d="M208.15,265.93c-10.74,4.54-19.73,12.52-27.04,21.6s-13.07,19.28-18.8,29.43
					c-3.5,6.2-7,12.4-10.5,18.6c-2.7,4.79-5.49,9.98-4.95,15.45c0.66,6.65,6.01,11.74,11.04,16.14
					c19.66,17.23,39.74,33.98,59.3,49.78c-2.96,9.23-9.71,17.18-18.34,21.6c-1.58,0.81-3.52,2.02-3.23,3.78
					c0.32,1.93,2.92,2.28,4.87,2.16c8.01-0.51,16.57-1.22,22.84-6.22c2.41-1.92,4.4-4.43,7.17-5.78c3.98-1.93,9.43-1.47,11.95-5.1
					c1.57-2.27,1.28-5.43-0.01-7.87c-1.29-2.44-3.41-4.32-5.48-6.14c-5.48-4.81-10.96-9.63-17.86-16.39
					c-6.44-12.2-15.23-23.17-26.6-32.38c-0.32-1.77-1.08-3.46-1.64-5.11c13.8-18.38,28.44-36.13,42.92-54.32
					c4.49-6.11,6.8-13.89,5.86-21.41c-0.94-7.52-5.25-14.66-11.74-18.57C221.42,261.26,214.51,263.25,208.15,265.93z"/>
			</g>
			<g>
				<path style="fill:#FFAF2E;" d="M195.17,273.59c4.44,2.12,6.65,14.23-0.9,22.92c-7.32,8.42-14.52,16.27-22.15,24.4
					c-1.69,1.8-3.46,3.78-3.74,6.23c-0.27,2.45,1.85,5.26,4.24,4.65c-0.79,2.58-4.02,4.1-6.51,3.05c-0.29,2.25,0.6,4.61,2.3,6.11
					c-3.07,0.06-5.66,3.3-5.05,6.31c0.61,3.01,4.25,4.98,7.11,3.85c-3.6,3.04-1.67,8.87,0.72,12.93
					c3.14,5.33,6.65,10.43,10.49,15.28c7.29,9.18,15.73,17.37,24.15,25.53c5.22,5.06,10.45,10.12,15.67,15.18
					c0.76,0.74,1.69,1.54,2.74,1.37c2.29-0.37,1.53-3.87,0.18-5.75c-12.23-16.97-25.84-32.94-40.65-47.71
					c-3.27-3.26-6.8-6.87-7.26-11.47c-0.21-2.16,0.24-4.57-1.02-6.34c-1.07-1.5-3.01-2.03-4.73-2.7c-1.72-0.67-3.55-1.91-3.63-3.75
					s3.03-3.04,3.58-1.28c-0.69-1.34-1.37-2.69-2.06-4.03c2.03-1.51,4.61-2.26,7.13-2.08c2.48-2.22,1.24-7.11-2-7.88
					c6.13-5.85,12.26-11.69,18.39-17.54c6.58-6.27,13.28-12.71,17.4-20.82c4.11-8.11,4.44-16.81-0.32-24.56
					C205.51,266.92,198.64,270.92,195.17,273.59z"/>
			</g>
			<g>
				<path d="M164.16,339.25c5.84,4,12.06,7.44,18.55,10.27c0.84,0.36,1.92,0.68,2.58,0.05c0.51-0.49,0.49-1.31,0.3-2
					c-0.5-1.86-1.88-3.38-3.48-4.45c-1.6-1.06-3.43-1.73-5.25-2.38C172.77,339.28,168.41,337.78,164.16,339.25z"/>
			</g>
			<g>
				<path d="M166.28,352.19c4.95-1.07,10.17-0.92,15.04,0.46c0.79,0.22,1.7,0.64,1.79,1.45c0.05,0.54-0.32,1.05-0.8,1.31
					c-0.47,0.26-1.03,0.32-1.57,0.36C175.66,356.15,170.48,354.96,166.28,352.19z"/>
			</g>
			<g>
				<path d="M147.09,346.6c10.04-2.14,19.47,8.81,26.08,14.53c13.96,12.08,26.75,29.67,40.72,41.75c3.46,3,7.03,6.13,8.92,10.31
					c1.88,4.18,1.57,9.71-1.95,12.64c-21.65-12.17-41.01-28.4-56.75-47.61C157.65,370.35,148.29,356.01,147.09,346.6z"/>
			</g>
			<g>
				<path d="M180.42,380.66c3.34-3.12,6.92-5.97,10.71-8.52c2.07-1.39,4.34-2.73,6.83-2.7c3.97,0.04,6.98,3.44,9.43,6.56
					c0.46,0.59,0.95,1.29,0.78,2.02c-0.12,0.5-0.54,0.87-0.94,1.2c-3.52,2.92-7.17,5.69-10.92,8.3c-2.12,1.47-4.46,2.95-7.04,2.83
					c-2.19-0.11-4.18-1.39-5.62-3.04C182.21,385.66,181.24,383.66,180.42,380.66z"/>
			</g>
			<g>
				<path d="M202.46,409.71c4.15-3.78,8.3-7.55,12.45-11.33c1.56-1.42,3.18-2.87,5.17-3.54c2-0.67,4.49-0.34,5.76,1.33
					c1.06,1.4,1.03,3.4,0.36,5.02c-0.66,1.63-1.86,2.97-3.04,4.27c-1.3,1.45-2.61,2.89-3.91,4.34c-1.49,1.65-3.05,3.35-5.1,4.19
					c-2.32,0.95-5,0.66-7.33-0.25C204.49,412.83,202.43,411.35,202.46,409.71z"/>
			</g>
			<g>
				<path d="M191.7,359.46c-1.88-2.03-3.19-4.58-3.74-7.3c-0.14-0.7-0.22-1.45,0.1-2.09c0.39-0.78,1.32-1.17,2.19-1.15
					c2.15,0.04,3.79,2.25,3.84,4.4C194.14,355.48,192.98,357.48,191.7,359.46z"/>
			</g>
			<g>
				<path d="M179.39,336.62c4.51,4.04,9.47,7.58,14.77,10.52c0.48-2.04-0.93-4.02-2.42-5.49
					C188.72,338.64,184.99,336.35,179.39,336.62z"/>
			</g>
			<g>
				<path d="M163.96,332.41c6.51-1.09,13.02-2.18,19.53-3.26c-2.5-2.89-6.9-3.48-10.57-2.45S166.1,330.1,163.96,332.41z"/>
			</g>
			<g>
				<path d="M177.45,309.78c11.95-1.08,24.17-3.07,34.46-9.22c1.28-0.76,2.65-1.81,2.7-3.3c0.06-1.62-1.62-2.86-3.23-2.95
					s-3.15,0.66-4.59,1.38C196.05,301.06,185.32,306.42,177.45,309.78z"/>
			</g>
			<g>
				<path style="fill:#9E5E45;" d="M202.82,429.39c5.12-2.53,12.2,1.85,16.49-2.42c1.64-1.63,2.2-4.03,1.85-6.32
					c-0.63-4.14-3.52-7.16-6.31-10.04l-48.68-50.17c-7.86-8.1-17.64-14.18-28.52-17.17c-0.63-0.17-1.26-0.34-1.9-0.49
					c-2.66-0.64-5.5-1.11-8.03,0.26c-1.26,0.68-2.24,1.85-2.49,3.26c-0.54,3.06,2.23,5.08,4.48,6.89
					c5.16,4.18,8.93,10.04,9.94,16.89C157.92,392.83,179.43,412.99,202.82,429.39z"/>
			</g>
			<g>
				<path style="fill:#C89079;" d="M153.62,377.47c1.15-4.59,4.82-8.06,8.39-11.16c0.8-0.7,1.64-1.41,2.66-1.71
					c1.02-0.3,2.28-0.06,2.86,0.83c0.62,0.95,0.27,2.22-0.23,3.25C165.06,373.3,160.18,376.52,153.62,377.47z"/>
			</g>
			<g>
				<path style="fill:#C89079;" d="M163.8,380.95c1.91-2.28,4.07-4.36,6.42-6.18c1.14-0.88,2.71-1.72,3.93-0.95
					c0.92,0.58,1.14,1.84,1.04,2.92c-0.21,2.2-1.44,4.28-3.27,5.52C170.09,383.5,167.71,383.88,163.8,380.95z"/>
			</g>
			<g>
				<path style="fill:#C89079;" d="M146.04,364.29c1.7-3.04,3.5-6.19,6.4-8.12c1.28-0.85,3.13-1.38,4.27-0.35
					c0.62,0.56,0.85,1.47,0.74,2.3c-0.11,0.83-0.51,1.59-1,2.28C154.71,362.87,151.81,364.51,146.04,364.29z"/>
			</g>
			<g>
				<path style="fill:#C89079;" d="M178.71,387.36c4.11-0.41,7.6,2.77,10.49,5.72c7.07,7.22,14.14,14.45,21.21,21.67
					c1.38,1.41,2.88,3.21,2.4,5.12c-0.44,1.77-2.5,2.74-4.31,2.55c-1.81-0.19-3.41-1.22-4.89-2.28
					c-9.21-6.58-17.01-15.12-22.72-24.89C179.13,392.27,177.64,388.23,178.71,387.36z"/>
			</g>
			<g>
				<path style="fill:#C89079;" d="M144.59,352.91c-5.03,0.02-10.38-0.05-14.63-2.74c-0.9-0.57-1.81-1.43-1.72-2.49
					c0.12-1.36,1.76-1.99,3.12-2.14C137.17,344.88,143.25,347.43,144.59,352.91z"/>
			</g>
			<g>
				<path style="fill:#C89079;" d="M173.34,391.68c-1.39-0.47-2.86,0.49-3.84,1.58c-0.86,0.95-1.59,2.36-0.92,3.45
					c0.54,0.88,1.74,1.07,2.76,0.98c1.03-0.09,2.07-0.37,3.07-0.1c1.47,0.39,2.37,1.84,3.55,2.81c0.35,0.28,0.79,0.54,1.22,0.42
					c0.39-0.11,0.64-0.51,0.7-0.91c0.05-0.4-0.06-0.81-0.19-1.19C178.56,395.34,176,392.58,173.34,391.68z"/>
			</g>
			<g>
				<path d="M145.19,376.09c5.4-6.07,10.8-12.13,16.21-18.2c0.45-0.5,0.98-1.05,1.65-1.06c0.93-0.02,1.57,1.06,1.45,1.99
					c-0.12,0.92-0.75,1.69-1.37,2.38C158.26,366.64,152.55,371.32,145.19,376.09z"/>
			</g>
			<g>
				<path d="M151.18,384.11c6.26-5.35,12.51-10.7,18.77-16.04c0.8-0.68,1.91-1.41,2.82-0.88c0.7,0.41,0.85,1.41,0.55,2.16
					c-0.3,0.75-0.94,1.31-1.56,1.83C165.44,376.45,158.49,380.95,151.18,384.11z"/>
			</g>
			<g>
				<path d="M158.04,391.03c7.05-4.81,14.1-9.61,21.14-14.42c0.59-0.4,1.31-0.82,1.96-0.54c0.9,0.37,0.87,1.69,0.44,2.56
					c-1.06,2.12-3.36,3.25-5.5,4.24C169.91,385.71,163.74,388.55,158.04,391.03z"/>
			</g>
			<g>
				<path style="fill:#FFAF2E;" d="M251.64,429.26c-3.61-5.26-7.92-10.04-12.79-14.16c-0.86-0.73-1.76-1.45-2.81-1.88
					c-1.05-0.43-2.28-0.54-3.3-0.04c0,1.45-0.31,2.9-1.04,4.15s-1.96,2.29-3.4,2.46c-1.09,0.12-2.22-0.26-3.26,0.07
					c-1.45,0.45-2.18,2.05-2.65,3.49c-0.48,1.44-0.99,3.06-2.33,3.79c-1.33,0.6-3.19,0.68-4.68-0.05c-2.31-1.88-6.26-1.65-9.17,0.27
					c-3.08,2.03-4.98,5.7-8.39,7.09c-2.01,0.81-4.31,0.72-6.28,1.63c-3.54,1.64-4.91,5.91-5.82,9.83
					c12.37,5.91,28.12,3.89,38.53-4.35c5.05-0.6,10.15-1.21,14.91-2.99C243.93,436.76,248.38,433.65,251.64,429.26z"/>
			</g>
			<g>
				<path style="fill:#FFFFFF;" d="M186.83,442.04c5.41,1.75,11.45,2.79,16.73,0.7s10.37-4.87,15.95-5.93
					c4.58-0.87,9.54-0.6,13.6-2.9c2.1-1.19,3.78-2.98,5.59-4.58c1.81-1.6,3.86-3.09,6.25-3.45c2.39-0.36,5.14,0.75,5.97,3.02
					c-2.54,4.61-7.37,7.55-12.35,9.24c-4.98,1.69-10.26,2.31-15.38,3.52c-11,2.59-26.12,10.2-36.35,4.52
					C185.04,445.18,185.57,443.48,186.83,442.04z"/>
			</g>
			<g>
				<path style="fill:#F04741;" d="M200.55,432.39c3.11,1.77,5.05,5.4,4.78,8.97c-0.07,0.88-0.41,1.92-1.27,2.13
					c-0.72,0.17-1.46-0.39-1.74-1.09c-0.28-0.7-0.2-1.47-0.09-2.21s0.22-1.5,0.03-2.22c-0.27-0.99-1.08-1.72-1.71-2.53
					C199.93,434.63,199.48,433.47,200.55,432.39z"/>
			</g>
			<g>
				<path style="fill:#FFFFFF;" d="M203.74,433.07c-0.69-0.76-1.26-1.65-1.66-2.6c-0.12-0.3-0.21-0.7,0.05-0.89
					c0.28-0.21,0.66,0.03,0.9,0.28c0.56,0.57,1.02,1.24,1.35,1.96c0.14,0.31,0.26,0.66,0.18,0.99
					C204.47,433.13,204.08,433.44,203.74,433.07z"/>
			</g>
			<g>
				<path style="fill:#FFFFFF;" d="M207.44,431.36c-1.37-1.16-2.24-2.9-2.34-4.69c-0.02-0.41,0.03-0.88,0.36-1.1
					c0.26-0.17,0.63-0.13,0.89,0.03c0.27,0.17,0.46,0.43,0.62,0.7C207.72,427.59,207.96,429.18,207.44,431.36z"/>
			</g>
			<g>
				<path style="fill:#FFFFFF;" d="M210.87,430.04c-0.73-1.13-1.22-2.41-1.42-3.74c-0.08-0.5-0.1-1.06,0.21-1.47
					c0.47-0.63,1.52-0.53,2.07,0.02c0.55,0.56,0.71,1.39,0.72,2.18C212.46,428.09,212.19,429.25,210.87,430.04z"/>
			</g>
			<g>
				<path style="fill:#FFFFFF;" d="M216.02,428.69c-0.61-0.49-1.26-1.02-1.54-1.75c-0.29-0.73-0.07-1.73,0.67-2.02
					c0.43-0.17,0.93-0.06,1.32,0.18c0.39,0.24,0.7,0.6,0.98,0.97c0.41,0.52,0.8,1.11,0.79,1.77
					C218.22,428.49,217.29,429.71,216.02,428.69z"/>
			</g>
			<g>
				<path d="M223.06,422.15c2.38,0.45,4.89,0.31,7.15-0.56c2.55-0.99,4.86-3.24,4.87-5.97c0-1.07-0.4-2.2-1.27-2.82
					c-0.87-0.63-2.24-0.58-2.9,0.27c-0.95,1.22-0.06,3.24-1.04,4.43c-0.5,0.61-1.36,0.8-2.15,0.83c-0.79,0.03-1.6-0.05-2.36,0.16
					C223.7,418.96,222.7,420.99,223.06,422.15z"/>
			</g>
			<g>
				<path d="M185.73,445.9c7.36,2.02,15.68,0.96,22.75-1.9c4.45-1.8,8.6-4.54,13.33-5.37c3.6-0.63,7.35-0.12,10.89-1.01
					c4.57-1.15,8.22-4.46,11.86-7.45c1.15-0.94,2.37-1.89,3.81-2.26s3.17-0.02,4.01,1.21c0.76,1.11,0.59,2.66-0.08,3.83
					c-0.67,1.17-1.75,2.04-2.82,2.84c-4.34,3.26-9.1,6.05-14.28,7.7c-2.86,0.91-6.23,1.39-8.75-0.45
					C214.11,450.95,197.18,452.23,185.73,445.9z"/>
			</g>
		</g>
		<g>
			<g>
				<path style="fill:#9E5E45;" d="M24.51,134.96c2.3-3.32,4.94-6.52,8.43-8.54c3.49-2.02,7.98-2.69,11.57-0.85
					c4.95,2.53,6.66,8.62,7.87,14.04c6.52,29.21,13.03,58.41,19.55,87.62c0.64,2.89,1.29,5.84,0.96,8.79
					c-0.33,2.94-1.83,5.92-5,7.73c0.93,3.61,1.87,7.25,2.1,10.98c0.22,3.73-0.32,7.59-3.39,10.95c-3.88-2.05-6.99-5.34-9.43-8.98
					c-2.44-3.65-4.26-7.66-6.22-12.73C40.42,208.42,31.52,172.4,24.51,134.96z"/>
			</g>
			<g>
				<path style="fill:#C89079;" d="M24.37,135.21c1.1-2.69,2.23-5.44,4.12-7.65c1.89-2.21,4.7-3.85,7.6-3.59
					c2.82,0.25,5.24,2.25,6.73,4.65c1.49,2.4,2.2,5.19,2.89,7.93c6.97,27.74,13.94,55.48,20.92,83.22c1.05,4.18,2.11,8.42,2,12.73
					s-1.54,8.76-4.75,11.63c-3.21,2.87-8.41,3.69-13.52,0.5C38.44,207.98,29.15,170.48,24.37,135.21z"/>
			</g>
			<g>
				<path d="M62.36,202.81c3.29,13.6,8.4,19.2,10.62,31.45c1.25,9.89-14.06,17.47-22.68,10.37
					C80.77,248.91,63.19,218.3,62.36,202.81z"/>
			</g>
			<g>
				<path d="M33.56,124.27c4.49-0.78,9.58-0.52,12.94,2.56c2.38,2.17,3.5,4.45,4.47,7.52c1.23,3.93,2.36,8.8,3.5,12.76
					c1.48,5.1,1.41,5.7,2.72,14.13c-2.65-8.91-4.26-17.66-6.9-26.57c-3.14-10.58-7.6-7.79-10.24-9.64c3.85,3.39,5.01,7.19,5,9.44
					C43.62,129.18,38.58,125.07,33.56,124.27z"/>
			</g>
			<g>
				<path style="fill:#FFB387;" d="M157.09,227.85c-0.38,2.81-1.74,5.36-3.31,7.73c-0.17,0.27-0.36,0.54-0.54,0.81
					c-0.02,0.11-0.03,0.22-0.05,0.33c-0.86,5.73-1.78,11.42-3.01,16.97c-2.02,9.12-4.88,17.84-9.7,25.63
					c-7.6,2.29-15,2.28-22.07,0.97c-7.08-1.32-13.86-3.9-20.39-6.92c-2.62-1.22-5.29-2.56-7.21-4.72c-1.92-2.16-2.97-5.34-1.87-8.02
					c1.1-2.67,4.8-4.18,7.11-2.44c9.71-0.86,19.04-1.91,28.37-2.96c-0.03-0.56-0.07-1.13-0.1-1.7c-0.48-7.33-1.18-15.36,1.04-22.91
					c2.39-8.13,9.1-15.63,17.57-16.17c5.59,0.1,8.98,1.54,11.25,4.04C156.44,220.99,157.53,224.51,157.09,227.85z"/>
			</g>
			<g>
				<path d="M124.17,253.28c6.9-1.63,14.32-1.19,20.96,1.24c1.08,0.4,2.2,0.85,3.36,0.73c1.88-0.19,3.29-2.01,3.29-3.81
					s-1.19-3.47-2.77-4.48c-1.57-1-3.48-1.42-5.36-1.58C136.27,244.72,128.64,247.84,124.17,253.28z"/>
			</g>
			<g>
				<path d="M128.94,266.55c-2.84-2.62-4.78-6.21-5.4-10.03c-0.06-0.34-0.1-0.72,0.07-1.03c0.29-0.56,1.06-0.61,1.69-0.56
					c2.54,0.21,5.03,1,7.23,2.29c0.85,0.5,1.75,1.24,1.73,2.22c-1.2,0.54-2.62,0.33-3.82-0.2s-2.24-1.36-3.32-2.12
					c-0.28-0.2-0.61-0.4-0.93-0.3c-0.35,0.11-0.52,0.54-0.45,0.9c0.07,0.36,0.31,0.67,0.54,0.95c1.38,1.73,2.76,3.45,4.15,5.18
					c0.42,0.53,0.87,1.2,0.64,1.84c-0.18,0.49-0.74,0.76-1.26,0.77C129.29,266.47,128.77,266.29,128.94,266.55z"/>
			</g>
			<g>
				<path style="fill:#F04741;" d="M50.3,253.74c-1.33-0.3-2.7-0.61-3.82-1.38c-1.13-0.77-1.97-2.11-1.75-3.45
					c0.33-2.02,2.72-2.96,4.76-3.03c3.32-0.12,6.55,1.06,9.86,1.37c3.31,0.31,7.15-0.56,8.82-3.98c4.15,0.82,8.34,1.65,12.19,3.41
					c3.85,1.75,7.38,4.54,9.38,7.67c2.69,0.37,5.33,1.16,7.62,2.12c0.1,3,0.19,6.04-0.53,8.96c-0.71,2.91-2.35,5.74-5.31,6.89
					c-1.6,0.23-3.21,0.46-4.7,0.42c-8.9,1.6-18.1,1.54-26.98-0.17c-1.58-0.3-3.18-0.67-4.52-1.55c-1.34-0.88-2.4-2.36-2.11-4.2
					c-1.32-0.37-2.44-1.38-2.94-2.66s-0.36-2.78,0.33-3.86c-1.03-0.93-1.63-2.31-1.62-3.69C48.99,255.21,49.62,253.84,50.3,253.74z"
					/>
			</g>
			<g>
				<path style="fill:#F7F7F7;" d="M67.77,251.62c-0.74,4.39-1.21,8.83-1.41,13.27c-0.05,1.02-0.05,2.14,0.62,2.94
					c0.74,0.87,2.02,1.07,3.19,1.21c2.92,0.34,5.85,0.69,8.77,1.03c1.12,0.13,2.4,0.21,3.21-0.53c0.76-0.7,0.76-1.84,0.72-2.85
					c-0.16-3.41-0.32-6.82-0.48-10.24c-0.04-0.91-0.1-1.87-0.59-2.66c-0.47-0.76-1.29-1.26-2.11-1.66
					C76.01,250.32,71.6,249.89,67.77,251.62z"/>
			</g>
			<g>
				<path style="fill:#28738F;" d="M150.91,254.08c-0.24-0.14-0.49-0.27-0.73-0.39c-7.8-4.04-17.77-4.13-25.86-0.16
					c-0.48-7.33-1.18-15.36,1.04-22.91c2.39-8.13,9.1-15.63,17.57-16.17c5.59,0.1,8.98,1.54,11.25,4.04
					c2.26,2.5,3.35,6.02,2.91,9.36C156.71,230.66,155.16,246.13,150.91,254.08z"/>
			</g>
			<g>
				<path d="M85.47,270.91c1.14-4.93,2.28-9.87,3.42-14.8c0.78,0.52,1.26,1.39,1.5,2.29s0.25,1.85,0.27,2.78
					c0.03,1.96,0.05,3.96-0.58,5.82C89.46,268.87,88.04,270.58,85.47,270.91z"/>
			</g>
			<g>
				<path d="M56.11,266.77c1.46-0.12,2.93-0.24,4.39-0.36c0.46-0.04,0.94-0.07,1.37,0.12s0.74,0.69,0.57,1.12
					C60.59,267.59,58.76,267.29,56.11,266.77z"/>
			</g>
			<g>
				<path d="M53.85,260.18c1.44-0.5,2.87-1,4.31-1.5c0.64-0.22,1.57-0.31,1.78,0.33c0.12,0.36-0.11,0.75-0.43,0.95
					c-0.32,0.2-0.7,0.25-1.08,0.28C56.85,260.4,55.26,260.43,53.85,260.18z"/>
			</g>
			<g>
				<path d="M132.85,223.48c4.43-3.48,11.39-3.2,15.53,0.62c0.41,0.38,0.81,0.8,1.34,0.99c0.52,0.19,1.22,0.07,1.47-0.42
					c0.21-0.42,0.05-0.92-0.16-1.34c-1.59-3.22-5.55-4.7-9.13-4.44C138.32,219.15,135.01,220.81,132.85,223.48z"/>
			</g>
			<g>
				<path d="M52.97,253.95c1.79-0.29,3.57-0.58,5.36-0.86c0.26-0.04,0.59-0.06,0.74,0.16c0.22,0.33-0.19,0.71-0.55,0.87
					C56.93,254.77,55.07,254.74,52.97,253.95z"/>
			</g>
			<g>
				<path d="M59,247.18c4.48,0.92,9.16,0.86,13.62-0.17c0.56-0.13,1.14-0.28,1.56-0.67c0.42-0.38,0.64-1.07,0.32-1.54
					c-0.25-0.38-0.73-0.52-1.17-0.63c-1.69-0.43-3.39-0.86-5.08-1.29c-1.04,1.56-2.75,2.58-4.55,3.13
					C61.9,246.56,60.01,246.69,59,247.18z"/>
			</g>
			<g>
				<path d="M67.49,250.97c-0.78,5.36-1.21,10.78-1.28,16.2c-0.01,0.7,0.04,1.51,0.59,1.95c0.35,0.28,0.82,0.33,1.27,0.37
					c4.08,0.38,8.15,0.76,12.23,1.14c0.51,0.05,1.05,0.09,1.53-0.1c0.48-0.19,0.87-0.71,0.74-1.21c-0.2-0.76-1.25-0.82-2.03-0.73
					c-2.4,0.27-4.82,0.31-7.23,0.1c-1.54-0.13-3.23-0.44-4.21-1.64c-1.41-1.72-0.67-4.27,0.13-6.35c4.23,1.01,8.67,1.16,12.96,0.44
					c-2.52-1.49-5.43-2.33-8.35-2.41c-1.75-0.05-3.92-0.07-4.67-1.65c-0.49-1.05-0.05-2.26,0.07-3.41
					C69.36,252.52,68.8,251.02,67.49,250.97z"/>
			</g>
			<g>
				<path d="M76.28,250.52c1.94,0.24,3.85,0.82,5.59,1.72c0.52,0.27,1.04,0.58,1.37,1.06c0.32,0.49,0.39,1.19,0,1.63
					c-0.39,0.44-1.25,0.36-1.43-0.2c-0.07-0.21-0.03-0.44-0.05-0.66c-0.07-0.83-0.9-1.36-1.63-1.76
					C78.63,251.51,77.14,250.7,76.28,250.52z"/>
			</g>
		</g>
	</g>
	<g>
		<g>
			<g>
				<rect x="445.84" y="276.26" style="fill:#28738F;" width="9" height="159.53"/>
			</g>
			<g>
				<rect x="466.84" y="276.26" style="fill:#28738F;" width="9" height="159.53"/>
			</g>
			<g>
				<rect x="466.84" y="276.26" width="9" height="13.51"/>
			</g>
			<g>
				<path style="fill:#F04741;" d="M428.56,277.27L428.56,277.27c0-2.49,2.01-4.5,4.5-4.5h35.5c2.49,0,4.5,2.01,4.5,4.5l0,0
					c0,2.49-2.01,4.5-4.5,4.5h-35.5C430.58,281.77,428.56,279.75,428.56,277.27z"/>
			</g>
			<g>
				<rect x="425.81" y="276.26" style="fill:#28738F;" width="9" height="159.53"/>
			</g>
			<g>
				<rect x="445.84" y="388.29" width="9" height="47.5"/>
			</g>
			<g>
				<rect x="445.84" y="281.77" width="9" height="8"/>
			</g>
			<g>
				<rect x="466.84" y="388.29" width="9" height="47.5"/>
			</g>
			<g>
				<rect x="425.81" y="388.29" width="9" height="47.5"/>
			</g>
			<g>
				<rect x="445.83" y="326.29" style="fill:#C89079;" width="9" height="47.5"/>
			</g>
			<g>
				<rect x="466.83" y="326.29" style="fill:#C89079;" width="9" height="47.5"/>
			</g>
			<g>
				<rect x="425.79" y="326.29" style="fill:#C89079;" width="9" height="47.5"/>
			</g>
		</g>
		<g>
			<g>
				<g>
					<path d="M338.54,326.88c4.21-1.43,9.01-1.67,13.01,0.28c4,1.95,6.91,6.41,6.2,10.8c-0.54,3.36-3.16,6.24-6.37,7.38
						c-3.21,1.14-6.9,0.63-9.85-1.08c-2.75-1.6-4.93-4.27-5.65-7.37C335.16,333.79,335.99,330.3,338.54,326.88z"/>
				</g>
				<g>
					<path style="fill:#FFAF2E;" d="M353.69,228.48c-7.55,32.69-9.83,66.59-5.84,99.05c16.9,35.63,44.46,66.12,78.17,86.25
						c4.68,2.08,10.72,0.45,13.72-3.7c3.01-4.15,2.67-10.39-0.76-14.19c-1.13-1.25-2.59-2.26-4.24-2.57
						c-1.65-0.31-3.51,0.18-6.86,1.25c0.47-1.3,0.16-2.86-0.78-3.88s-2.46-1.46-4.74-2.4c-10.78-21.51-23.89-41.86-39.52-61.54
						c2.26-23.22,2.64-46.62,1.13-69.91c-0.52-8.08-1.36-16.43-5.31-23.5C374.71,226.28,366.83,220.79,353.69,228.48z"/>
				</g>
				<g>
					<path d="M363.09,297.58c-6.25-10.36-7.33-23.68-2.83-34.91c0.55-1.38,1.24-2.8,2.46-3.65c1.22-0.86,3.11-0.92,4.05,0.24
						c0.53,0.66,0.66,1.55,0.74,2.4C368.7,273.26,366.89,285.17,363.09,297.58z"/>
				</g>
				<g>
					<path d="M364.36,303.97c-1.11,4.6-5.35,7.63-9.09,10.54c-3.74,2.91-8.9,7.64-8.52,12.36c0.21,2.7,1.1,4.92,2.63,7.16
						c3.89,5.7,9.83,10.78,13.72,16.48c5.84,8.55,12.03,17.44,21.19,22.27c3.42,1.8,7.95,2.85,10.9,0.36
						c2.22-1.87,2.71-5.07,2.79-7.97c0.11-4.52-0.42-9.06-1.59-13.43c-2.4-9-7.39-17.07-12.68-24.73
						C378.08,318.86,372.04,310.99,364.36,303.97z"/>
				</g>
				<g>
					<path d="M383.67,349.52c15.51,20.1,31.03,40.21,46.54,60.31c0.69,0.9,1.43,2.04,0.98,3.09c-0.74,1.71-3.31,0.95-4.85-0.09
						c-9.47-6.38-18.34-13.64-26.48-21.64c-5.23-5.15-10.22-10.7-13.52-17.27C383.05,367.35,381.57,359.62,383.67,349.52z"/>
				</g>
				<g>
					<path d="M392,370.36c4.07-4.88,8.14-9.77,12.22-14.65c0.79-0.95,1.7-1.97,2.92-2.16c1.72-0.27,3.18,1.16,4.33,2.47
						c0.97,1.11,1.99,2.31,2.18,3.78c0.23,1.84-0.89,3.54-1.96,5.05c-2.51,3.54-5.01,7.09-7.52,10.63
						c-0.76,1.07-1.64,2.22-2.92,2.49c-1.64,0.34-3.16-0.9-4.3-2.13C395.15,373.88,393.56,371.74,392,370.36z"/>
				</g>
				<g>
					<path d="M404.87,401.02c4.11-4.71,8.22-9.42,12.33-14.13c0.99-1.14,2.02-2.3,3.34-3.02c1.25-0.68,2.98-0.83,3.93,0.22
						c1.2,1.33,0.33,3.43-0.58,4.98c-2.11,3.59-4.23,7.19-6.34,10.78c-0.7,1.19-1.45,2.43-2.65,3.1c-1.52,0.85-3.48,0.58-5.01-0.25
						C408.36,401.87,407.14,400.57,404.87,401.02z"/>
				</g>
				<g>
					<path style="fill:#9E5E45;" d="M338.51,326.88c-4.85,4.06-5.82,11.42-3.91,17.45s6.16,11,10.47,15.62
						c21.23,22.79,46.68,41.64,74.52,54.61c4.23,3.68,8.47,7.35,12.7,11.03c1.72-2.84,1.4-6.56,0.01-9.58
						c-1.39-3.02-3.72-5.49-6.01-7.91c-14.77-15.61-29.54-31.21-44.32-46.82c-6.79-7.18-13.59-14.35-20.38-21.53
						c-2.14-2.26-4.43-4.62-7.44-5.43c-2.23-0.61-4.6-0.28-6.9-0.1c-2.31,0.18-4.76,0.19-6.77-0.96
						C338.48,332.11,337.16,329.45,338.51,326.88z"/>
				</g>
				<g>
					<path style="fill:#C89079;" d="M417.39,404.14c-3.36-4.55-7.25-8.72-11.56-12.38c-1.32-1.12-2.82-2.25-4.55-2.29
						c-2.03-0.04-3.92,1.7-4.11,3.73c-0.18,2.02,1.33,4.05,3.31,4.5c1.51,0.34,3.15-0.13,4.62,0.34c1.34,0.43,2.33,1.59,3.03,2.81
						c0.7,1.22,1.19,2.57,1.96,3.75s1.9,2.24,3.3,2.44C414.8,407.25,416.4,406.3,417.39,404.14z"/>
				</g>
				<g>
					<path style="fill:#C89079;" d="M337.8,336.34c1,1.89,2.82,3.33,4.88,3.87c1.55,0.41,3.37,0.41,4.45,1.59
						c0.79,0.87,0.94,2.12,1.05,3.29c0.16,1.73,0.18,3.81-1.25,4.81c-0.77,0.54-1.81,0.6-2.72,0.34c-0.91-0.26-1.71-0.79-2.47-1.36
						c-1.72-1.29-3.28-2.83-4.37-4.69C336.28,342.34,335.69,340.15,337.8,336.34z"/>
				</g>
				<g>
					<path style="fill:#F04741;" d="M421.65,417.86c-1.83,6.75-4.63,13.29-8.28,19.35c-1.48,2.46-3.13,4.93-3.62,7.71
						c-0.48,2.78,0.61,6.02,2.67,6.91c5.06,1.31,10.05-2.68,13.98-6.36c7.93-7.42,15.86-14.84,23.79-22.26
						c4.4-4.12,9.08-8.74,9.34-14.3c-1.38-1.98-3.94-3.07-6.09-3.21c-4.47-1.68-8.94-3.37-13.56-5.45
						c-0.37,3.99-0.99,8.45-4.16,11.05C431.74,414.58,423.05,412.73,421.65,417.86z"/>
				</g>
				<g>
					<path style="fill:#FFFFFF;" d="M430.12,441.03c-0.69-2.69-1.39-5.41-1.47-8.19c-0.08-2.78,0.5-5.66,2.16-7.89
						c1.45-1.95,3.59-3.26,5.23-5.06c2.93-3.22,3.99-8.03,2.62-12.26c0.17-2.61,0.62-5.2,1.19-7.28c1.68-0.77,3.74,0.43,4.56,2.09
						s0.75,3.6,0.65,5.45c-0.2,3.83-0.42,7.76-2.04,11.24c-0.92,1.97-2.27,3.75-2.95,5.82c-0.68,2.07-0.49,4.67,1.23,6
						C438.56,435.51,435.14,439.66,430.12,441.03z"/>
				</g>
				<g>
					<path style="fill:#FFFFFF;" d="M415.52,429.5c1.02-0.43,2.21-0.46,3.26-0.07c0.34,0.13,0.7,0.33,0.81,0.68
						c0.11,0.34-0.07,0.73-0.36,0.94c-0.29,0.21-0.66,0.27-1.02,0.26C417.05,431.26,415.97,430.4,415.52,429.5z"/>
				</g>
				<g>
					<path style="fill:#FFFFFF;" d="M417.93,425.14c0.92-0.26,1.89-0.33,2.84-0.22c0.28,0.03,0.59,0.1,0.76,0.33
						c0.18,0.25,0.11,0.63-0.1,0.86c-0.21,0.23-0.53,0.34-0.83,0.38C419.59,426.64,418.52,426.17,417.93,425.14z"/>
				</g>
				<g>
					<path style="fill:#FFFFFF;" d="M419.86,419.67c0.61-0.16,1.23-0.32,1.86-0.24c0.63,0.08,1.25,0.46,1.43,1.06
						c0.2,0.69-0.29,1.46-0.97,1.68s-1.46-0.07-1.95-0.6C419.74,421.04,419.53,420.3,419.86,419.67z"/>
				</g>
				<g>
					<path style="fill:#FFFFFF;" d="M421.36,416.61c0.67-0.36,1.4-0.73,2.16-0.68c0.76,0.05,1.53,0.73,1.38,1.48
						c-0.14,0.69-0.97,1.05-1.67,0.92C422.53,418.2,421.97,417.74,421.36,416.61z"/>
				</g>
				<g>
					<path d="M410.82,450.84c6.64-0.18,12.37-4.71,16.71-9.73c4.34-5.03,7.88-10.81,13.01-15.03c3.29-2.71,7.15-4.72,10.15-7.74
						c3-3.03,5.05-7.6,3.54-12.04c1.13-1.7,3.78-1.91,5.45-0.72c1.66,1.19,2.38,3.39,2.22,5.43c-0.15,2.04-1.05,3.95-2.06,5.72
						c-4.94,8.61-12.92,14.99-20.71,21.15c-3.57,2.82-7.14,5.65-10.71,8.47c-2.66,2.1-5.38,4.24-8.59,5.35
						C416.62,452.79,412.79,452.69,410.82,450.84z"/>
				</g>
			</g>
			<g>
				<g>
					<path style="fill:#FFAF2E;" d="M415.47,228.02c10.87,12.91,13.08,32.45,5.37,47.46c-7.17,13.96-21.46,23.21-27.7,36.81
						c0.25,1.64,0.51,3.29,0.76,4.93c-1.45,1.02-2.9,2.04-3.89,3.57c2.42,2.92,1.8,7.84-0.39,10.68
						c-0.45,32.15-0.89,64.29-0.17,95.86c0.35,1.77-0.55,3.61-1.87,4.85c-1.32,1.24-3.01,1.99-4.66,2.72
						c-2.64,1.16-5.54,2.35-8.32,1.57c-3.96-1.12-6.5-5.96-9.77-9.18c-3.91-34.12-7.81-68.25-10.99-103.21
						c-1.09-5.69-0.33-11.73,1.88-17.9c5.71-12.27,5.28-26.35,6.66-39.81c1.38-13.46,5.58-28.04,16.99-35.32
						C389.92,224.32,403.86,225.81,415.47,228.02z"/>
				</g>
				<g>
					<path style="fill:#F04741;" d="M391.94,231.26c-6.25,24.23-13.17,48.28-20.76,72.13c-2.39,0.25-4.49,2.24-4.85,4.61
						c-0.36,2.37,1.04,4.91,3.14,6.07c-1.81,3.04-1.77,7.09,0.77,10.28c-3.43,27.75-2.45,56.05,3.39,83.7
						c1.98,0.42,3.95,0.84,6.76,0.52c0.39-26.71,0.79-53.42,1.96-80.99c-3.82-1.61-5.75-6.65-3.16-10.17c-2-1.82-2.46-5.11-1.02-7.4
						c1.43-2.29,4.59-3.32,7.1-3.57c-2.01-1.22-3.16-3.72-2.49-5.48c12.21-21.98,19.19-46.83,20.09-72.22
						C399.64,229.42,396.42,230.1,391.94,231.26z"/>
				</g>
				<g>
					<path d="M384.62,317.86c-6.41-0.38-12.77-1.76-18.76-4.06c3.44-2.49,7.65-4.17,11.87-3.74
						C381.95,310.5,386.05,313.41,384.62,317.86z"/>
				</g>
				<g>
					<path d="M364.48,343.58c18.04,22.33,24,52.51,22.19,81.16c-0.26,4.07-1.02,8.73-4.53,10.81c-3.79,2.24-8.95-0.02-11.38-3.69
						c-2.43-3.67-2.84-8.28-3.18-12.67C365.61,393.96,363.64,368.63,364.48,343.58z"/>
				</g>
				<g>
					<path d="M375.41,381.55c4.57-1.14,9.13-2.27,13.7-3.41c0.64-0.16,1.38-0.3,1.92,0.09c0.54,0.39,0.63,1.15,0.68,1.81
						c0.15,2.35,0.28,4.69,0.37,7.04c0.04,0.95,0.04,2-0.56,2.74c-0.55,0.67-1.45,0.91-2.28,1.11c-3.1,0.75-6.2,1.51-9.3,2.26
						c-0.71,0.17-1.48,0.34-2.14,0.03c-0.72-0.34-1.08-1.15-1.33-1.91C375.51,388.43,375.18,385.34,375.41,381.55z"/>
				</g>
				<g>
					<path d="M377.39,408.4c4.94-0.76,9.88-1.52,14.81-2.28c0.42-0.06,0.91-0.11,1.2,0.2c0.25,0.26,0.25,0.65,0.23,1.01
						c-0.11,2.81-0.21,5.61-0.32,8.42c-0.03,0.77-0.08,1.58-0.54,2.19c-0.67,0.88-1.92,1-3.02,1.04c-4.64,0.19-9.29,0.37-13.93,0.56
						C375.82,415.92,375.8,412.3,377.39,408.4z"/>
				</g>
				<g>
					<path d="M398.18,243.19c-5.88,8.45-5.12,20.9,1.74,28.57c1.74-1.68,1.03-4.56,0.34-6.88
						C398.14,257.69,397.47,250.08,398.18,243.19z"/>
				</g>
				<g>
					<path d="M370.87,325.13c4.96,1.1,9.89,2.33,14.78,3.69c1.44,0.4,3.2,1.29,2.98,2.76c-0.15,0.98-1.24,1.6-2.23,1.57
						c-0.99-0.03-1.9-0.54-2.76-1.04C379.48,329.67,375.47,327.01,370.87,325.13z"/>
				</g>
				<g>
					<path style="fill:#9E5E45;" d="M360.62,428.82c-9.84-30.1-15.05-61.71-15.36-93.38c6.97,0.32,13.81,3.02,20.75,7.73
						c15.97,27.78,19.66,62.33,9.37,92.7C369.05,435.38,361.86,432.62,360.62,428.82z"/>
				</g>
				<g>
					<path style="fill:#C89079;" d="M363.82,385.9c3.72,0.75,7.78,1.71,10.03,4.76c2.17,2.93,2.01,6.9,1.76,10.54
						c-0.39,5.69-0.78,11.39-1.17,17.08c-0.12,1.72-0.24,3.46-0.88,5.06c-0.64,1.6-1.87,3.05-3.54,3.5
						c-2.72,0.73-5.39-1.4-7.01-3.71c-0.75-1.07-1.4-2.46-0.8-3.62c0.64-1.23,2.27-1.43,3.53-2c3.43-1.54,4.25-5.95,4.62-9.69
						c0.42-4.23,0.73-8.87-1.74-12.33c-0.99-1.39-2.36-2.46-3.41-3.8C364.16,390.35,363.45,388.55,363.82,385.9z"/>
				</g>
				<g>
					<path style="fill:#C89079;" d="M364.26,371.88c2.4-0.6,5-1.2,7.3-0.27c1.38,0.56,2.62,2.02,2.12,3.42
						c-0.4,1.12-1.71,1.62-2.9,1.75c-2.2,0.23-4.4-0.35-6.54-0.92c-0.83-0.22-1.69-0.46-2.39-0.96c-0.7-0.5-1.23-1.35-1.11-2.2
						C360.86,371.85,361.8,371.11,364.26,371.88z"/>
				</g>
				<g>
					<path style="fill:#C89079;" d="M351.47,360.37c5.21-0.21,10.44,0.05,15.61,0.78c0.55,0.08,1.11,0.17,1.57,0.48
						s0.77,0.9,0.58,1.42c-0.25,0.69-1.15,0.84-1.88,0.87c-3.65,0.18-7.3,0.36-10.95,0.54c-1.26,0.06-2.58,0.11-3.72-0.44
						C351.54,363.46,350.7,362.09,351.47,360.37z"/>
				</g>
				<g>
					<path style="fill:#C89079;" d="M350.7,340.54c2.04-0.29,4.14-0.34,6.13,0.21c1.99,0.55,3.84,1.73,4.92,3.49
						c1.08,1.76,1.25,4.11,0.19,5.87c-1.06,1.76-3.44,2.71-5.33,1.9c-0.6-0.25-1.15-0.68-1.4-1.28c-0.25-0.6-0.14-1.37,0.37-1.77
						c0.31-0.24,0.71-0.33,1.03-0.55c0.87-0.62,0.73-2.06-0.02-2.82s-1.86-1.02-2.91-1.21c-1.05-0.2-2.16-0.39-2.98-1.08
						C349.87,342.62,349.34,340.74,350.7,340.54z"/>
				</g>
				<g>
					<path d="M346.43,357.13c5.3-1.93,10.96-2.87,16.6-2.76c3.62,0.07,7.63,0.8,9.81,3.69c-1.33,1.11-3.25,1.03-4.97,0.89
						C360.93,358.39,353.99,357.83,346.43,357.13z"/>
				</g>
				<g>
					<path d="M347.49,367.78c8.17-1.82,16.7-2.07,24.96-0.73c0.69,0.11,1.41,0.25,1.96,0.68c0.55,0.43,0.86,1.25,0.51,1.85
						c-0.42,0.72-1.44,0.72-2.27,0.63C364.83,369.39,357.01,368.57,347.49,367.78z"/>
				</g>
				<g>
					<path d="M350.06,376.24c10.21-0.14,20.44,2.44,29.37,7.4c-0.77,0.85-1.98,1.19-3.13,1.15c-1.15-0.04-2.25-0.41-3.34-0.78
						C365.86,381.61,358.77,379.21,350.06,376.24z"/>
				</g>
				<g>
					<path style="fill:#F04741;" d="M363.74,430.46c-5.51,3.96-11.59,7.13-18,9.38c-2.6,0.91-5.33,1.72-7.41,3.53
						c-2.08,1.81-3.28,4.98-2.34,6.99c2.87,4.27,8.97,4.47,14.12,4.21c10.37-0.52,20.73-1.03,31.1-1.55
						c5.76-0.29,12.02-0.78,15.65-4.84c0.22-2.4-0.97-4.89-2.45-6.39c-2.21-4.18-4.42-8.36-6.5-12.94c-2.74,2.8-5.95,5.8-9.87,5.72
						C373.11,434.49,367.92,427.46,363.74,430.46z"/>
				</g>
				<g>
					<path style="fill:#FFFFFF;" d="M365.04,452.49c0.27-4.19,4.35-7.75,8.54-7.44c2.36,0.17,4.55,1.38,6.91,1.48
						c2.65,0.11,5.2-1.21,7.1-3.05s3.27-4.16,4.55-6.48c-1.52-2.8-3.02-5.58-4.38-8.42c-0.06,3.19,0,6.11-0.97,8.78
						c-0.96,2.67-3.19,5.08-6.01,5.41c-2.34,0.27-4.56-0.88-6.8-1.61c-4.33-1.41-9.3-1.19-13.17,1.21s-6.35,7.14-5.52,11.8
						C358.5,454.01,361.69,453.61,365.04,452.49z"/>
				</g>
				<g>
					<path d="M336.42,449.33c3.88,3.91,10.08,4.4,15.5,3.43c5.42-0.97,10.61-3.14,16.09-3.69c4.7-0.48,9.46,0.26,14.18-0.15
						c4.71-0.41,9.72-2.31,11.95-6.66c2.32-0.57,4.63,1.82,4.56,4.21c-0.07,2.39-1.93,4.44-4.1,5.45c-2.17,1.01-4.62,1.19-7.01,1.35
						c-12.25,0.83-24.49,1.66-36.74,2.49c-3.18,0.22-6.47,0.42-9.49-0.61C338.34,454.11,335.61,451.53,336.42,449.33z"/>
				</g>
				<g>
					<path style="fill:#FFFFFF;" d="M351.32,436.37c-0.03,0.69-0.04,1.41,0.29,2.01c0.33,0.6,1.15,0.99,1.73,0.62
						c0.62-0.4,0.55-1.41,0.04-1.94S352.1,436.34,351.32,436.37z"/>
				</g>
				<g>
					<path style="fill:#FFFFFF;" d="M354.59,434.29c-0.24,1.46,0.94,2.99,2.41,3.14C357.23,435.93,356.07,434.36,354.59,434.29z"/>
				</g>
				<g>
					<path style="fill:#FFFFFF;" d="M358.58,432.3c-0.12,0.92-0.22,1.93,0.26,2.72c0.48,0.79,1.8,1.1,2.32,0.33
						c0.34-0.51,0.15-1.24-0.27-1.69C360.47,433.21,359.88,432.97,358.58,432.3z"/>
				</g>
				<g>
					<path style="fill:#FFFFFF;" d="M362.69,430.4c-0.01,0.68-0.01,1.4,0.32,2c0.34,0.59,1.14,0.98,1.72,0.64
						c0.66-0.39,0.6-1.44,0.07-2C364.29,430.47,363.49,430.28,362.69,430.4z"/>
				</g>
			</g>
			<g>
				<g>
					<path style="fill:#FFB387;" d="M381.68,144.44c-11.55,6-24.7,7.84-37.16,5.2c-0.97,0.11,10.16-9.14,10.16-9.14l-0.37-30.25
						l24.55-2.84l2.1,19.01c0,0,13.78,4.1,13.99,4.44C390.55,136.11,386.3,142.04,381.68,144.44z"/>
				</g>
				<g>
					<path d="M355.68,115.78c2.18,2.99,4.58,5.98,7.84,7.73c3.26,1.75,7.61,1.96,10.46-0.41c1.78-1.49,2.73-3.72,3.61-5.87
						c0.14-0.34,0.28-0.71,0.21-1.07c-0.14-0.65-0.89-0.94-1.54-1.11C369.64,113.39,362.61,113.42,355.68,115.78z"/>
				</g>
				<g>
					<path d="M355.01,133.52c0.4,3.36,1.28,6.9,3.77,9.2c3.15,2.91,8.14,2.99,12.1,1.34c3.96-1.65,7.12-4.73,10.18-7.74
						c-3.48,4.63-7.63,8.75-12.27,12.2c-2.53,1.88-5.61,3.64-8.67,2.89c-3.3-0.81-5.28-4.31-5.78-7.67
						C353.83,140.36,354.42,136.94,355.01,133.52z"/>
				</g>
				<g>
					<path style="fill:#FFB387;" d="M348.47,95.19c0-8.78,4.45-20.94,19.64-20.94c17.44,0,18.3,14.64,18.81,22.46
						c0.6,9.11-3.68,23.7-19.02,24.27C349.88,121.66,348.47,103.46,348.47,95.19z"/>
				</g>
				<g>
					<circle cx="362.05" cy="91.81" r="2.44"/>
				</g>
				<g>
					<path d="M357.79,88.48c1.48-1.1,3.26-1.8,5.1-1.99c0.72-0.08,1.59-0.16,1.92-0.8c0.37-0.71-0.24-1.58-0.98-1.9
						c-1.2-0.52-2.65-0.11-3.68,0.69C359.12,85.28,358.41,86.42,357.79,88.48z"/>
				</g>
				<g>
					<path d="M381.99,89.49c-1.3-1.8-3.31-3.07-5.49-3.47c-0.59-0.11-1.27-0.2-1.61-0.71c-0.4-0.61,0.03-1.49,0.69-1.79
						c0.67-0.29,1.45-0.13,2.12,0.15C379.61,84.49,381.06,86.29,381.99,89.49z"/>
				</g>
				<g>
					<circle cx="378.12" cy="91.81" r="2.44"/>
				</g>
				<g>
					<path style="fill:#F04741;" d="M369.58,88.83c0,0-3.77,4.59-2.17,8.45c0.72,1.73,3.86,1.88,5.08,0.45
						C374.91,94.89,370.06,89.19,369.58,88.83z"/>
				</g>
				<g>
					<path style="fill:#FFFFFF;" d="M365.43,105.9c1.36-1.14,2.81-2.32,4.56-2.61c0.97-0.16,2-0.02,2.88,0.44
						c0.87,0.46,1.58,1.25,1.88,2.19L365.43,105.9z"/>
				</g>
			</g>
			<g>
				<g>
					<path style="fill:#F04741;" d="M354.61,133.66c-7.17,6.62-16.46,11.73-24.05,17.04c-8.53,18.1-7.88,31.62-4.08,54.72
						c-0.68,0.96-0.89,2.25-0.55,3.38c0.34,1.13,1.22,2.09,2.55,1.98c-1.35,3.35-1.22,7.27,0.41,10.58
						c0.22,2.38-0.03,4.81-0.19,6.86c5.68,2.95,12.26,4.16,17.83,3.35c0.09,3.13,0.45,6.26,0.87,9.83c7.6,3.47,16.52,2.73,24.5,0.27
						c7.98-2.46,15.36-6.53,23.08-9.72s16.12-5.52,24.45-4.35c1.64-3,1.72-6.81,0.11-10.1c2.08-3.7,2.59-8.25,1.31-13.75
						c1.46-18.38,0.14-36.97-3.9-54.96c-1.32-5.86-1.56-8.92-5.73-13.25c-4.17-4.33-13.6-6.75-22.57-6.75
						c-6.81,5.97-18.37,22.46-27.26,21.77C356.07,150.11,355.22,142.96,354.61,133.66z"/>
				</g>
				<g>
					<path style="fill:#FFAF2E;" d="M335.9,167.86c1.09,8,3.79,15.79,8.06,22.39c19.21,3.96,39.45,2.77,57.06-4.41
						c-3.76-8.83-5.46-18.52-4.05-27.64c-9.4,5.66-19.15,3.14-27.26,7.49C354.46,173.28,345.28,164.63,335.9,167.86z"/>
				</g>
				<g>
					<path style="fill:#141414;" d="M336.09,165.69c1.38,8.85,4.53,17.43,9.29,25.01c0.7,4.73,1.41,9.45,2.11,14.18
						c0.3,2.04,0.7,4.25,1.83,5.14c-1.28,3.48-1.27,7.42-0.59,10.36c0.3-1.92-0.33-3.92-1.45-5.51c-1.12-1.59-2.7-2.82-4.38-3.8
						c-1.57-0.91-3.4-1.64-5.17-1.26c2.1-0.99,4.54-1.25,6.95-1.35c-3.17-2.82-5.4-6.68-6.26-10.84c1.35,1.15,2.97,1.96,4.48,1.88
						c-0.71-2.43-0.74-5.05,0.36-7.35C337.37,185.57,334.88,176.1,336.09,165.69z"/>
				</g>
				<g>
					<path style="fill:#141414;" d="M328.27,204.39c1.91-0.73,3.82-1.46,5.73-2.19c0.39-0.15,0.79-0.3,1.08-0.6
						c0.9-0.91,0.16-2.64-1.07-3.01c-1.23-0.37-2.54,0.25-3.51,1.09C329.53,200.52,328.78,201.59,328.27,204.39z"/>
				</g>
				<g>
					<path style="fill:#141414;" d="M329.69,223.34c2.25-2.46,5.61-3.88,8.94-3.77c3.33,0.11,6.59,1.74,8.68,4.35
						c0.49,0.62,0.92,1.54,0.4,2.14c-0.17,0.2-0.42,0.32-0.67,0.42C341.55,228.86,334.65,227.49,329.69,223.34z"/>
				</g>
				<g>
					<path style="fill:#141414;" d="M347.41,235.6c9.91-3.08,16.57-12.93,26.47-16.06c0.94-0.3,2.07-0.5,2.85,0.1
						c1.35,1.04,0.42,3.19-0.65,4.52C369,232.92,358.97,239.25,347.41,235.6z"/>
				</g>
				<g>
					<path style="fill:#141414;" d="M418.87,227.18c-10.1-3.89-21.5-0.28-31.18,4.56c-9.68,4.84-19.05,11.01-29.77,12.51
						c15.24,0.99,30.75-2.46,44.13-9.82c3.55-1.95,7.21-4.24,11.26-4.1c1.38,0.05,2.79,0.39,4.13,0.06
						C418.79,230.08,420.04,228.73,418.87,227.18z"/>
				</g>
				<g>
					<path style="fill:#141414;" d="M393.39,141.92c-5.73,10.86-14.63,20.03-25.31,26.09c-1.37,0.78-3.52,1.28-4.17-0.15
						c-0.54-1.19,0.62-2.41,1.65-3.2C374.91,157.53,384.25,150.4,393.39,141.92z"/>
				</g>
				<g>
					<path style="fill:#141414;" d="M404.07,140.58c-9.95,12.65-13.04,30.39-7.98,45.77c-4.61,0.27-9.17,1.23-13.5,2.85
						c-0.91,0.34-1.97,0.95-1.9,1.92c0.09,1.14,1.59,1.47,2.74,1.48c3.26,0.03,6.52,0.06,9.78,0.09
						c-4.27,6.95-11.05,12.31-18.79,14.87c-2.09,0.69-4.76,1.95-4.37,4.11c0.32,1.74,2.58,2.39,4.29,1.96
						c1.71-0.43,3.19-1.55,4.9-1.99c3.26-0.84,6.63,0.94,9.19,3.13s4.77,4.87,7.75,6.42c3.82,1.98,8.46,1.82,12.56,0.51
						c4.1-1.31,7.77-3.66,11.06-6.1c2.26-6.81,1.78-14.19,1.27-21.35c-0.62-8.74-1.25-17.54-3.62-25.97
						C414.68,158.34,409.56,149.26,404.07,140.58z"/>
				</g>
				<g>
					<path style="fill:#141414;" d="M344.99,168.62c6.13,8.79,14.15,16.25,23.36,21.74c0.96,0.57,1.97,1.16,2.53,2.12
						c0.56,0.96,0.46,2.41-0.52,2.94c-1.01,0.55-2.22-0.12-3.15-0.8C358.2,188.05,350.87,179.18,344.99,168.62z"/>
				</g>
				<g>
					<path style="fill:#141414;" d="M331.06,154.06c1.51,1.61,2.57,3.62,3.05,5.77c0.18,0.79,0.11,1.87-0.67,2.09
						c-0.74,0.21-1.35-0.58-1.65-1.28C330.96,158.7,330.69,156.54,331.06,154.06z"/>
				</g>
				<g>
					<path style="fill:#F04741;" d="M427.67,203.99c-9.3,8.94-23.28,17.02-34.89,22.52c-4.42-0.87-9.27-6.35-11.1-10.71
						c6.64-6.96,13.21-13.7,19.79-20.45c-0.36-0.63-0.35-1.5,0.01-2.2c0.36-0.7,1.05-1.21,1.82-1.34c-1.16-0.87-2.1-1.22-3.05-1.56
						c0.26-1.27,1.1-2.4,2.22-3.02c-3.4-8-4.72-17.48-4.72-26.18c0-14.16,6.98-31.67,15.39-23.25c6.37,6.37,8.21,13.15,9.76,18.78
						c2.04,7.41,2.65,15.22,1.14,22.22c1.15,0.7,1.94,1.98,2.07,3.33c0.13,1.35,2.09,6.71,1.56,7.3
						C429.19,194.83,432.17,199.66,427.67,203.99z"/>
				</g>
				<g>
					<path d="M407.27,191.36c4.73-0.08,9.47,1.23,13.43,3.67c0.78,0.48,1.8,1.01,2.57,0.52c0.61-0.4,0.65-1.29,0.28-1.89
						c-0.37-0.61-1.04-0.99-1.69-1.32C415.77,189.21,408.5,188.18,407.27,191.36z"/>
				</g>
				<g>
					<path d="M413.01,197.97c3.16-0.08,6.31,1.43,8.23,3.94c0.23,0.3,0.44,0.62,0.51,0.98s-0.05,0.79-0.37,0.99
						c-0.49,0.3-1.12-0.07-1.57-0.42C417.57,201.72,415.34,199.98,413.01,197.97z"/>
				</g>
				<g>
					<path d="M381.68,216.15c1.93-1.48,3.89-2.98,6.16-3.85c2.27-0.87,4.93-1.04,7.06,0.11c1.76,0.95,2.98,2.7,3.7,4.57
						c0.71,1.87,0.97,3.88,1.23,5.87c-3.2,1.83-6.41,3.66-9.61,5.5c-0.76,0.44-1.65,0.89-2.49,0.61c-0.83-0.28-1.26-1.18-1.6-2
						C384.68,223.35,383.44,219.65,381.68,216.15z"/>
				</g>
				<g>
					<path d="M392.18,131.38c-1.65,2.33-3.32,4.67-5.32,6.7c-2.01,2.03-4.39,3.76-7.11,4.62
						C382.67,138.01,387.15,134.29,392.18,131.38z"/>
				</g>
				<g>
					<path d="M352.03,140.72c-1.11,3.03-0.69,6.58,1.1,9.27c1.79,2.69,4.91,4.44,8.13,4.58c-1.39,1.51-3.79,1.6-5.73,0.93
						c-2.71-0.95-4.93-3.23-5.75-5.99C348.96,146.76,349.57,143.61,352.03,140.72z"/>
				</g>
				<g>
					<path style="fill:#FFFFFF;" d="M411.383,146.125c3.389-0.595,7.085,4.324,8.255,10.987c1.171,6.663-0.628,12.548-4.017,13.143
						c-3.389,0.595-7.085-4.324-8.255-10.987C406.196,152.605,407.994,146.72,411.383,146.125z"/>
				</g>
				<g>
					<path d="M423.8,178.6c-4.82,2.19-9.64,4.39-14.46,6.58c-0.54,0.24-1.1,0.49-1.69,0.48c-0.59-0.01-1.22-0.4-1.31-0.98
						c-0.09-0.54,0.28-1.04,0.64-1.44C411.09,178.67,417.75,176.57,423.8,178.6z"/>
				</g>
				<g>
					<path style="fill:#9E5E45;" d="M386.66,212.83c-2.23,0.91-4.46,1.81-7.13,3.56c-4.28-0.03-8.56-0.06-12.84-0.09
						c-3.2-0.02-6.74,0.08-9.09,2.25c-0.96,0.89-1.64,2.11-1.68,3.42c-0.04,1.3,0.65,2.65,1.83,3.21c2.04,0.97,4.85-0.51,6.55,1.05
						c-1.06,5.37-2.13,10.79-4.34,15.79c-0.64,1.44-1.39,2.91-1.37,4.49s1.13,3.28,2.56,3.25c-1.35,1-2.63,2.22-3.17,3.82
						c-0.54,1.6-0.09,3.62,1.37,4.44c1.24,0.7,2.8,0.37,4.15-0.08c6.09-2.03,11.4-6.31,15.53-11.35c0.97-3.84,1.93-7.67,2.7-11.93
						c3.73-2.26,7.21-4.95,11.05-8.15c0.52-2.13,1.24-4.23,1.44-6.41c0.2-2.18-0.19-4.54-1.65-6.18
						C391.12,212.27,388.63,212.03,386.66,212.83z"/>
				</g>
				<g>
					<path d="M361.75,249.4c4.68-3.67,8.49-8.45,11.02-13.84c0.73,3.13-0.62,6.47-2.77,8.86
						C367.84,246.82,364.97,248.43,361.75,249.4z"/>
				</g>
				<g>
					<path d="M364.36,226.21c2.24-1.44,4.55-2.78,6.91-4.01c-1.71-0.57-3.63-0.53-5.32,0.11s-3.31,1.6-4.21,3.16
						C362.53,225.43,363.5,226.09,364.36,226.21z"/>
				</g>
				<g>
					<path style="fill:#FFFFFF;" d="M382,228.32c0.15-1.94,0.29-3.88,0.44-5.82c0.05-0.61,0.11-1.27,0.48-1.76
						c0.29-0.38,0.73-0.61,1.15-0.84c2.12-1.11,4.24-2.22,6.53-3.29c0.44,1.71,0.82,3.47,0.71,5.23c-0.11,1.77-0.75,3.56-2.16,4.89
						C387.33,228.24,385.32,229.51,382,228.32z"/>
				</g>
				<g>
					<path style="fill:#9E5E45;" d="M326.44,229.99c-1.22-1.97-0.19-4.72,1.68-6.1c1.86-1.38,4.29-1.7,6.6-1.84
						c4.48-0.26,9.12,0.05,13.16,2.01c4.04,1.96,7.37,5.82,8.19,10.67c-0.49,10.41-5.92,20.48-14.06,26.53
						c0.89,1.96,0.39,4.47-1.2,5.93c-1.58,1.46-4.13,1.76-6.39,1.3c-0.05,2.76-2.19,5.33-4.89,5.88c-2.7,0.54-5.68-1-6.88-3.53
						c-2.11,0.38-4.36-0.19-6.04-1.52c-1.68-1.33-2.75-3.39-2.61-6.25c-1.58-3.93-3.16-7.91-3.7-12.11
						c-0.54-4.2,0.07-8.7,3.25-12.46c-1.83-1.55-1.83-4.59-0.4-6.52c1.43-1.92,3.93-2.82,6.33-2.88
						C321.87,229.06,324.22,229.72,326.44,229.99z"/>
				</g>
				<g>
					<path d="M313.67,238.76c5.03,0.56,10.12,0.61,15.17,0.13c-1.94,2.17-4.83,3.47-7.74,3.48
						C318.19,242.38,315.29,241.11,313.67,238.76z"/>
				</g>
				<g>
					<path d="M326.65,229.98c3.74,1.12,7.8,1.17,11.57,0.12c0.1-0.03,0.21-0.07,0.24-0.16c0.03-0.1-0.04-0.2-0.11-0.28
						c-1.54-1.72-3.68-2.96-5.98-3.16C330.07,226.3,327.64,227.23,326.65,229.98z"/>
				</g>
				<g>
					<path d="M322.56,270.67c2.23-5.51,4.79-10.89,7.66-16.1C325.22,258,322.03,263.94,322.56,270.67z"/>
				</g>
				<g>
					<path d="M334.25,267.83c-1.39-1.87-1.43-4.48-0.69-6.68c0.74-2.21,2.16-4.11,3.56-5.97c-0.07,2.04-0.57,4.05-1.34,5.94
						C334.79,263.57,333.32,266,334.25,267.83z"/>
				</g>
				<g>
					<path d="M318.47,257.33c2.16-4.16,4.55-8.2,7.15-12.11c-1.26-0.01-2.44,0.65-3.34,1.53s-1.54,1.98-2.18,3.06
						C318.92,251.81,317.71,253.99,318.47,257.33z"/>
				</g>
				<g>
					<path d="M335.36,241.87c2.54,0.92,5.28,1.29,7.97,1.08c0.91-0.07,1.83-0.21,2.73-0.08c0.9,0.13,1.82,0.57,2.25,1.38
						c0.24,0.46,0.29,1.06-0.03,1.47c-0.29,0.37-0.8,0.48-1.26,0.53c-2.25,0.24-4.52-0.46-6.5-1.57
						C338.55,243.57,336.82,242.07,335.36,241.87z"/>
				</g>
				<g>
					<path d="M381.66,234.62c-1.14-0.98-2.28-1.97-3.41-2.95c-1.12-0.97-2.25-1.94-3.37-2.93c-0.1-0.09-0.2-0.18-0.22-0.31
						c-0.03-0.24,0.24-0.4,0.48-0.46c0.94-0.22,1.96,0.12,2.72,0.71c0.77,0.6,1.32,1.42,1.79,2.27
						C380.38,232.25,380.96,233.62,381.66,234.62z"/>
				</g>
			</g>
			<g>
				<g>
					<path style="fill:#F04741;" d="M343.09,100c-2.44-7.86,1.54-17.17,6.77-23.52c5.23-6.35,13.95-9.71,22.05-8.24
						c7.41,1.35,13.86,6.54,17.41,13.18c3.55,6.64,4.35,14.57,2.91,21.97c1.24-9.11-3.17-18.75-10.87-23.76
						c-7.7-5.01-18.31-5.14-26.13-0.32C348.86,83.24,342.04,90.88,343.09,100z"/>
				</g>
				<g>
					<path d="M346.06,117.51c0,0-2.95-12.83-2.98-19.71c-0.02-6.88,3.95-14.07,9.37-18.31c3.8-2.98,8.69-4.25,13.51-4.63
						c4.18-0.33,8.48-0.03,12.37,1.52c6.98,2.79,11.97,9.53,13.65,16.86c1.69,7.33,0.35,15.12-2.68,22.01
						c-0.31,0.69-0.65,1.41-1.25,1.87c-0.91,0.7-2.23,0.65-3.28,0.16c-1.05-0.48-3.35-2.4-3.35-2.4s3.26-9.07,3.81-13.83
						c0.8-6.92,1.51-17.88-7.02-21.05c-4.9-1.82-13.44-1.36-18.2,0.79c-4.77,2.14-7.97,6.63-8.94,11.76
						c-0.9,4.76,3.61,23.64,3.34,24.63C352.95,122.55,346.06,117.51,346.06,117.51z"/>
				</g>
				<g>
					<path style="fill:#FFFFFF;" d="M348.1,84.71c2.71-7.83,10.34-13.71,18.61-14.33c8.27-0.62,16.69,4.07,20.04,12.05
						c-5.4-4.62-12.64-7.03-19.73-6.57S353.07,79.66,348.1,84.71z"/>
				</g>
				<g>
					<g>
						<g>
							<path style="fill:#FFFFFF;" d="M371.8,82.47c7,0,13.63,2.04,18.75,5.77c1.66,7.42,1.63,14.49-0.09,21.52
								c-5.56-0.29-11.06-0.44-16.36-0.44c-9.59,0-18.96,0.49-27.85,1.46c-2.58-5.73-3.29-12.41-1.96-18.64
								c8.05-5.35,15.54-8.41,22.87-9.36C368.69,82.57,370.25,82.47,371.8,82.47 M371.8,80.47c-1.65,0-3.29,0.11-4.91,0.32
								c-8.82,1.14-17.03,5.15-24.38,10.13c-1.76,7.34-0.84,15.36,2.55,22.01c9.62-1.11,19.32-1.6,29.04-1.6
								c5.96,0,11.92,0.19,17.88,0.53c2.15-7.63,2.5-15.79,0.36-24.77C386.49,82.58,379.11,80.47,371.8,80.47L371.8,80.47z"/>
						</g>
					</g>
					<g>
						<path style="fill:#FFFFFF;" d="M341.82,102.6c-0.258,0-0.516-0.099-0.711-0.296c-0.389-0.393-0.385-1.026,0.008-1.415
							c6.774-6.705,15.689-10.421,25.78-10.749c9.78-0.304,19.781,3.149,27.422,9.511c0.425,0.354,0.483,0.984,0.129,1.408
							c-0.353,0.424-0.984,0.483-1.408,0.129c-7.27-6.052-16.764-9.352-26.078-9.049c-9.577,0.31-18.028,3.828-24.439,10.171
							C342.329,102.504,342.074,102.6,341.82,102.6z"/>
					</g>
					<g>
						<path style="fill:#FFFFFF;" d="M379.16,112.351c-0.415,0-0.802-0.26-0.945-0.674c-2.066-5.979-3.208-11.331-3.393-15.906
							c-0.249-6.124,1.753-11.503,5.492-14.755c0.417-0.362,1.048-0.32,1.411,0.098c0.362,0.416,0.318,1.048-0.099,1.411
							c-3.278,2.852-5.03,7.65-4.807,13.165c0.178,4.38,1.283,9.539,3.286,15.334c0.181,0.522-0.097,1.091-0.619,1.272
							C379.379,112.332,379.269,112.351,379.16,112.351z"/>
					</g>
					<g>
						<path style="fill:#FFFFFF;" d="M365.221,112.53c-0.03,0-0.061-0.002-0.092-0.004c-0.55-0.05-0.955-0.537-0.905-1.087
							c0.446-4.902,0.908-9.971,0.177-14.954c-0.804-5.401-3.049-9.968-6.322-12.855c-0.414-0.366-0.453-0.998-0.088-1.412
							c0.367-0.415,0.999-0.452,1.412-0.088c3.625,3.2,6.104,8.194,6.977,14.063c0.767,5.22,0.294,10.409-0.163,15.428
							C366.168,112.14,365.732,112.53,365.221,112.53z"/>
					</g>
				</g>
			</g>
		</g>
	</g>
	<g>
		<g>
			<path style="fill:#F04741;" d="M428.74,36.45c-1.07,6-9.29,10.53-16.9,9.45c-4.61-0.66-8.5-3.24-10.58-6.52
				c-1.36-2.12-1.96-4.54-1.5-6.9c1.16-5.98,8.76-10.7,16.48-10.38c4.98,0.2,9.27,3.75,11.33,7.86
				C428.64,32.1,429.11,34.4,428.74,36.45z"/>
		</g>
		<g>
			<path d="M428.74,36.45c-1.07,6-9.29,10.53-16.9,9.45c-4.61-0.66-8.5-3.24-10.58-6.52c2.42,0.67,4.94,1.12,7.5,1.25
				c3.54,0.19,7.17-0.27,10.3-1.57c3.63-1.5,6.48-4.11,7.85-7.14c0.29-0.64,0.51-1.29,0.66-1.96
				C428.64,32.1,429.11,34.4,428.74,36.45z"/>
		</g>
		<g>
			<path style="fill:#FFB387;" d="M408.86,23.29c-0.95,0.22-1.93,0.74-2.26,1.48c-0.33,0.73-0.18,1.59,0.38,2.23
				c-1.52,0.83-1.96,2.66-0.93,3.87c-1.56,1.23-1.53,3.47,0.07,4.68c-0.95,0.79-1.16,2.07-0.49,3.02c0.34,0.48,0.87,0.88,1.08,1.4
				c0.23,0.59,0.01,1.22,0.06,1.83c0.07,0.94,0.84,1.83,1.93,2.24c-0.3,0.3-0.34,0.75-0.1,1.08c0.24,0.33,1.02,0.48,1.56,0.46
				c-0.57-0.45-1-1.12-0.57-1.78c-0.82-0.14-1.54-0.63-1.83-1.24c-0.29-0.62-0.16-1.35,0.44-2.21c-0.93-0.44-1.61-1.19-1.81-2.03
				c-0.2-0.84,0.08-1.73,0.9-2.69c-0.79-0.58-1.27-1.41-1.3-2.26c-0.03-0.85,0.4-1.7,1.19-2.52c-0.55-0.58-0.79-1.33-0.66-2.04
				c0.12-0.71,0.61-1.38,1.56-1.93c-0.57-0.58-0.65-1.38-0.44-2.1C407.87,24.07,408.52,23.5,408.86,23.29z"/>
		</g>
		<g>
			<path style="fill:#FFB387;" d="M405.06,25.26c-0.95,0.19-1.93,0.63-2.26,1.25c-0.33,0.62-0.18,1.34,0.38,1.88
				c-1.52,0.7-1.96,2.24-0.93,3.26c-1.56,1.04-1.53,2.93,0.07,3.95c-0.95,0.66-1.16,1.74-0.49,2.55c0.34,0.4,0.87,0.74,1.08,1.18
				c0.23,0.49,0.01,1.03,0.06,1.55c0.07,0.79,0.84,1.54,1.93,1.89c-0.3,0.26-0.34,0.63-0.1,0.91c0.24,0.28,1.02,0.4,1.56,0.39
				c-0.57-0.38-1-0.95-0.57-1.5c-0.82-0.12-1.54-0.53-1.83-1.05c-0.29-0.52-0.16-1.14,0.44-1.86c-0.93-0.37-1.61-1.01-1.81-1.71
				c-0.2-0.7,0.08-1.46,0.9-2.27c-0.79-0.49-1.27-1.19-1.3-1.91s0.4-1.43,1.19-2.12c-0.55-0.49-0.79-1.12-0.66-1.72
				c0.12-0.6,0.61-1.17,1.56-1.63c-0.57-0.49-0.65-1.17-0.44-1.77C404.06,25.92,404.71,25.44,405.06,25.26z"/>
		</g>
		<g>
			<path style="fill:#A6DFFE;" d="M372.12,38C318.52,45.37,268.56,59.3,232,77.08C280.89,62.92,329.78,48.76,372.12,38z"/>
		</g>
		<g>
			<path style="fill:#A6DFFE;" d="M380.25,41.47c-26.66,2.95-51.98,12.72-71,27.41C334.06,58.8,358.87,48.71,380.25,41.47z"/>
		</g>
	</g>
</g>
</svg>
